<?xml version="1.0" encoding="UTF-8"?>
<svg version="1.1" xmlns="http://www.w3.org/2000/svg" width="2500" height="1000">
<path d="M0 0 C0.71969971 -0.00040283 1.43939941 -0.00080566 2.1809082 -0.0012207 C13.12059886 0.03417493 22.52006554 0.7502758 32.5625 5.4375 C33.23651855 5.7375293 33.91053711 6.03755859 34.60498047 6.34667969 C43.01896716 10.11138707 50.63122414 14.28941915 57.5625 20.4375 C58.38105469 21.13746094 59.19960938 21.83742187 60.04296875 22.55859375 C80.32952912 40.26713435 93.86610676 64.6291531 97.5625 91.4375 C97.68878078 94.28517517 97.77341304 97.10874104 97.80078125 99.95703125 C97.808853 100.77386887 97.81692474 101.59070648 97.82524109 102.43229675 C97.83902875 104.16114214 97.84977452 105.89001413 97.85766602 107.61889648 C97.86909281 109.35335509 97.88939377 111.08778118 97.91918945 112.82202148 C98.29789738 134.92883239 93.39034591 161.92807741 78.06918132 179.11241817 C73.12884586 184.7819815 72.70617706 189.34062638 72.80300903 196.68774414 C72.78919441 198.35395058 72.78919441 198.35395058 72.77510071 200.05381775 C72.75150057 203.77724594 72.77068211 207.49921859 72.78955078 211.22265625 C72.78468883 213.93699725 72.7708151 216.65127532 72.75732231 219.36558533 C72.73006137 225.89468558 72.73347865 232.42340693 72.74774372 238.95253414 C72.76291926 246.50821206 72.73972 254.06345452 72.71655273 261.61914062 C72.67429861 281.55855133 72.68407602 301.49804482 72.6875 321.4375 C72.64625 365.9875 72.605 410.5375 72.5625 456.4375 C-51.5175 456.4375 -175.5975 456.4375 -303.4375 456.4375 C-303.4375 434.79011591 -303.4375 434.79011591 -294.86328125 426.1171875 C-291.35837403 422.4310432 -288.36770668 418.48087157 -285.375 414.375 C-281.63562626 409.33558117 -277.83506151 404.35553437 -273.9375 399.4375 C-270.02267135 394.49620087 -266.20455398 389.49232702 -262.4375 384.4375 C-258.1821434 378.72917843 -253.84950628 373.09267674 -249.43481445 367.50683594 C-246.05967236 363.23597606 -242.72963838 358.93255099 -239.41748047 354.61254883 C-235.18399507 349.09611387 -230.91028722 343.61119518 -226.63647461 338.12597656 C-222.16914654 332.3888447 -217.73746955 326.62553955 -213.328125 320.84375 C-211.4375 318.4375 -211.4375 318.4375 -209.4375 316.4375 C-206.93787754 316.2497299 -204.55005803 316.18555929 -202.05029297 316.21044922 C-201.28922241 316.21015717 -200.52815186 316.20986511 -199.74401855 316.20956421 C-197.22245984 316.21096019 -194.70119475 316.22653382 -192.1796875 316.2421875 C-190.43376833 316.24591668 -188.68784706 316.2487641 -186.94192505 316.25076294 C-182.3420028 316.25840689 -177.74220643 316.27806187 -173.14233398 316.3001709 C-168.4503754 316.32061296 -163.75839651 316.32976114 -159.06640625 316.33984375 C-149.85671546 316.36130708 -140.64711819 316.39545217 -131.4375 316.4375 C-131.15245605 315.68556366 -130.86741211 314.93362732 -130.57373047 314.15890503 C-129.61273749 311.85721432 -128.62564371 309.96300972 -127.2578125 307.89501953 C-126.82976318 307.24308624 -126.40171387 306.59115295 -125.96069336 305.91946411 C-125.49928955 305.22674408 -125.03788574 304.53402405 -124.5625 303.8203125 C-124.0785376 303.08610077 -123.5945752 302.35188904 -123.09594727 301.59542847 C-121.54733201 299.24831235 -119.99250171 296.90538857 -118.4375 294.5625 C-117.42277159 293.02630944 -116.40844501 291.48985337 -115.39453125 289.953125 C-112.90148037 286.17743063 -110.40177893 282.40620731 -107.8984375 278.6373291 C-106.45191933 276.45921213 -105.00719734 274.27991088 -103.5625 272.10058594 C-102.66680837 270.75185901 -101.77098176 269.40322171 -100.875 268.0546875 C-100.46950928 267.44271515 -100.06401855 266.8307428 -99.64624023 266.20022583 C-98.58560731 264.6066592 -97.51212987 263.02166144 -96.4375 261.4375 C-96.0148436 260.72191422 -95.59218719 260.00632843 -95.15672302 259.26905823 C-93.4375 257.4375 -93.4375 257.4375 -90.9176178 257.0059967 C-89.40970924 257.05148903 -89.40970924 257.05148903 -87.87133789 257.09790039 C-86.72907242 257.12014175 -85.58680695 257.14238312 -84.40992737 257.16529846 C-83.1725029 257.20485153 -81.93507843 257.2444046 -80.66015625 257.28515625 C-78.70843142 257.30700739 -76.75670205 257.32877713 -74.80493069 257.34597683 C-69.99698866 257.39186254 -65.19127326 257.47301379 -60.38549805 257.62573242 C-44.40808708 258.90757882 -44.40808708 258.90757882 -30.01196289 253.61938477 C-26.88469051 250.55454297 -24.68261889 247.18125992 -22.4375 243.4375 C-21.24028013 242.01417081 -20.01911811 240.60961046 -18.75 239.25 C-18.22664063 238.64414062 -17.70328125 238.03828125 -17.1640625 237.4140625 C-14.27793456 234.11003368 -11.3117563 230.87794968 -8.35546875 227.63671875 C-6.31230508 225.38927481 -6.31230508 225.38927481 -4.4375 222.4375 C-6.16557318 222.09854344 -7.89501974 221.76658475 -9.625 221.4375 C-10.58792969 221.251875 -11.55085938 221.06625 -12.54296875 220.875 C-16.48805781 220.23138754 -16.48805781 220.23138754 -20.4375 220.4375 C-22.9257812 222.46224079 -22.9257812 222.46224079 -25.1875 225.25 C-26.47720703 226.74080078 -26.47720703 226.74080078 -27.79296875 228.26171875 C-28.67701382 229.3181967 -29.55851289 230.37681013 -30.4375 231.4375 C-30.87271973 231.96037598 -31.30793945 232.48325195 -31.75634766 233.02197266 C-33.76312174 235.44054799 -35.7505551 237.87338207 -37.72265625 240.3203125 C-39.4375 242.4375 -39.4375 242.4375 -40.4375 243.4375 C-42.09488443 243.53096915 -43.75624644 243.55494977 -45.41625977 243.55102539 C-46.47728409 243.55094986 -47.53830841 243.55087433 -48.63148499 243.55079651 C-49.785634 243.54563522 -50.93978302 243.54047394 -52.12890625 243.53515625 C-53.30388168 243.5337413 -54.47885712 243.53232635 -55.68943787 243.53086853 C-59.45965064 243.52524992 -63.22980504 243.51269426 -67 243.5 C-69.54882727 243.4949874 -72.09765547 243.49042408 -74.64648438 243.48632812 C-80.91017633 243.47527444 -87.17383399 243.45851821 -93.4375 243.4375 C-93.73011719 244.21222656 -94.02273437 244.98695313 -94.32421875 245.78515625 C-95.61584203 248.86239207 -97.27234293 250.90117315 -99.4375 253.4375 C-102.84001075 257.49873683 -106.15762853 261.6020501 -109.375 265.8125 C-109.79072266 266.35583984 -110.20644531 266.89917969 -110.63476562 267.45898438 C-111.48078318 268.56571612 -112.32632261 269.67281351 -113.17138672 270.78027344 C-115.25294696 273.50484554 -117.34574162 276.22075503 -119.4375 278.9375 C-120.26176592 280.0090783 -121.08598452 281.08069301 -121.91015625 282.15234375 C-123.66730672 284.43670819 -125.42524045 286.72046756 -127.18359375 289.00390625 C-127.63412109 289.58914063 -128.08464844 290.174375 -128.54882812 290.77734375 C-129.80192113 292.4050728 -131.05525014 294.03262016 -132.30859375 295.66015625 C-134.40755745 298.24681637 -134.40755745 298.24681637 -135.59602356 300.58270264 C-137.91669817 302.92016461 -139.61040227 302.9087595 -142.82420349 302.93518066 C-143.55212601 302.92079956 -144.28004852 302.90641846 -145.0300293 302.89160156 C-145.80099945 302.89218567 -146.5719696 302.89276978 -147.36630249 302.89337158 C-149.91523224 302.89058429 -152.46299326 302.85946331 -155.01171875 302.828125 C-156.77862407 302.82066487 -158.54553767 302.81497086 -160.31245422 302.81097412 C-164.96349929 302.79569977 -169.61404489 302.75640264 -174.26489258 302.7121582 C-179.01051069 302.67124421 -183.75620949 302.6529714 -188.50195312 302.6328125 C-197.81402156 302.58990997 -207.12571925 302.52163699 -216.4375 302.4375 C-216.73892914 303.05922089 -217.04035828 303.68094177 -217.35092163 304.32150269 C-218.49715984 306.55368128 -219.80545941 308.27278748 -221.4140625 310.1953125 C-221.99841064 310.89833496 -222.58275879 311.60135742 -223.18481445 312.32568359 C-223.80445068 313.06383301 -224.42408691 313.80198242 -225.0625 314.5625 C-226.34036035 316.09852871 -227.61770739 317.6349846 -228.89453125 319.171875 C-229.81613037 320.27885742 -229.81613037 320.27885742 -230.75634766 321.40820312 C-232.78261082 323.85407873 -234.77322663 326.32649698 -236.75 328.8125 C-240.92649276 334.0642175 -245.18143817 339.25019729 -249.4375 344.4375 C-250.93778317 346.27060162 -252.43778408 348.10393427 -253.9375 349.9375 C-256.19752052 352.70062074 -258.45841569 355.46299212 -260.72265625 358.22265625 C-264.98415233 363.41978097 -269.21012436 368.64218794 -273.3984375 373.8984375 C-276.34129211 377.56291164 -279.33716618 381.18334538 -282.328125 384.80859375 C-284.73536089 387.80872292 -286.97428816 390.901995 -289.1484375 394.07421875 C-289.78652344 394.74904297 -289.78652344 394.74904297 -290.4375 395.4375 C-293.4375 395.4375 -293.4375 395.4375 -295.2265625 393.828125 C-295.83242188 393.12171875 -296.43828125 392.4153125 -297.0625 391.6875 C-297.67351562 390.99140625 -298.28453125 390.2953125 -298.9140625 389.578125 C-301.46113161 385.99916636 -301.46113161 385.99916636 -301.4375 383.4375 C-299.86649517 381.20358561 -298.33189897 379.31141641 -296.5 377.3125 C-295.47155784 376.14680149 -294.44422176 374.98012625 -293.41796875 373.8125 C-292.9079834 373.23886719 -292.39799805 372.66523437 -291.87255859 372.07421875 C-289.94589586 369.87681368 -288.12399869 367.60535027 -286.3125 365.3125 C-282.07772723 359.97375388 -277.76023269 354.70513295 -273.4375 349.4375 C-270.43416924 345.7735475 -267.43445519 342.10666943 -264.4375 338.4375 C-263.94733398 337.83776367 -263.45716797 337.23802734 -262.95214844 336.62011719 C-257.17412376 329.54622006 -251.42540465 322.45589273 -245.8125 315.25 C-240.99213583 309.06366141 -236.02114306 303.00669648 -230.79151917 297.15956116 C-229.34361506 295.42602223 -229.34361506 295.42602223 -228.25132751 293.17332458 C-226.56728427 290.28390496 -225.10936329 288.47522229 -222.4375 286.4375 C-217.45021328 285.41824655 -212.68706661 285.53269861 -207.61889076 285.75921249 C-205.07251172 285.86894439 -202.53169115 285.91596204 -199.98320007 285.94631958 C-192.7471213 286.04329018 -185.51562393 286.24870639 -178.28344727 286.50195312 C-173.84648723 286.65298839 -169.41297696 286.72915334 -164.97365379 286.76239395 C-163.29422652 286.7902717 -161.6149961 286.84668076 -159.93758583 286.93355942 C-150.7567724 287.54598897 -150.7567724 287.54598897 -142.58407211 284.0051651 C-139.09429586 280.47987648 -136.33627495 276.53332634 -133.68597984 272.35588455 C-131.73825001 269.36304903 -129.52688946 266.61273093 -127.3125 263.8125 C-126.4926926 262.74509848 -125.67499841 261.67607075 -124.859375 260.60546875 C-122.84436055 257.96969985 -120.81989123 255.34159637 -118.79125977 252.71630859 C-113.89411177 246.37424409 -109.07355312 239.97693738 -104.28369141 233.5534668 C-100.53943425 228.53943425 -100.53943425 228.53943425 -99.4375 227.4375 C-97.82699622 227.36681746 -96.21340965 227.36503894 -94.6015625 227.39086914 C-93.05359985 227.40936668 -93.05359985 227.40936668 -91.47436523 227.42823792 C-90.34844971 227.44289597 -89.22253418 227.45755402 -88.0625 227.47265625 C-85.69141169 227.47868995 -83.32031467 227.48185178 -80.94921875 227.48242188 C-77.20010639 227.48413648 -73.45416213 227.49971332 -69.70556641 227.56420898 C-66.09391826 227.62185948 -62.48696933 227.61530701 -58.875 227.59765625 C-57.76527832 227.63053238 -56.65555664 227.66340851 -55.51220703 227.69728088 C-50.59601224 227.62270155 -47.59216107 227.35296639 -43.66455078 224.23898315 C-38.9483292 219.54688685 -38.9483292 219.54688685 -37.4375 213.4375 C-39.80503967 211.83583966 -42.14704622 210.41076898 -44.625 209 C-70.1250207 193.74304471 -86.52694257 168.50522064 -93.75 140 C-101.37405559 108.63521435 -96.0466539 75.02950004 -79.64941406 47.38330078 C-62.2791626 19.49431928 -33.15893106 -0.01885101 0 0 Z " fill="#020100" transform="translate(325.4375,221.5625)"/>
<path d="M0 0 C1.43472656 0.74056641 1.43472656 0.74056641 2.8984375 1.49609375 C22.51059258 12.2287298 36.0868759 28.91225321 44.8125 49.375 C45.09037354 50.00929932 45.36824707 50.64359863 45.65454102 51.29711914 C50.49348355 63.21413765 51.53768524 75.70920353 51.4375 88.4375 C51.43293793 89.45106567 51.43293793 89.45106567 51.42828369 90.48510742 C51.35922286 100.88290679 50.62131554 110.19785886 47 120 C46.77505859 120.63244629 46.55011719 121.26489258 46.31835938 121.91650391 C37.70558279 145.94567603 22.48514206 165.80322288 -0.62109375 177.3046875 C-3.05266681 178.33481205 -5.48905787 179.18327903 -8 180 C-9.47919922 180.55494141 -9.47919922 180.55494141 -10.98828125 181.12109375 C-29.87263461 187.53422903 -49.31491847 184.44552873 -67 176 C-88.66890919 164.78968951 -102.33375148 146.24810685 -111 124 C-111.33902344 123.2265625 -111.67804688 122.453125 -112.02734375 121.65625 C-121.44127013 95.94753538 -118.33544069 67.4367038 -107 43 C-97.94703196 23.70424527 -81.96459082 6.13191805 -61.85253906 -1.85253906 C-57.2957398 -3.47720779 -52.68893112 -4.8145366 -48 -6 C-47.22011719 -6.20238281 -46.44023437 -6.40476563 -45.63671875 -6.61328125 C-30.07851241 -8.89515151 -13.92493201 -7.35471761 0 0 Z " fill="#F9D56F" transform="translate(359,244)"/>
<path d="M0 0 C2.01230162 -0.00970954 4.02358134 -0.04080409 6.03564453 -0.07226562 C20.72418522 -0.13084405 20.72418522 -0.13084405 26.14892578 3.24023438 C29.00673196 6.41923784 31.11095413 9.73633817 33.10986328 13.50195312 C33.65723145 14.52643555 34.20459961 15.55091797 34.76855469 16.60644531 C35.63746338 18.2504834 35.63746338 18.2504834 36.52392578 19.92773438 C37.45037136 21.66343496 38.37682382 23.39913191 39.30368042 25.13461304 C40.26878957 26.94348693 41.2316418 28.75354509 42.19384766 30.56396484 C44.76571391 35.40205109 47.34681629 40.23516103 49.93652344 45.0637207 C51.13718627 47.30279894 52.33490655 49.54345822 53.52929688 51.78588867 C56.81622155 57.95076209 56.81622155 57.95076209 60.54736328 63.84960938 C62.14892578 66.24023438 62.14892578 66.24023438 62.14892578 68.24023438 C65.04853229 68.35621864 66.54691203 68.38714277 69.14892578 67.24023438 C70.75787809 65.2691993 70.75787809 65.2691993 72.08276367 62.78540039 C72.59767365 61.87855499 73.11258362 60.97170959 73.64309692 60.03738403 C75.8880731 55.86723262 78.01764566 51.65446163 80.08251953 47.39257812 C80.98777638 45.55191504 81.893386 43.71142542 82.79931641 41.87109375 C84.19658122 39.02085024 85.59060399 36.16913829 86.97827148 33.31420898 C88.33718991 30.52323466 89.70898169 27.73888059 91.08251953 24.95507812 C91.48691757 24.11420151 91.89131561 23.27332489 92.30796814 22.40696716 C96.23621431 14.4834608 101.05625202 6.36914956 109.14892578 2.24023438 C116.69394157 -0.25368701 124.13404598 -0.09154686 132.02392578 -0.07226562 C133.33490234 -0.08837891 134.64587891 -0.10449219 135.99658203 -0.12109375 C145.98616542 -0.12610357 155.21899528 0.69804171 163.14892578 7.24023438 C165.49812735 10.23012729 165.56993398 13.46507381 165.46533203 17.21679688 C164.76005297 21.72709999 162.06476731 24.52543123 158.58642578 27.24023438 C151.86046293 32.75897312 151.70241207 41.9632716 150.85131836 50.07763672 C150.06460992 59.49152303 149.95079151 68.86293239 149.96142578 78.30273438 C149.96136536 79.12784515 149.96130493 79.95295593 149.96124268 80.80307007 C149.972762 91.9147974 150.23698787 102.967076 151.02392578 114.05273438 C151.10231689 115.16463135 151.18070801 116.27652832 151.26147461 117.42211914 C151.81716486 128.40917827 151.81716486 128.40917827 156.39892578 137.99023438 C158.34353628 139.58127933 160.35171875 141.09606784 162.39892578 142.55273438 C165.5165718 145.5995248 166.09412001 147.09232521 166.32470703 151.31445312 C165.93438491 155.59064876 163.25070369 158.50979607 160.14892578 161.24023438 C158.06298828 162.15429688 158.06298828 162.15429688 155.77392578 162.86523438 C155.02369141 163.105 154.27345703 163.34476563 153.50048828 163.59179688 C135.46977364 168.56372151 106.39103057 169.50123705 89.16455078 161.29492188 C86.13953137 159.46550538 84.01281039 157.69577279 83.14892578 154.24023438 C82.98121686 150.88605591 82.91178308 149.25097989 84.14892578 146.24023438 C86.31422592 143.99068131 88.62974158 142.08001884 91.05126953 140.11132812 C95.46948614 136.17031182 95.43247112 130.82113517 96.14892578 125.24023438 C96.35695745 120.51214661 96.33400271 115.7849992 96.33642578 111.05273438 C96.34867188 109.78236328 96.36091797 108.51199219 96.37353516 107.203125 C96.37546875 105.98431641 96.37740234 104.76550781 96.37939453 103.50976562 C96.38350342 102.40221924 96.3876123 101.29467285 96.3918457 100.15356445 C96.15401305 97.30124578 95.62921508 95.65555902 94.14892578 93.24023438 C88.84366486 94.95760865 87.48557983 97.19568377 84.8359375 101.9140625 C81.17125217 109.13948549 77.95686152 116.56963974 74.71142578 123.99023438 C71.88853543 130.42109038 69.04834706 136.84346144 66.14892578 143.24023438 C65.82720398 143.95139404 65.50548218 144.66255371 65.17401123 145.39526367 C64.27589031 147.35777901 63.356109 149.30820804 62.42626953 151.25585938 C61.91185303 152.34672852 61.39743652 153.43759766 60.86743164 154.56152344 C58.93179436 157.57868671 57.40788817 158.7950083 54.14892578 160.24023438 C51.10986328 159.85742188 51.10986328 159.85742188 48.14892578 158.24023438 C46.36600678 155.92810974 45.10334706 153.9259278 43.77392578 151.36523438 C43.36819336 150.61290527 42.96246094 149.86057617 42.54443359 149.08544922 C37.12190246 138.71629008 32.52685623 127.90992567 27.85839844 117.18603516 C27.20019868 115.67538334 26.54183584 114.16480256 25.88330078 112.65429688 C25.56682587 111.9275174 25.25035095 111.20073792 24.92428589 110.45193481 C22.53489509 105.00924851 19.94327482 99.70983457 17.18896484 94.44091797 C16.14892578 92.24023438 16.14892578 92.24023438 16.14892578 90.24023438 C13.67392578 90.73523438 13.67392578 90.73523438 11.14892578 91.24023438 C10.02250238 95.75772594 9.98750197 100.20393089 9.98095703 104.83007812 C9.97762863 105.65222305 9.97430023 106.47436798 9.97087097 107.32142639 C9.96582236 109.05534305 9.96346201 110.78926936 9.96362305 112.52319336 C9.96143602 115.16536556 9.94325706 117.80712028 9.92431641 120.44921875 C9.9213821 122.13867046 9.91939755 123.82812413 9.91845703 125.51757812 C9.91127151 126.30212875 9.904086 127.08667938 9.89668274 127.89500427 C9.91521166 132.37691069 10.30930841 136.06638928 12.14892578 140.24023438 C14.46027408 142.1520931 14.46027408 142.1520931 17.21142578 143.49023438 C22.07064789 146.0836786 22.07064789 146.0836786 23.14892578 148.24023438 C23.8427497 155.29411085 23.8427497 155.29411085 21.08642578 159.05273438 C8.93933444 168.09844069 -10.48045931 167.26987986 -24.85107422 165.24023438 C-30.68740409 164.0204499 -35.39626372 162.36672738 -38.85107422 157.24023438 C-39.53330574 154.08843752 -39.57850135 151.38650457 -38.85107422 148.24023438 C-36.24741617 145.32098142 -33.79547636 144.2153112 -30.22607422 142.61523438 C-27.0444573 140.83661618 -26.21206519 139.29654478 -25.21044922 135.81835938 C-23.66003295 130.11983666 -23.10902211 124.4931584 -22.72607422 118.61523438 C-22.64824707 117.52331787 -22.57041992 116.43140137 -22.49023438 115.30639648 C-22.25978618 111.95185335 -22.05095472 108.59672773 -21.85107422 105.24023438 C-21.79177734 104.26747559 -21.73248047 103.2947168 -21.67138672 102.29248047 C-20.96362373 90.11937843 -20.73800978 77.93829626 -20.67584229 65.74679565 C-20.66778956 64.26559506 -20.65677823 62.784407 -20.64251709 61.30325317 C-20.10687722 45.01372274 -20.10687722 45.01372274 -25.85107422 30.24023438 C-28.21099608 28.59437223 -28.21099608 28.59437223 -30.85107422 27.30273438 C-34.11081719 25.43730482 -35.76111323 24.36103913 -38.03857422 21.30273438 C-39.42183232 16.08891538 -38.67741247 12.74535047 -36.10107422 8.05273438 C-28.0348326 -0.7682433 -10.887774 0.03171966 0 0 Z " fill="#FFFFFF" transform="translate(1398.85107421875,391.759765625)"/>
<path d="M0 0 C2.54719599 0.01076728 5.09369382 0.00002466 7.64086914 -0.01269531 C9.28865713 -0.01137424 10.93644469 -0.00881293 12.58422852 -0.00488281 C13.7048896 -0.01095551 13.7048896 -0.01095551 14.84819031 -0.01715088 C23.14636482 0.05536931 30.47078285 1.48479902 37.35375977 6.26074219 C40.29527559 10.84195433 40.3518965 16.02424874 39.35375977 21.26074219 C37.79923507 23.41795694 36.13485323 24.93170771 34.10766602 26.64355469 C29.50116606 30.89097335 28.46598492 37.50462444 28.22094727 43.52246094 C28.22481445 45.21822266 28.22481445 45.21822266 28.22875977 46.94824219 C28.22618164 48.08648437 28.22360352 49.22472656 28.22094727 50.39746094 C28.15738192 53.20572822 28.15738192 53.20572822 29.35375977 55.26074219 C31.62568718 55.71262721 31.62568718 55.71262721 34.35375977 55.26074219 C36.39238769 53.51076954 38.00492967 51.90695283 39.72875977 49.88574219 C40.44394775 49.07024902 40.44394775 49.07024902 41.17358398 48.23828125 C50.36229311 38.10074301 50.36229311 38.10074301 53.35375977 25.26074219 C53.03020508 24.62652344 52.70665039 23.99230469 52.37329102 23.33886719 C50.48658199 19.49316144 50.85841706 15.43483005 51.35375977 11.26074219 C52.84310292 7.43100266 54.15816012 5.84082251 57.85766602 4.04589844 C65.7180053 1.04078913 73.02570065 0.10416099 81.37329102 0.09277344 C82.66030159 0.08778084 82.66030159 0.08778084 83.97331238 0.08268738 C85.78282132 0.07764215 87.5923395 0.07527831 89.40185547 0.07543945 C92.14705007 0.07325746 94.89183948 0.05508847 97.63696289 0.03613281 C99.40323757 0.03319735 101.16951414 0.03121358 102.93579102 0.03027344 C103.74546829 0.02308792 104.55514557 0.0159024 105.38935852 0.00849915 C113.34744004 0.03985745 121.18155889 0.82332713 127.35375977 6.26074219 C129.57025624 10.05023616 130.35375977 12.49392489 130.35375977 16.88574219 C129.1601401 20.91420855 127.55791415 22.60363855 124.35375977 25.26074219 C120.56906347 27.15309034 115.6610852 26.85015809 111.44555664 27.07128906 C100.74104892 27.98932761 93.77622405 35.29532468 86.47875977 42.57324219 C85.73368164 43.28158203 84.98860352 43.98992187 84.22094727 44.71972656 C79.61497364 49.28842163 76.20223474 53.65646084 75.35375977 60.26074219 C77.6399423 67.88135063 83.65262257 73.62468776 88.82299805 79.51220703 C90.83451925 81.80989681 92.81765527 84.13117467 94.80078125 86.45336914 C96.30517864 88.21453673 97.81331077 89.97243824 99.32250977 91.72949219 C101.32463421 94.061015 103.3246752 96.39429242 105.32250977 98.72949219 C111.13966451 105.52765773 116.95727454 112.3260838 122.84960938 119.05932617 C125.05341401 121.57981338 127.22106815 124.08940515 129.27172852 126.73730469 C133.44478258 132.07469236 138.2381984 134.5879676 144.36547852 137.42480469 C147.9209618 139.60921925 149.41687092 141.5857383 151.35375977 145.26074219 C152.32630485 150.01620162 152.04966686 154.02357402 149.66625977 158.26074219 C142.71785862 164.27017021 132.71811411 163.41815398 124.01000977 163.42871094 C122.55721619 163.43370354 122.55721619 163.43370354 121.07507324 163.438797 C119.03792797 163.44383426 117.00077454 163.44620632 114.96362305 163.44604492 C111.86306107 163.44823562 108.76285292 163.46643709 105.66235352 163.48535156 C103.67407347 163.4882854 101.68579175 163.49027026 99.69750977 163.49121094 C98.77957642 163.49839645 97.86164307 163.50558197 96.91589355 163.51298523 C83.7968662 163.46683084 83.7968662 163.46683084 78.73657227 158.89746094 C77.99149414 157.92421875 77.24641602 156.95097656 76.47875977 155.94824219 C76.06368164 155.4191626 75.64860352 154.89008301 75.22094727 154.3449707 C73.9106319 152.66538912 72.63032692 150.96607256 71.35375977 149.26074219 C69.69093686 147.07030518 68.02239371 144.8842541 66.35375977 142.69824219 C65.94359619 142.15748047 65.53343262 141.61671875 65.11083984 141.05957031 C61.54191839 136.39709383 57.6694929 132.06439424 53.67016602 127.76464844 C51.58906813 125.51509744 49.5887713 123.21976673 47.60375977 120.88574219 C42.37661869 114.58766339 42.37661869 114.58766339 34.97875977 111.94824219 C34.11250977 112.05136719 33.24625977 112.15449219 32.35375977 112.26074219 C31.15416819 116.04185482 31.18594861 119.69009704 31.16625977 123.63574219 C31.15208008 124.92222656 31.13790039 126.20871094 31.12329102 127.53417969 C31.34820534 131.17093 31.93632319 133.91639895 33.35375977 137.26074219 C35.13604913 138.40284036 35.13604913 138.40284036 37.35375977 139.26074219 C40.58201467 141.57472941 43.05944229 143.37778975 44.35375977 147.26074219 C44.61777343 150.82492667 44.59771191 153.5614127 43.41625977 156.94824219 C36.91989067 164.23204997 25.2125083 165.07895471 16.02172852 165.70996094 C14.19541806 165.80040836 12.36851586 165.87949775 10.54125977 165.94824219 C9.5600415 165.98731689 8.57882324 166.0263916 7.56787109 166.06665039 C0.54610448 166.29706525 -6.43985988 166.24097217 -13.45874023 165.94824219 C-14.3344165 165.9136792 -15.21009277 165.87911621 -16.11230469 165.84350586 C-24.61814828 165.39865487 -32.896887 164.82895861 -39.64624023 159.26074219 C-42.47950487 155.01084523 -42.28692885 151.2501048 -41.64624023 146.26074219 C-39.69954031 142.89145386 -37.71989539 141.31485618 -34.58374023 139.01074219 C-29.72393807 135.07984085 -28.71076617 128.64044545 -27.91577148 122.68652344 C-27.74626748 120.98371731 -27.5951021 119.27902229 -27.45874023 117.57324219 C-27.37978516 116.61337402 -27.30083008 115.65350586 -27.21948242 114.66455078 C-25.74293046 93.89374737 -25.90106843 72.70978205 -27.45874023 51.94824219 C-27.52867188 50.97838379 -27.59860352 50.00852539 -27.6706543 49.00927734 C-28.2754544 42.2564794 -28.96055137 35.04217754 -33.83764648 29.99121094 C-34.62010742 29.48203125 -35.40256836 28.97285156 -36.20874023 28.44824219 C-39.40510266 26.32258244 -41.34598318 24.9368616 -42.64624023 21.26074219 C-43.28946186 16.66095961 -43.28912523 12.60495628 -41.27124023 8.38574219 C-29.95567605 -0.77447644 -13.78671654 -0.06936713 0 0 Z " fill="#FFFFFF" transform="translate(1993.646240234375,391.7392578125)"/>
<path d="M0 0 C2.54719599 0.01076728 5.09369382 0.00002466 7.64086914 -0.01269531 C9.28865713 -0.01137424 10.93644469 -0.00881293 12.58422852 -0.00488281 C13.7048896 -0.01095551 13.7048896 -0.01095551 14.84819031 -0.01715088 C23.14636482 0.05536931 30.47078285 1.48479902 37.35375977 6.26074219 C40.29527559 10.84195433 40.3518965 16.02424874 39.35375977 21.26074219 C37.79923507 23.41795694 36.13485323 24.93170771 34.10766602 26.64355469 C29.50116606 30.89097335 28.46598492 37.50462444 28.22094727 43.52246094 C28.22481445 45.21822266 28.22481445 45.21822266 28.22875977 46.94824219 C28.22618164 48.08648437 28.22360352 49.22472656 28.22094727 50.39746094 C28.15738192 53.20572822 28.15738192 53.20572822 29.35375977 55.26074219 C31.62568718 55.71262721 31.62568718 55.71262721 34.35375977 55.26074219 C36.39238769 53.51076954 38.00492967 51.90695283 39.72875977 49.88574219 C40.44394775 49.07024902 40.44394775 49.07024902 41.17358398 48.23828125 C50.36229311 38.10074301 50.36229311 38.10074301 53.35375977 25.26074219 C53.03020508 24.62652344 52.70665039 23.99230469 52.37329102 23.33886719 C50.48658199 19.49316144 50.85841706 15.43483005 51.35375977 11.26074219 C52.84310292 7.43100266 54.15816012 5.84082251 57.85766602 4.04589844 C65.7180053 1.04078913 73.02570065 0.10416099 81.37329102 0.09277344 C82.66030159 0.08778084 82.66030159 0.08778084 83.97331238 0.08268738 C85.78282132 0.07764215 87.5923395 0.07527831 89.40185547 0.07543945 C92.14705007 0.07325746 94.89183948 0.05508847 97.63696289 0.03613281 C99.40323757 0.03319735 101.16951414 0.03121358 102.93579102 0.03027344 C103.74546829 0.02308792 104.55514557 0.0159024 105.38935852 0.00849915 C113.34744004 0.03985745 121.18155889 0.82332713 127.35375977 6.26074219 C129.57025624 10.05023616 130.35375977 12.49392489 130.35375977 16.88574219 C129.1601401 20.91420855 127.55791415 22.60363855 124.35375977 25.26074219 C120.56906347 27.15309034 115.6610852 26.85015809 111.44555664 27.07128906 C100.74104892 27.98932761 93.77622405 35.29532468 86.47875977 42.57324219 C85.73368164 43.28158203 84.98860352 43.98992187 84.22094727 44.71972656 C79.61497364 49.28842163 76.20223474 53.65646084 75.35375977 60.26074219 C77.6399423 67.88135063 83.65262257 73.62468776 88.82299805 79.51220703 C90.83451925 81.80989681 92.81765527 84.13117467 94.80078125 86.45336914 C96.30517864 88.21453673 97.81331077 89.97243824 99.32250977 91.72949219 C101.32463421 94.061015 103.3246752 96.39429242 105.32250977 98.72949219 C111.13966451 105.52765773 116.95727454 112.3260838 122.84960938 119.05932617 C125.05341401 121.57981338 127.22106815 124.08940515 129.27172852 126.73730469 C133.44478258 132.07469236 138.2381984 134.5879676 144.36547852 137.42480469 C147.9209618 139.60921925 149.41687092 141.5857383 151.35375977 145.26074219 C152.32630485 150.01620162 152.04966686 154.02357402 149.66625977 158.26074219 C142.71785862 164.27017021 132.71811411 163.41815398 124.01000977 163.42871094 C122.55721619 163.43370354 122.55721619 163.43370354 121.07507324 163.438797 C119.03792797 163.44383426 117.00077454 163.44620632 114.96362305 163.44604492 C111.86306107 163.44823562 108.76285292 163.46643709 105.66235352 163.48535156 C103.67407347 163.4882854 101.68579175 163.49027026 99.69750977 163.49121094 C98.77957642 163.49839645 97.86164307 163.50558197 96.91589355 163.51298523 C83.7968662 163.46683084 83.7968662 163.46683084 78.73657227 158.89746094 C77.99149414 157.92421875 77.24641602 156.95097656 76.47875977 155.94824219 C76.06368164 155.4191626 75.64860352 154.89008301 75.22094727 154.3449707 C73.9106319 152.66538912 72.63032692 150.96607256 71.35375977 149.26074219 C69.69093686 147.07030518 68.02239371 144.8842541 66.35375977 142.69824219 C65.94359619 142.15748047 65.53343262 141.61671875 65.11083984 141.05957031 C61.54191839 136.39709383 57.6694929 132.06439424 53.67016602 127.76464844 C51.58906813 125.51509744 49.5887713 123.21976673 47.60375977 120.88574219 C42.37661869 114.58766339 42.37661869 114.58766339 34.97875977 111.94824219 C34.11250977 112.05136719 33.24625977 112.15449219 32.35375977 112.26074219 C31.15416819 116.04185482 31.18594861 119.69009704 31.16625977 123.63574219 C31.15208008 124.92222656 31.13790039 126.20871094 31.12329102 127.53417969 C31.34820534 131.17093 31.93632319 133.91639895 33.35375977 137.26074219 C35.13604913 138.40284036 35.13604913 138.40284036 37.35375977 139.26074219 C40.58201467 141.57472941 43.05944229 143.37778975 44.35375977 147.26074219 C44.61777343 150.82492667 44.59771191 153.5614127 43.41625977 156.94824219 C36.91989067 164.23204997 25.2125083 165.07895471 16.02172852 165.70996094 C14.19541806 165.80040836 12.36851586 165.87949775 10.54125977 165.94824219 C9.5600415 165.98731689 8.57882324 166.0263916 7.56787109 166.06665039 C0.54610448 166.29706525 -6.43985988 166.24097217 -13.45874023 165.94824219 C-14.3344165 165.9136792 -15.21009277 165.87911621 -16.11230469 165.84350586 C-24.61814828 165.39865487 -32.896887 164.82895861 -39.64624023 159.26074219 C-42.47950487 155.01084523 -42.28692885 151.2501048 -41.64624023 146.26074219 C-39.69954031 142.89145386 -37.71989539 141.31485618 -34.58374023 139.01074219 C-29.72393807 135.07984085 -28.71076617 128.64044545 -27.91577148 122.68652344 C-27.74626748 120.98371731 -27.5951021 119.27902229 -27.45874023 117.57324219 C-27.37978516 116.61337402 -27.30083008 115.65350586 -27.21948242 114.66455078 C-25.74293046 93.89374737 -25.90106843 72.70978205 -27.45874023 51.94824219 C-27.52867188 50.97838379 -27.59860352 50.00852539 -27.6706543 49.00927734 C-28.2754544 42.2564794 -28.96055137 35.04217754 -33.83764648 29.99121094 C-34.62010742 29.48203125 -35.40256836 28.97285156 -36.20874023 28.44824219 C-39.40510266 26.32258244 -41.34598318 24.9368616 -42.64624023 21.26074219 C-43.28946186 16.66095961 -43.28912523 12.60495628 -41.27124023 8.38574219 C-29.95567605 -0.77447644 -13.78671654 -0.06936713 0 0 Z " fill="#FFFFFF" transform="translate(1147.646240234375,391.7392578125)"/>
<path d="M0 0 C3.08666475 -0.0556103 6.17333232 -0.09495503 9.26031494 -0.12788391 C11.19163124 -0.15315527 13.12265674 -0.19829981 15.05358887 -0.24436951 C30.48316474 -0.34634597 46.20380905 4.31998296 57.71520996 14.97071838 C66.54246643 24.54446589 67.77752334 34.88192149 67.55114746 47.30665588 C67.09759093 56.98877592 62.95846962 64.32301779 56.35192871 71.24415588 C53.23630495 74.03511684 49.90561216 76.20505339 46.21520996 78.15821838 C46.20138425 80.56702675 46.20138425 80.56702675 47.21520996 83.15821838 C50.15319918 84.98452655 50.15319918 84.98452655 53.77770996 86.40821838 C62.75971475 90.53800652 68.03130557 95.74435404 71.96520996 104.97071838 C74.29618423 111.5803602 75.6091117 118.36602887 76.7845459 125.26686096 C77.90914341 131.65040685 77.90914341 131.65040685 81.21520996 137.15821838 C83.57340834 138.62901674 83.57340834 138.62901674 86.21520996 139.65821838 C89.29486068 141.10587901 91.07519357 142.00620059 93.40270996 144.53321838 C94.54188386 148.21362636 94.25629039 150.44936935 93.21520996 154.15821838 C89.08936612 160.5345225 83.59188987 163.4629374 76.28942871 165.24806213 C70.15253479 166.54845422 64.02694427 166.48797193 57.77770996 166.47071838 C56.61433105 166.48683167 55.45095215 166.50294495 54.25231934 166.51954651 C43.22690325 166.52575102 33.67320825 164.59243662 25.21520996 157.15821838 C15.742284 146.6369807 12.67128941 132.96951269 9.5333252 119.55592346 C7.65652858 111.84710861 5.32313623 104.12487527 -0.53479004 98.53321838 C-4.74629977 96.75142581 -8.28019198 96.79785054 -12.78479004 97.15821838 C-16.96282329 108.12555566 -15.53534995 122.87054328 -12.78479004 134.15821838 C-11.0253764 136.47514254 -11.0253764 136.47514254 -8.78479004 138.15821838 C-8.16217285 138.69704651 -7.53955566 139.23587463 -6.89807129 139.79103088 C-5.69035939 140.79178131 -4.48201824 141.7917728 -3.27307129 142.79103088 C-0.7499715 145.10883909 -0.76198842 146.38623462 -0.40979004 149.90821838 C-0.48530895 153.6910292 -1.40177014 156.09408574 -4.10119629 158.90821838 C-17.83918527 169.10811739 -46.62893277 166.16095233 -62.78479004 164.15821838 C-71.69467833 162.78805846 -79.56808134 161.13306229 -85.78479004 154.15821838 C-87.62586189 150.47607468 -87.97539097 147.11866293 -86.78479004 143.15821838 C-84.20366872 140.53844466 -81.50309757 138.49210244 -78.48400879 136.39649963 C-73.84004054 132.54556793 -72.48211508 128.1113796 -71.82232666 122.20021057 C-71.71866791 121.03473694 -71.71866791 121.03473694 -71.61291504 119.84571838 C-71.53333557 118.9952594 -71.4537561 118.14480042 -71.37176514 117.26856995 C-70.34403779 104.72488581 -70.48442198 92.11439833 -70.52404785 79.53761292 C-70.53552635 75.86910663 -70.52879837 72.20089051 -70.51690292 68.53239441 C-70.50962038 65.6581764 -70.51199988 62.7840255 -70.51715851 59.9098053 C-70.51910104 57.91155299 -70.51313373 55.91329784 -70.50689697 53.91505432 C-70.17105542 40.41572903 -70.17105542 40.41572903 -74.90979004 28.28321838 C-75.85854004 27.58196838 -76.80729004 26.88071838 -77.78479004 26.15821838 C-78.46799316 25.63485901 -79.15119629 25.11149963 -79.85510254 24.57228088 C-81.26305356 23.49739354 -82.68175123 22.43637451 -84.11291504 21.39259338 C-85.78479004 20.15821838 -85.78479004 20.15821838 -86.78479004 19.15821838 C-87.34348329 14.72530803 -87.38206319 11.21493243 -85.15979004 7.28321838 C-79.67628778 2.37692689 -74.1383334 1.06116733 -66.99523926 0.95289612 C-65.82283188 0.93297607 -64.6504245 0.91305603 -63.44248962 0.89253235 C-62.17099564 0.87579468 -60.89950165 0.85905701 -59.58947754 0.84181213 C-58.2519525 0.82095504 -56.9144332 0.79972784 -55.57691956 0.77815247 C-51.2712962 0.71050502 -46.96556495 0.65274984 -42.65979004 0.59571838 C-41.18958466 0.57572004 -39.71937999 0.55566998 -38.24917603 0.53556824 C-32.41891232 0.45637409 -26.58863415 0.37889759 -20.758255 0.30865479 C-13.83840111 0.2252615 -6.9191489 0.13134578 0 0 Z M-14.78479004 30.15821838 C-16.23504663 34.80424999 -16.12870459 39.88614911 -16.34729004 44.72071838 C-16.38829834 45.60880188 -16.42930664 46.49688538 -16.47155762 47.41188049 C-17.8627578 59.30884053 -17.8627578 59.30884053 -14.78479004 70.15821838 C-9.78865911 71.07790418 -4.43277662 70.90839857 0.15270996 68.59571838 C5.08209392 64.67233115 7.22130881 60.40291808 8.21520996 54.15821838 C8.85070217 46.20234476 8.62019035 37.89681609 3.80895996 31.20118713 C0.46042663 27.82896135 -2.28732333 26.76898359 -7.03479004 26.59571838 C-10.72334619 26.68163196 -12.59921581 27.08897063 -14.78479004 30.15821838 Z " fill="#FFFFFF" transform="translate(1853.7847900390625,392.84178161621094)"/>
<path d="M0 0 C0.66352478 0.00021149 1.32704956 0.00042297 2.01068115 0.00064087 C12.43928958 0.03381895 21.56006717 0.79307974 31.375 4.375 C32.41785156 4.725625 33.46070313 5.07625 34.53515625 5.4375 C55.46829928 13.21652606 70.71769382 30.19438894 80.1875 49.9375 C88.88613327 70.2844761 90.93934416 93.41226135 82.62744141 114.24902344 C79.094148 122.5475996 74.43145754 129.70076173 68.375 136.375 C67.63636719 137.20644531 66.89773438 138.03789063 66.13671875 138.89453125 C49.53261286 156.58564898 25.2828957 165.38964387 1.31640625 166.40625 C-23.77826786 166.20728331 -46.72790402 158.87200129 -64.953125 141.10546875 C-80.83538291 124.38588091 -88.17957405 103.25665474 -87.97851562 80.43652344 C-87.34346699 58.01930652 -78.34780726 37.46249211 -62.09375 21.9609375 C-44.13534429 6.59065496 -23.48066223 -0.03094602 0 0 Z M-23.8125 41.6875 C-27.91078218 47.76426323 -29.18385068 52.85253739 -29.125 60.0625 C-29.12000488 60.88266602 -29.11500977 61.70283203 -29.10986328 62.54785156 C-28.55666161 82.65387094 -20.10643371 109.8023456 -6 124.625 C-0.40843987 129.5019437 4.30519483 130.96539366 11.69140625 130.71484375 C16.60220881 130.09295172 19.64963521 128.41323093 22.83984375 124.64453125 C29.89487032 114.39940572 28.97967349 102.63661943 26.94091797 90.86962891 C23.07439815 71.05324966 16.78071603 49.99872266 -0.25 37.5625 C-8.8531398 32.41365118 -17.22759312 34.72631272 -23.8125 41.6875 Z " fill="#FFFFFF" transform="translate(835.625,391.625)"/>
<path d="M0 0 C6.32876703 1.83126724 10.68014142 1.54878933 17.14990234 0.23461914 C21.78692125 -0.70727532 24.86678294 -0.08237958 28.96240234 2.28540039 C36.87096734 8.02548788 44.35578666 18.98046502 45.89990234 28.69165039 C46.88810066 42.13762751 46.88810066 42.13762751 44.14990234 46.37915039 C40.20216561 50.43654648 37.71489828 52.35616986 31.89990234 52.69165039 C25.35375761 51.60286656 22.09781708 49.70034746 17.52490234 45.00415039 C16.4014368 43.91263482 15.27380371 42.82539276 14.14208984 41.74243164 C13.59391602 41.2172998 13.04574219 40.69216797 12.48095703 40.15112305 C8.92639709 36.86990635 5.02888031 34.19131834 0.89990234 31.69165039 C0.18705078 31.25981445 -0.52580078 30.82797852 -1.26025391 30.38305664 C-7.9854383 26.85569132 -15.91094275 26.16822877 -23.22900391 28.31665039 C-25.55194913 29.57048107 -26.86040535 31.07266478 -27.81103516 33.52758789 C-28.55396867 37.18618499 -28.22288047 39.3785542 -26.85009766 42.87915039 C-21.17507618 48.68314963 -12.89985088 50.86269949 -5.29931641 53.26977539 C-4.60961761 53.48853836 -3.91991882 53.70730133 -3.20932007 53.93269348 C-0.36041849 54.83063623 2.48963796 55.72311142 5.34887695 56.58764648 C21.02355824 61.35499475 36.17896639 68.65874577 44.52099609 83.59399414 C50.58217541 96.38600148 50.92000018 111.52726811 46.16943359 124.85571289 C44.22284421 129.20409409 41.81261295 132.93578671 38.89990234 136.69165039 C38.17802734 137.70227539 37.45615234 138.71290039 36.71240234 139.75415039 C23.70106841 154.71304068 2.51812079 160.92494789 -16.53759766 162.37915039 C-36.39981602 163.58038779 -66.63271532 162.46555626 -82.91259766 149.44165039 C-92.26838772 137.68008574 -96.74131766 122.79315067 -96.35791016 107.73071289 C-95.91912729 104.26033933 -94.79062569 101.7596457 -93.10009766 98.69165039 C-90.09175996 96.68609193 -89.22301117 96.35501745 -85.78759766 96.25415039 C-84.67964844 96.19420898 -84.67964844 96.19420898 -83.54931641 96.13305664 C-76.16920877 97.81623909 -72.64133094 105.1508497 -68.91259766 111.06665039 C-63.86199147 118.74542629 -59.70695006 123.97444943 -51.10009766 127.69165039 C-50.41173828 128.04098633 -49.72337891 128.39032227 -49.01416016 128.75024414 C-43.99809493 130.91234122 -38.85864544 130.9887534 -33.47509766 131.06665039 C-32.75821777 131.08074951 -32.04133789 131.09484863 -31.30273438 131.109375 C-25.47644566 131.05628656 -20.60697028 129.88516394 -16.10009766 125.94165039 C-14.56394879 122.48531544 -15.07511335 120.27909547 -16.10009766 116.69165039 C-19.26724275 113.75705791 -22.36340502 111.92271799 -26.35009766 110.31665039 C-27.39939453 109.89383789 -28.44869141 109.47102539 -29.52978516 109.03540039 C-32.771253 107.81541687 -36.02642685 106.67506152 -39.30419922 105.55859375 C-51.63366438 101.34477857 -63.26216688 96.49595241 -73.10009766 87.69165039 C-74.23898437 86.69198242 -74.23898437 86.69198242 -75.40087891 85.67211914 C-85.72347489 76.04347919 -91.13118878 64.89629807 -92.05712891 50.86743164 C-92.24419056 37.04187465 -86.93635133 25.8257688 -77.44384766 15.93774414 C-56.37935593 -4.24906043 -27.37348411 -8.04560265 0 0 Z " fill="#FFFFFF" transform="translate(523.10009765625,395.308349609375)"/>
<path d="M0 0 C8.54702566 8.95161859 11.1327585 20.65879876 10.87890625 32.640625 C10.40219457 37.42240981 8.74097762 40.7251845 5.8125 44.5625 C2.97076907 46.67350012 1.16087298 47.04883831 -2.375 47.1875 C-6.82869864 46.40426334 -8.86993834 45.7614693 -11.89453125 42.32421875 C-12.67057339 41.18235657 -13.43456523 40.03222939 -14.1875 38.875 C-18.95391182 32.13272063 -23.82773088 28.26049936 -32.1315918 26.65429688 C-37.71538122 25.85066832 -43.30510077 25.96140408 -48.9375 25.9375 C-50.15630859 25.916875 -51.37511719 25.89625 -52.63085938 25.875 C-54.39333008 25.86726563 -54.39333008 25.86726563 -56.19140625 25.859375 C-57.25818604 25.8500293 -58.32496582 25.84068359 -59.42407227 25.83105469 C-62.87218216 26.2475551 -64.66723018 27.01986662 -67.375 29.1875 C-70.6488018 34.95912794 -69.70368949 41.88203293 -69.6875 48.3125 C-69.70361328 49.60027344 -69.71972656 50.88804687 -69.73632812 52.21484375 C-69.73729492 54.06142578 -69.73729492 54.06142578 -69.73828125 55.9453125 C-69.74126221 57.0708252 -69.74424316 58.19633789 -69.74731445 59.35595703 C-69.59335461 62.16777502 -69.59335461 62.16777502 -68.10302734 64.05932617 C-66.00573934 65.42857848 -64.85335534 65.53663583 -62.36328125 65.48046875 C-61.60595703 65.47080078 -60.84863281 65.46113281 -60.06835938 65.45117188 C-59.28267578 65.42603516 -58.49699219 65.40089844 -57.6875 65.375 C-56.89021484 65.36146484 -56.09292969 65.34792969 -55.27148438 65.33398438 C-53.30570033 65.29867089 -51.34026418 65.24486447 -49.375 65.1875 C-49.14425781 63.94613281 -48.91351562 62.70476562 -48.67578125 61.42578125 C-48.34735571 59.78365354 -48.01787269 58.14173708 -47.6875 56.5 C-47.53861328 55.68337891 -47.38972656 54.86675781 -47.23632812 54.02539062 C-46.14187804 48.72481866 -44.90417948 45.54915766 -40.375 42.1875 C-37.26437799 41.28201072 -34.52710347 41.48830614 -31.375 42.1875 C-25.14225786 46.52332062 -23.6236109 53.3666484 -22.1875 60.4375 C-19.77768493 76.59142984 -19.80569211 95.6872463 -27.9296875 110.28125 C-30.44691887 113.60127407 -32.27498299 114.33922062 -36.375 115.1875 C-39.96875 114.69140625 -39.96875 114.69140625 -43.375 113.1875 C-44.48531728 110.53716638 -45.05178104 108.64077465 -45.5 105.875 C-46.49449177 100.24136806 -47.84890626 96.9451448 -52.375 93.1875 C-55.13952033 91.80523984 -57.4211363 92.09224613 -60.5 92.125 C-61.59570312 92.13402344 -62.69140625 92.14304687 -63.8203125 92.15234375 C-65.08488281 92.16974609 -65.08488281 92.16974609 -66.375 92.1875 C-67.92590157 97.44045391 -67.55934447 102.81932516 -67.5625 108.25 C-67.57474609 109.33216797 -67.58699219 110.41433594 -67.59960938 111.52929688 C-67.8795934 122.10377663 -67.8795934 122.10377663 -65.375 132.1875 C-59.19463714 136.26555385 -52.95920614 135.66631044 -45.8125 135.625 C-44.61302734 135.64498047 -43.41355469 135.66496094 -42.17773438 135.68554688 C-31.59656548 135.67983658 -20.20107842 134.27085576 -12.28125 126.5859375 C-9.28449058 122.81542462 -6.86423369 118.71951894 -4.51855469 114.51831055 C-2.51060752 110.92802371 -0.68995385 107.74185258 2.625 105.1875 C7.32268245 104.1486629 11.44320322 104.52273931 15.625 106.875 C20.14817822 112.10492481 20.11427285 117.5824478 19.99609375 124.2421875 C18.77423826 137.23244055 12.97369889 151.44080479 4.69140625 161.546875 C2.22708898 163.50342179 0.73014519 163.7958148 -2.375 164.1875 C-4.81095886 163.85974121 -4.81095886 163.85974121 -7.59448242 163.27148438 C-17.41868866 161.63496151 -27.31177689 161.87384568 -37.246912 161.85197449 C-40.92579335 161.84360783 -44.60443557 161.82303546 -48.2832489 161.79943848 C-57.41027742 161.74334809 -66.53736386 161.70781316 -75.66448975 161.67181396 C-83.40233079 161.64052328 -91.14005308 161.60131765 -98.87779808 161.55155945 C-102.49385066 161.53156479 -106.1098102 161.52318946 -109.72590637 161.51525879 C-111.94788958 161.50228407 -114.16986969 161.48876342 -116.3918457 161.47460938 C-117.88899109 161.47608223 -117.88899109 161.47608223 -119.41638184 161.47758484 C-125.92947655 161.41993006 -132.20397562 161.16939024 -137.875 157.625 C-140.16599375 153.90213515 -140.13075855 150.43864184 -139.375 146.1875 C-137.70345348 143.68018022 -136.03146589 142.55866079 -133.43359375 141.08984375 C-132.73363281 140.68894531 -132.03367187 140.28804687 -131.3125 139.875 C-130.64089844 139.52824219 -129.96929688 139.18148437 -129.27734375 138.82421875 C-123.84125447 134.14717274 -123.49200207 125.97349134 -122.70703125 119.30078125 C-122.58068802 118.25150955 -122.45434479 117.20223785 -122.32417297 116.12117004 C-121.15243983 105.57400299 -120.95287421 95.08843337 -121.03881836 84.4855957 C-121.06262961 81.35797596 -121.05931283 78.23120476 -121.05273438 75.10351562 C-121.07484813 59.0590003 -121.20756136 42.54217482 -126.375 27.1875 C-126.705 26.1975 -127.035 25.2075 -127.375 24.1875 C-129.85780777 23.26645841 -132.35149647 22.72647531 -134.9296875 22.12890625 C-137.90036851 20.98524152 -138.8377257 19.94963479 -140.375 17.1875 C-141.19557048 13.42655196 -141.21369433 9.73635313 -139.35546875 6.3046875 C-137.22079702 3.63473555 -135.63505253 2.27418418 -132.375 1.1875 C-130.07655802 1.07403338 -127.77500507 1.02084148 -125.47387695 0.99804688 C-124.77381531 0.98975357 -124.07375366 0.98146027 -123.35247803 0.97291565 C-121.82694581 0.95550235 -120.30138665 0.94033903 -118.77581215 0.92713928 C-116.32615861 0.90592857 -113.87662746 0.8788946 -111.42704773 0.85046387 C-107.06472291 0.80081197 -102.70236268 0.75636582 -98.33996582 0.71356201 C-67.84403014 0.42101655 -67.84403014 0.42101655 -37.35546875 -0.28125 C-35.39991814 -0.33726379 -35.39991814 -0.33726379 -33.40486145 -0.39440918 C-2.60052929 -1.39658055 -2.60052929 -1.39658055 0 0 Z " fill="#FFFFFF" transform="translate(2287.375,393.8125)"/>
<path d="M0 0 C0.67160156 0.42410156 1.34320312 0.84820312 2.03515625 1.28515625 C30.70331342 21.11534589 45.42255888 67.09736036 59.66015625 97.875 C59.95078949 98.50315613 60.24142273 99.13131226 60.54086304 99.77850342 C61.89437956 102.70827611 63.24037232 105.64120434 64.57617188 108.57910156 C67.67997534 115.3580244 71.04675756 121.90241995 74.67749023 128.40917969 C76 131 76 131 76 133 C76.74765625 133.17015625 77.4953125 133.3403125 78.265625 133.515625 C79.74289062 133.87914062 79.74289062 133.87914062 81.25 134.25 C82.71179687 134.59804688 82.71179687 134.59804688 84.203125 134.953125 C87.39849812 136.14915851 88.92039939 137.30818052 91 140 C92.08922173 144.40494083 91.34395422 148.20740984 89.5625 152.3125 C81.87647959 160.37344823 69.2693657 161.23436958 58.6875 161.6875 C57.80940674 161.72584961 56.93131348 161.76419922 56.02661133 161.80371094 C7.31062387 163.49614012 7.31062387 163.49614012 -3 154 C-5.32241787 150.90344283 -5.43023459 147.65703771 -5.3046875 143.890625 C-5 142 -5 142 -3.5 139.75 C-1.28068494 138.19647946 0.73705224 137.17554001 3.1875 136.0625 C6.39313746 134.54315995 6.39313746 134.54315995 8.3125 131.5625 C8.18879439 128.77549457 8.18879439 128.77549457 5.9375 126.25 C0.5731022 122.14109955 -5.91269653 122.84050986 -12.4140625 122.83203125 C-13.75215469 122.82703865 -13.75215469 122.82703865 -15.11727905 122.82194519 C-16.99484748 122.81690144 -18.8724248 122.81453607 -20.75 122.81469727 C-23.62254459 122.81250188 -26.49471029 122.79429496 -29.3671875 122.77539062 C-31.19531119 122.77245796 -33.0234367 122.77047231 -34.8515625 122.76953125 C-35.70891998 122.76234573 -36.56627747 122.75516022 -37.44961548 122.74775696 C-38.25079803 122.75083359 -39.05198059 122.75391022 -39.87744141 122.75708008 C-40.57882233 122.75565506 -41.28020325 122.75423004 -42.00283813 122.75276184 C-44.37104685 123.04593365 -45.96168949 123.77487127 -48 125 C-50.32768284 128.25875597 -50.06392459 131.10059992 -50 135 C-49.14535156 135.40992188 -48.29070312 135.81984375 -47.41015625 136.2421875 C-46.30542969 136.78101563 -45.20070313 137.31984375 -44.0625 137.875 C-42.96035156 138.40867187 -41.85820313 138.94234375 -40.72265625 139.4921875 C-38 141 -38 141 -37 143 C-36.35466061 147.69253931 -36.24838206 150.95229015 -39.0625 154.875 C-50.81567727 163.37729845 -67.1107366 162.36858955 -81 161.6875 C-82.145896 161.63553467 -82.145896 161.63553467 -83.31494141 161.58251953 C-90.98689054 161.12750278 -99.16654902 160.40661311 -105 155 C-106.8517444 151.14837164 -107.14649345 147.95220743 -106.5 143.75 C-104.2875437 139.69383011 -101.25128775 137.99549844 -97.07421875 136.1484375 C-86.85140815 131.58291044 -82.51360259 122.8669153 -78 113.0625 C-77.45384033 111.90097412 -76.90768066 110.73944824 -76.3449707 109.54272461 C-74.85807841 106.37442524 -73.39069863 103.19746233 -71.92877197 100.01757812 C-70.98004325 97.9566478 -70.02647496 95.89801524 -69.07177734 93.83984375 C-51.70740368 58.83905764 -51.70740368 58.83905764 -44.37719727 20.99731445 C-44.12771913 13.53516605 -42.75466741 8.05764547 -37.71484375 2.57421875 C-28.04488714 -6.30275736 -10.87992762 -7.02707599 0 0 Z M-23 60 C-28.51386893 64.46407538 -30.4126931 70.04629638 -32.875 76.5625 C-33.29007813 77.60341797 -33.70515625 78.64433594 -34.1328125 79.71679688 C-36.75837706 85.74164564 -36.75837706 85.74164564 -36 92 C-31.0892335 93.42407967 -26.19992244 93.18419171 -21.125 93.1875 C-19.65353516 93.20586914 -19.65353516 93.20586914 -18.15234375 93.22460938 C-13.03312782 93.23497216 -8.78878018 93.05349387 -4 91 C-4.43618411 84.7088831 -6.63744378 80.29948381 -9.75 74.875 C-10.18054687 74.08996094 -10.61109375 73.30492187 -11.0546875 72.49609375 C-15.49358754 64.60061367 -15.49358754 64.60061367 -23 60 Z " fill="#FFFFFF" transform="translate(1673,396)"/>
<path d="M0 0 C5.58137517 2.48743543 9.86675057 2.07812225 15.8359375 1.3515625 C20.21757695 1.01089884 22.0656775 1.71891184 25.75 4.125 C36.13074947 13.42388476 38.62606219 26.57846024 40.03515625 39.80078125 C40.33365356 47.10747626 38.55062313 54.31123101 33.9375 60.0625 C29.62816782 64.5624169 25.07809806 66.56050456 18.828125 67.12109375 C12.91885031 67.13220141 8.76377075 65.61519096 4.25341797 61.70800781 C1.49190164 58.80029884 -0.2393826 55.32318653 -2.125 51.8125 C-9.05743532 39.58542693 -16.62945964 32.66518012 -30.25 28.125 C-39.23582859 27.36256606 -47.98080292 27.05148393 -55.25 33.125 C-63.21568472 42.82018621 -64.38819093 53.96586053 -63.25 66.125 C-61.19346701 80.52073092 -55.36132506 95.37751989 -44.25 105.125 C-35.40277419 111.62441831 -26.44375291 114.69572644 -15.5 114.5625 C-14.62891602 114.55565186 -13.75783203 114.54880371 -12.86035156 114.54174805 C-1.0606614 114.2505727 9.50251772 110.90392111 18.25 102.8125 C21.27855363 100.7682263 23.21727981 100.49006521 26.81640625 100.66015625 C30.11490061 101.45312762 31.71881062 103.53984988 33.75 106.125 C36.26973153 111.16446306 35.352735 118.55429894 34.1015625 123.890625 C31.80237671 130.13969408 28.12933426 135.15633538 23.75 140.125 C23.34394531 140.65609375 22.93789062 141.1871875 22.51953125 141.734375 C19.715999 143.9375924 16.39248645 144.55132707 13 145.4375 C7.14468381 147.0508205 1.53639495 148.89657611 -4.0625 151.25 C-26.1881841 160.40186933 -50.04396195 159.84153143 -72.25 151.125 C-83.64674809 146.2887136 -92.69482555 140.01770789 -101.25 131.125 C-101.98605469 130.39667969 -102.72210937 129.66835938 -103.48046875 128.91796875 C-117.85140268 113.93550572 -124.66166069 93.14080457 -124.55053711 72.67138672 C-123.99685956 50.2313074 -114.16406208 31.27800679 -98.39794922 15.73388672 C-71.84226702 -9.29164958 -32.79146885 -15.20331737 0 0 Z " fill="#FFFFFF" transform="translate(1057.25,399.875)"/>
<path d="M0 0 C10.99677741 10.4852994 18.53014913 21.98097533 18.96142578 37.52832031 C18.97415527 38.24084961 18.98688477 38.95337891 19 39.6875 C19.01788574 40.3690918 19.03577148 41.05068359 19.05419922 41.75292969 C19.04429209 47.56416758 17.53948907 51.54214829 13.625 55.8125 C8.35041311 58.95480708 2.50295858 60.24139896 -3.5625 58.9375 C-10.61763613 56.35061675 -14.23216116 52.904226 -17.9375 46.625 C-21.70445335 40.28717486 -21.70445335 40.28717486 -26.3125 34.5625 C-29.98049815 34.14478196 -29.98049815 34.14478196 -33.3125 34.5625 C-35.83982823 39.69388064 -36.7465265 43.84233031 -36.68481445 49.58984375 C-36.68846512 50.35990753 -36.69211578 51.12997131 -36.69587708 51.92337036 C-36.70393146 54.44914342 -36.69041548 56.97426451 -36.67578125 59.5 C-36.67526203 61.2668457 -36.67578213 63.03369198 -36.67729187 64.80053711 C-36.67720238 68.4956937 -36.66681952 72.1906311 -36.64868164 75.88574219 C-36.62599541 80.60997202 -36.6254529 85.33388193 -36.63219929 90.05815125 C-36.635549 93.70425229 -36.62889031 97.35028109 -36.61907005 100.99636841 C-36.61523505 102.73779929 -36.61406275 104.47923823 -36.6156559 106.22067261 C-36.61602891 108.65898814 -36.60334096 111.09690146 -36.5871582 113.53515625 C-36.58963562 114.24705109 -36.59211304 114.95894592 -36.59466553 115.69241333 C-36.53681448 121.18485006 -36.01105546 126.40850769 -32.53515625 130.81640625 C-29.24081228 133.40440582 -25.6235058 135.07450667 -21.87109375 136.90234375 C-18.92510608 138.81386247 -17.79765871 140.40653774 -16.3125 143.5625 C-15.78687644 147.6923994 -16.03537426 149.97360781 -17.8125 153.75 C-25.56761724 162.47450689 -38.57325153 163.43528306 -49.62329102 164.17407227 C-96.16098553 166.62661179 -96.16098553 166.62661179 -113.3125 156.5625 C-116.56381482 153.23188482 -118.18750684 150.88742748 -118.625 146.25 C-118.2519436 141.8479345 -117.38543486 140.66054054 -114.3125 137.5625 C-111.02094003 136.23108249 -107.7285241 135.30655208 -104.30859375 134.359375 C-100.48623591 132.066957 -99.95487686 130.27463055 -98.82543945 126.08691406 C-97.97938419 121.92308186 -97.50684337 117.79710182 -97.1875 113.5625 C-97.10967285 112.60956055 -97.0318457 111.65662109 -96.95166016 110.67480469 C-95.66181248 94.0446931 -95.2214155 77.3992895 -95.13726807 60.72399902 C-95.12916261 59.21331912 -95.11810893 57.70265183 -95.10394287 56.1920166 C-95.08600295 54.0627912 -95.08204709 51.9339799 -95.08203125 49.8046875 C-95.07792236 48.5760498 -95.07381348 47.34741211 -95.06958008 46.08154297 C-95.46309919 39.8635966 -95.46309919 39.8635966 -98.3125 34.5625 C-101.0984186 33.89237578 -101.0984186 33.89237578 -104.3125 34.5625 C-106.71440389 36.57883511 -108.46662845 39.04119675 -110.3125 41.5625 C-122.57535797 58.05792833 -122.57535797 58.05792833 -132.0078125 59.54296875 C-136.15896006 59.57814797 -139.6790433 58.54306157 -143.3125 56.5625 C-148.4422921 51.3044631 -148.61533503 46.93761795 -148.62939453 39.93676758 C-148.51371641 33.51806003 -147.14030487 28.34902663 -144.3125 22.5625 C-143.85359375 21.61503906 -143.3946875 20.66757812 -142.921875 19.69140625 C-140.02274248 14.06861501 -136.94034523 8.91878463 -132.3125 4.5625 C-131.77496094 4.05589844 -131.23742188 3.54929687 -130.68359375 3.02734375 C-122.8364279 -3.05717577 -111.9661076 -0.64361477 -102.68359375 0.07421875 C-90.94275408 0.86860929 -79.16626645 0.74972512 -67.40454102 0.74780273 C-64.71990236 0.74772135 -62.03543392 0.75469719 -59.35083008 0.76831055 C-39.45461244 0.89907396 -39.45461244 0.89907396 -19.67626953 -0.9699707 C-13.02550641 -1.89435823 -6.26090098 -2.71699477 0 0 Z " fill="#FFFFFF" transform="translate(2457.3125,393.4375)"/>
<path d="M0 0 C10.99677741 10.4852994 18.53014913 21.98097533 18.96142578 37.52832031 C18.97415527 38.24084961 18.98688477 38.95337891 19 39.6875 C19.01788574 40.3690918 19.03577148 41.05068359 19.05419922 41.75292969 C19.04429209 47.56416758 17.53948907 51.54214829 13.625 55.8125 C8.35041311 58.95480708 2.50295858 60.24139896 -3.5625 58.9375 C-10.61763613 56.35061675 -14.23216116 52.904226 -17.9375 46.625 C-21.70445335 40.28717486 -21.70445335 40.28717486 -26.3125 34.5625 C-29.98049815 34.14478196 -29.98049815 34.14478196 -33.3125 34.5625 C-35.83982823 39.69388064 -36.7465265 43.84233031 -36.68481445 49.58984375 C-36.68846512 50.35990753 -36.69211578 51.12997131 -36.69587708 51.92337036 C-36.70393146 54.44914342 -36.69041548 56.97426451 -36.67578125 59.5 C-36.67526203 61.2668457 -36.67578213 63.03369198 -36.67729187 64.80053711 C-36.67720238 68.4956937 -36.66681952 72.1906311 -36.64868164 75.88574219 C-36.62599541 80.60997202 -36.6254529 85.33388193 -36.63219929 90.05815125 C-36.635549 93.70425229 -36.62889031 97.35028109 -36.61907005 100.99636841 C-36.61523505 102.73779929 -36.61406275 104.47923823 -36.6156559 106.22067261 C-36.61602891 108.65898814 -36.60334096 111.09690146 -36.5871582 113.53515625 C-36.58963562 114.24705109 -36.59211304 114.95894592 -36.59466553 115.69241333 C-36.53681448 121.18485006 -36.01105546 126.40850769 -32.53515625 130.81640625 C-29.24081228 133.40440582 -25.6235058 135.07450667 -21.87109375 136.90234375 C-18.92510608 138.81386247 -17.79765871 140.40653774 -16.3125 143.5625 C-15.78687644 147.6923994 -16.03537426 149.97360781 -17.8125 153.75 C-25.56761724 162.47450689 -38.57325153 163.43528306 -49.62329102 164.17407227 C-96.16098553 166.62661179 -96.16098553 166.62661179 -113.3125 156.5625 C-116.56381482 153.23188482 -118.18750684 150.88742748 -118.625 146.25 C-118.2519436 141.8479345 -117.38543486 140.66054054 -114.3125 137.5625 C-111.02094003 136.23108249 -107.7285241 135.30655208 -104.30859375 134.359375 C-100.48623591 132.066957 -99.95487686 130.27463055 -98.82543945 126.08691406 C-97.97938419 121.92308186 -97.50684337 117.79710182 -97.1875 113.5625 C-97.10967285 112.60956055 -97.0318457 111.65662109 -96.95166016 110.67480469 C-95.66181248 94.0446931 -95.2214155 77.3992895 -95.13726807 60.72399902 C-95.12916261 59.21331912 -95.11810893 57.70265183 -95.10394287 56.1920166 C-95.08600295 54.0627912 -95.08204709 51.9339799 -95.08203125 49.8046875 C-95.07792236 48.5760498 -95.07381348 47.34741211 -95.06958008 46.08154297 C-95.46309919 39.8635966 -95.46309919 39.8635966 -98.3125 34.5625 C-101.0984186 33.89237578 -101.0984186 33.89237578 -104.3125 34.5625 C-106.71440389 36.57883511 -108.46662845 39.04119675 -110.3125 41.5625 C-122.57535797 58.05792833 -122.57535797 58.05792833 -132.0078125 59.54296875 C-136.15896006 59.57814797 -139.6790433 58.54306157 -143.3125 56.5625 C-148.4422921 51.3044631 -148.61533503 46.93761795 -148.62939453 39.93676758 C-148.51371641 33.51806003 -147.14030487 28.34902663 -144.3125 22.5625 C-143.85359375 21.61503906 -143.3946875 20.66757812 -142.921875 19.69140625 C-140.02274248 14.06861501 -136.94034523 8.91878463 -132.3125 4.5625 C-131.77496094 4.05589844 -131.23742187 3.54929687 -130.68359375 3.02734375 C-122.8364279 -3.05717577 -111.9661076 -0.64361477 -102.68359375 0.07421875 C-90.94275408 0.86860929 -79.16626645 0.74972512 -67.40454102 0.74780273 C-64.71990236 0.74772135 -62.03543392 0.75469719 -59.35083008 0.76831055 C-39.45461244 0.89907396 -39.45461244 0.89907396 -19.67626953 -0.9699707 C-13.02550641 -1.89435823 -6.26090098 -2.71699477 0 0 Z " fill="#FFFFFF" transform="translate(726.3125,393.4375)"/>
<path d="M0 0 C1.43472656 0.74056641 1.43472656 0.74056641 2.8984375 1.49609375 C22.51059258 12.2287298 36.0868759 28.91225321 44.8125 49.375 C45.09037354 50.00929932 45.36824707 50.64359863 45.65454102 51.29711914 C50.49348355 63.21413765 51.53768524 75.70920353 51.4375 88.4375 C51.43293793 89.45106567 51.43293793 89.45106567 51.42828369 90.48510742 C51.35922286 100.88290679 50.62131554 110.19785886 47 120 C46.77505859 120.63244629 46.55011719 121.26489258 46.31835938 121.91650391 C37.70558279 145.94567603 22.48514206 165.80322288 -0.62109375 177.3046875 C-3.05266681 178.33481205 -5.48905787 179.18327903 -8 180 C-9.47919922 180.55494141 -9.47919922 180.55494141 -10.98828125 181.12109375 C-29.87263461 187.53422903 -49.31491847 184.44552873 -67 176 C-88.66890919 164.78968951 -102.33375148 146.24810685 -111 124 C-111.33902344 123.2265625 -111.67804688 122.453125 -112.02734375 121.65625 C-121.44127013 95.94753538 -118.33544069 67.4367038 -107 43 C-97.94703196 23.70424527 -81.96459082 6.13191805 -61.85253906 -1.85253906 C-57.2957398 -3.47720779 -52.68893112 -4.8145366 -48 -6 C-47.22011719 -6.20238281 -46.44023437 -6.40476563 -45.63671875 -6.61328125 C-30.07851241 -8.89515151 -13.92493201 -7.35471761 0 0 Z M-82 30 C-82.59167969 30.59425781 -83.18335938 31.18851562 -83.79296875 31.80078125 C-99.45553795 48.72307452 -105.01118194 71.50388288 -104.34375 93.97265625 C-103.13186798 116.4487395 -92.94946273 137.16957795 -76.75 152.7109375 C-61.52244068 165.38615023 -44.60786385 170.22686075 -25 169 C-8.6241042 167.44655534 7.43095315 158.62628225 18 146 C35.72197254 124.30035025 39.38742038 101.18389847 38 74 C36.07350454 55.22631931 24.44784663 34.94544182 10 23 C2.59658693 17.53336438 -5.18340473 12.79409341 -14 10 C-15.04027344 9.64421875 -16.08054687 9.2884375 -17.15234375 8.921875 C-41.99638988 2.96939288 -64.84434501 12.36409339 -82 30 Z " fill="#F8C328" transform="translate(359,244)"/>
<path d="M0 0 C0 79.86 0 159.72 0 242 C-8.58 242 -17.16 242 -26 242 C-26 167.09 -26 92.18 -26 15 C-21.05 12.36 -16.1 9.72 -11 7 C-7.25890416 4.19914217 -7.25890416 4.19914217 -3.63671875 1.25 C-2 0 -2 0 0 0 Z " fill="#FA816D" transform="translate(385,421)"/>
<path d="M0 0 C17.46540447 13.30308845 29.28123856 32.37459982 32.4453125 54.22265625 C33.32839232 69.17776522 33.54634349 84.00311561 28.4453125 98.22265625 C28.07148438 99.29128906 27.69765625 100.35992187 27.3125 101.4609375 C20.25302027 119.85766116 6.69591944 135.89652821 -11.42626953 144.06640625 C-27.31891019 150.66257358 -46.23127306 151.80802426 -62.47802734 145.47265625 C-82.84414643 136.57888476 -96.15935626 119.36678962 -104.39135742 99.16992188 C-112.43746674 78.25850985 -111.74364984 54.50213427 -103.22875977 33.80444336 C-95.93526491 17.38812651 -84.25821351 4.02724457 -68.5546875 -4.77734375 C-67.89082031 -5.17566406 -67.22695313 -5.57398438 -66.54296875 -5.984375 C-45.68864571 -17.65754953 -18.78458966 -13.06878945 0 0 Z M-79.5546875 21.22265625 C-93.17442929 37.71827977 -98.50568889 57.16229298 -96.5546875 78.22265625 C-94.34545417 94.68451291 -85.36784267 112.16275117 -72.515625 122.71875 C-59.8519846 132.18066144 -47.29176783 136.39803984 -31.5546875 135.22265625 C-18.24443784 132.45219704 -8.11841685 126.7540757 1.4453125 117.22265625 C2.0846875 116.60648437 2.7240625 115.9903125 3.3828125 115.35546875 C15.36635431 102.89044535 20.16816646 85.04813053 19.9453125 68.22265625 C19.96078125 67.05476563 19.97625 65.886875 19.9921875 64.68359375 C19.91727576 47.79099535 13.36802389 32.586058 1.6875 20.43359375 C0.94757813 19.70398438 0.20765625 18.974375 -0.5546875 18.22265625 C-1.19148438 17.57554687 -1.82828125 16.9284375 -2.484375 16.26171875 C-12.01838515 7.20243109 -24.93089442 2.22083605 -37.9921875 1.84765625 C-54.32148015 2.32963065 -68.4462046 9.28986897 -79.5546875 21.22265625 Z " fill="#050401" transform="translate(364.5546875,263.77734375)"/>
<path d="M0 0 C0 73.26 0 146.52 0 222 C-8.58 222 -17.16 222 -26 222 C-26.25491936 196.65226038 -26.45108236 171.30483077 -26.56993389 145.95606613 C-26.62659223 134.18543541 -26.70380053 122.41561703 -26.82983398 110.64550781 C-26.93966611 100.3835066 -27.01048552 90.12209382 -27.03497344 79.85952115 C-27.04928276 74.42799333 -27.08277347 68.9981485 -27.16303062 63.56716156 C-27.2380601 58.44814355 -27.2606568 53.33149077 -27.24418449 48.2119751 C-27.24719482 46.33986778 -27.26886637 44.46767612 -27.31126022 42.59604645 C-27.64668964 27.01451709 -27.64668964 27.01451709 -22.2216261 20.69742131 C-19.92712992 18.33967419 -17.45690811 16.18626035 -15 14 C-13.25116974 12.03349098 -11.63461206 10.00334654 -10 7.9375 C-3.65932452 0 -3.65932452 0 0 0 Z " fill="#FC816D" transform="translate(346,441)"/>
<path d="M0 0 C0.33 0 0.66 0 1 0 C1 59.4 1 118.8 1 180 C-7.58 180 -16.16 180 -25 180 C-25 124.23 -25 68.46 -25 11 C-17.08 10.505 -17.08 10.505 -9 10 C-5.23501634 6.49467038 -2.81060527 4.02245065 0 0 Z " fill="#FC816D" transform="translate(306,483)"/>
<path d="M0 0 C8.58 0 17.16 0 26 0 C26 55.77 26 111.54 26 169 C17.42 169 8.84 169 0 169 C0 113.23 0 57.46 0 0 Z " fill="#FB816D" transform="translate(242,494)"/>
<path d="M0 0 C4.62 0 9.24 0 14 0 C14 9.57 14 19.14 14 29 C18.29 29 22.58 29 27 29 C27 58.37 27 87.74 27 118 C22.71 118 18.42 118 14 118 C14 127.9 14 137.8 14 148 C9.38 148 4.76 148 0 148 C0 138.1 0 128.2 0 118 C-4.29 118 -8.58 118 -13 118 C-13 88.63 -13 59.26 -13 29 C-8.71 29 -4.42 29 0 29 C0 19.43 0 9.86 0 0 Z " fill="#000000" transform="translate(61,347)"/>
<path d="M0 0 C4.95 0 9.9 0 15 0 C15 9.24 15 18.48 15 28 C18.96 28.33 22.92 28.66 27 29 C27 53.75 27 78.5 27 104 C23.04 104 19.08 104 15 104 C15 113.57 15 123.14 15 133 C10.05 133 5.1 133 0 133 C0 123.43 0 113.86 0 104 C-3.96 104 -7.92 104 -12 104 C-13 103 -13 103 -13.12025452 100.07041931 C-13.11803391 98.75803787 -13.11581329 97.44565643 -13.11352539 96.09350586 C-13.11367142 95.37159561 -13.11381744 94.64968536 -13.1139679 93.90589905 C-13.11326869 91.50885053 -13.10547595 89.11187877 -13.09765625 86.71484375 C-13.0957921 85.05717511 -13.09436818 83.39950593 -13.09336853 81.74183655 C-13.08954312 77.37045786 -13.07971265 72.99911219 -13.06866455 68.62774658 C-13.05845092 64.17045539 -13.05387101 59.71315889 -13.04882812 55.25585938 C-13.0380904 46.50389107 -13.02101371 37.75194964 -13 29 C-6.565 28.505 -6.565 28.505 0 28 C0 18.76 0 9.52 0 0 Z " fill="#000000" transform="translate(112,325)"/>
<path d="M0 0 C0.33 0 0.66 0 1 0 C1 50.49 1 100.98 1 153 C-7.25 153 -15.5 153 -24 153 C-24.54804065 138.36731472 -24.98731758 123.74127518 -25.24349213 109.10052109 C-25.36576198 102.29772425 -25.5319984 95.50194775 -25.81054688 88.70361328 C-27.17235699 54.28245927 -26.14353115 28.7845286 -2.29284668 2.34063721 C-1.53620728 1.56822693 -0.77956787 0.79581665 0 0 Z " fill="#FE836F" transform="translate(228,510)"/>
<path d="M0 0 C4.62 0 9.24 0 14 0 C14 9.57 14 19.14 14 29 C18.29 29 22.58 29 27 29 C27 48.8 27 68.6 27 89 C22.71 89 18.42 89 14 89 C14 98.57 14 108.14 14 118 C9.38 118 4.76 118 0 118 C0 108.43 0 98.86 0 89 C-4.29 89 -8.58 89 -13 89 C-13 69.2 -13 49.4 -13 29 C-8.71 29 -4.42 29 0 29 C0 19.43 0 9.86 0 0 Z " fill="#000000" transform="translate(164,288)"/>
<path d="M0 0 C4.29 0 8.58 0 13 0 C13 4.95 13 9.9 13 15 C19.27 15 25.54 15 32 15 C32 22.26 32 29.52 32 37 C27.71 37 23.42 37 19 37 C19 34.36 19 31.72 19 29 C15.56153253 29.08081582 12.12484688 29.19366152 8.6875 29.3125 C7.71103516 29.33505859 6.73457031 29.35761719 5.72851562 29.38085938 C4.32182617 29.4340332 4.32182617 29.4340332 2.88671875 29.48828125 C1.59060669 29.52755737 1.59060669 29.52755737 0.26831055 29.56762695 C-2.43323651 30.08258119 -3.34686363 30.83892041 -5 33 C-5.5154245 35.79881044 -5.22876238 38.11759395 -5 41 C-3.23973259 43.16970114 -3.23973259 43.16970114 -1.07983398 43.23950195 C-0.30969971 43.23909912 0.46043457 43.23869629 1.25390625 43.23828125 C2.52983643 43.25652954 2.52983643 43.25652954 3.83154297 43.27514648 C4.73275879 43.28747314 5.63397461 43.2997998 6.5625 43.3125 C20.79292577 43.81686634 20.79292577 43.81686634 26 49 C31.34095304 55.03808796 32.91989761 60.81331487 32.5234375 68.80859375 C31.48789537 75.12230954 29.00776309 80.04120675 24.4375 84.5 C23.633125 84.995 22.82875 85.49 22 86 C21.34 86.4125 20.68 86.825 20 87.25 C18 88 18 88 13 88 C13 92.95 13 97.9 13 103 C8.71 103 4.42 103 0 103 C0 98.05 0 93.1 0 88 C-6.6 88 -13.2 88 -20 88 C-20 80.74 -20 73.48 -20 66 C-15.38 66 -10.76 66 -6 66 C-6 68.31 -6 70.62 -6 73 C-2.37407004 72.91939409 1.25014402 72.80653183 4.875 72.6875 C5.90753906 72.66494141 6.94007813 72.64238281 8.00390625 72.61914062 C8.99003906 72.58369141 9.97617187 72.54824219 10.9921875 72.51171875 C11.90339355 72.48553467 12.81459961 72.45935059 13.75341797 72.43237305 C14.86547607 72.21834839 14.86547607 72.21834839 16 72 C18.45331002 68.32003497 18.39507893 66.34586828 18 62 C14.86583441 59.91055628 14.20125878 59.76544073 10.6484375 59.796875 C-6.77479163 59.6511155 -6.77479163 59.6511155 -12.3671875 54.83984375 C-18.57496459 47.84495617 -19.82324528 41.93880639 -19.484375 32.53515625 C-18.59056687 26.01179849 -15.66000293 22.29066594 -10.8125 18.0625 C-6.30815502 14.75931368 -6.24988031 15 0 15 C0 10.05 0 5.1 0 0 Z " fill="#060502" transform="translate(320,281)"/>
<path d="M0 0 C8.58 0 17.16 0 26 0 C26 36.3 26 72.6 26 110 C17.42 110 8.84 110 0 110 C0 73.7 0 37.4 0 0 Z " fill="#FB816D" transform="translate(165,553)"/>
<path d="M0 0 C8.58 0 17.16 0 26 0 C26 36.3 26 72.6 26 110 C17.42 110 8.84 110 0 110 C0 73.7 0 37.4 0 0 Z " fill="#FC816D" transform="translate(126,553)"/>
<path d="M0 0 C0.33 0 0.66 0 1 0 C1 32.01 1 64.02 1 97 C-7.58 97 -16.16 97 -25 97 C-25.25018117 88.76676518 -25.45123693 80.53656354 -25.56993389 72.30052757 C-25.62695197 68.47461311 -25.70404279 64.65146854 -25.82983398 60.82714844 C-26.7733033 31.37446245 -26.7733033 31.37446245 -19.796875 23.35546875 C-17.9392959 21.44733808 -16.02131858 19.74483343 -14 18 C-12.92020336 16.68639321 -11.87011598 15.34651912 -10.87890625 13.96484375 C-2.31827446 2.77683424 -2.31827446 2.77683424 0 0 Z " fill="#FC816D" transform="translate(112,566)"/>
<path d="M0 0 C0.33 0 0.66 0 1 0 C1 15.18 1 30.36 1 46 C-10.88 46 -22.76 46 -35 46 C-28.25203252 35.87804878 -28.25203252 35.87804878 -24.5 31.0625 C-24.08983643 30.53454834 -23.67967285 30.00659668 -23.25708008 29.46264648 C-22.34796038 28.29311142 -21.43749956 27.12461794 -20.52587891 25.95703125 C-18.81823438 23.76687468 -17.11784994 21.57118699 -15.41796875 19.375 C-14.17463932 17.7707092 -12.93115078 16.1665417 -11.6875 14.5625 C-11.10097656 13.80525635 -10.51445313 13.0480127 -9.91015625 12.26782227 C-6.68142768 8.11350642 -3.4541728 3.9700966 0 0 Z " fill="#FC816D" transform="translate(73,617)"/>
<path d="M0 0 C4.29 0 8.58 0 13 0 C13 19.47 13 38.94 13 59 C8.71 59 4.42 59 0 59 C0 39.53 0 20.06 0 0 Z " fill="#B3DC7E" transform="translate(61,391)"/>
<path d="M0 0 C4.29 0 8.58 0 13 0 C13 14.52 13 29.04 13 44 C8.71 44 4.42 44 0 44 C0 29.48 0 14.96 0 0 Z " fill="#B2DB7E" transform="translate(113,369)"/>
<path d="M0 0 C4.29 0 8.58 0 13 0 C13 9.9 13 19.8 13 30 C8.71 30 4.42 30 0 30 C0 20.1 0 10.2 0 0 Z " fill="#B4DD7F" transform="translate(165,332)"/>
<path d="M0 0 C4.29 0 8.58 0 13 0 C13 19.47 13 38.94 13 59 C12.67 59 12.34 59 12 59 C12 40.19 12 21.38 12 2 C8.7 2 5.4 2 2 2 C2 20.81 2 39.62 2 59 C1.34 59 0.68 59 0 59 C0 39.53 0 20.06 0 0 Z " fill="#ADD57A" transform="translate(61,391)"/>
<path d="M0 0 C4.29 0 8.58 0 13 0 C13 9.9 13 19.8 13 30 C8.71 30 4.42 30 0 30 C0 20.1 0 10.2 0 0 Z M1 2 C1 10.58 1 19.16 1 28 C4.3 28 7.6 28 11 28 C11 19.42 11 10.84 11 2 C7.7 2 4.4 2 1 2 Z " fill="#A8CE76" transform="translate(165,332)"/>
<path d="M0 0 C2.64 0 5.28 0 8 0 C8 0.66 8 1.32 8 2 C13.61 2.33 19.22 2.66 25 3 C25 3.33 25 3.66 25 4 C16.11487651 4.35021655 8.44237574 3.89452883 0 1 C0 0.67 0 0.34 0 0 Z " fill="#A38C49" transform="translate(308,395)"/>
<path d="M0 0 C0.33 1.32 0.66 2.64 1 4 C-1.97 6.475 -1.97 6.475 -5 9 C-3.7508258 5.54074837 -2.32472205 2.85306797 0 0 Z " fill="#ED7D6A" transform="translate(227,512)"/>
</svg>
