<?xml version="1.0" encoding="UTF-8"?>
<svg version="1.1" xmlns="http://www.w3.org/2000/svg" width="2500" height="1000">
<path d="M0 0 C1.19794189 -0.00315216 2.39588379 -0.00630432 3.63012695 -0.009552 C4.93425537 -0.00752777 6.23838379 -0.00550354 7.58203125 -0.00341797 C8.9234214 -0.00409107 10.26481144 -0.00506115 11.60620117 -0.00631714 C14.42074746 -0.00779382 17.23526207 -0.00564051 20.04980469 -0.00097656 C23.66493756 0.00472073 27.2799962 0.00144156 30.89512634 -0.00454903 C33.66598067 -0.00815544 36.43681727 -0.00701569 39.20767212 -0.00442123 C41.19142708 -0.0034258 43.17518272 -0.00647288 45.15893555 -0.009552 C46.95584839 -0.00482376 46.95584839 -0.00482376 48.7890625 0 C49.84971924 0.00079559 50.91037598 0.00159119 52.00317383 0.00241089 C54.39453125 0.12939453 54.39453125 0.12939453 55.39453125 1.12939453 C57.38738461 1.57900169 59.38952856 1.98750764 61.39453125 2.37939453 C80.75801767 6.44867543 98.54497111 12.98818581 115.59228516 23.06738281 C117.26063269 24.05049197 118.94230409 25.01089514 120.625 25.96923828 C125.76293974 28.93315557 125.76293974 28.93315557 127.39453125 30.12939453 C127.39453125 30.78939453 127.39453125 31.44939453 127.39453125 32.12939453 C128.15765625 32.41814453 128.92078125 32.70689453 129.70703125 33.00439453 C132.39453125 34.12939453 132.39453125 34.12939453 135.39453125 36.12939453 C135.39453125 36.78939453 135.39453125 37.44939453 135.39453125 38.12939453 C135.97332031 38.38978516 136.55210937 38.65017578 137.1484375 38.91845703 C139.54648567 40.21131778 141.31671822 41.67664528 143.33203125 43.50439453 C145.50123884 45.45347958 147.62901065 47.30668383 149.95703125 49.06689453 C153.50969273 52.07299271 156.39346761 55.58389015 159.39453125 59.12939453 C160.45688402 60.35868845 161.51937507 61.58786289 162.58203125 62.81689453 C171.12779669 72.8469245 178.12249408 83.55346694 184.39453125 95.12939453 C184.73661621 95.75620117 185.07870117 96.38300781 185.43115234 97.02880859 C192.79413113 110.65984791 197.75908134 125.07774523 201.39453125 140.12939453 C201.89895752 142.02202026 201.89895752 142.02202026 202.41357422 143.95288086 C203.77633105 150.14111123 203.71894289 156.29359077 203.73046875 162.60595703 C203.73712555 163.8894101 203.74378235 165.17286316 203.75064087 166.49520874 C203.76255088 169.20322024 203.76632849 171.91110483 203.76513672 174.61914062 C203.76497458 177.36550346 203.77880472 180.11119641 203.80615234 182.85742188 C204.08385923 211.14331328 204.08385923 211.14331328 199.39453125 224.12939453 C198.71362044 226.56295389 198.0455767 229.00017577 197.39453125 231.44189453 C193.36155349 245.31781035 186.87015547 258.24692018 180.39453125 271.12939453 C179.73453125 271.12939453 179.07453125 271.12939453 178.39453125 271.12939453 C178.11609375 271.87189453 177.83765625 272.61439453 177.55078125 273.37939453 C174.66205612 280.24987591 169.71240084 286.11983016 165.20703125 292.00439453 C164.7790625 292.56384766 164.35109375 293.12330078 163.91015625 293.69970703 C160.60194833 297.97237682 160.60194833 297.97237682 158.7767331 299.35409099 C156.6364583 302.10306535 156.97966105 305.01363753 157.00977039 308.35456371 C157.00462017 309.099493 156.99946994 309.84442228 156.99416364 310.61192517 C156.98046552 313.12688074 156.98824779 315.64132064 156.99580383 318.15629578 C156.99037458 319.96528546 156.98363049 321.7742716 156.97567749 323.58325195 C156.95755688 328.57973207 156.95824857 333.57606442 156.9618143 338.57256971 C156.96240191 344.03377232 156.94563334 349.49492596 156.93102551 354.95610523 C156.90525952 365.56744225 156.89493778 376.17873891 156.88994293 386.79010381 C156.88350637 399.05871419 156.85797706 411.32723539 156.83239746 423.5958252 C156.77430691 456.00282319 156.74227451 488.40986364 156.70703125 520.81689453 C156.60390625 593.19001953 156.50078125 665.56314453 156.39453125 740.12939453 C-72.29546875 740.12939453 -300.98546875 740.12939453 -536.60546875 740.12939453 C-536.60546875 709.12939453 -536.60546875 709.12939453 -527.60546875 699.12939453 C-526.94546875 698.13939453 -526.28546875 697.14939453 -525.60546875 696.12939453 C-524.94546875 696.12939453 -524.28546875 696.12939453 -523.60546875 696.12939453 C-523.37214844 695.57638672 -523.13882813 695.02337891 -522.8984375 694.45361328 C-521.2691134 691.52476784 -519.21602285 689.38071765 -516.91796875 686.94189453 C-513.07071179 682.78973969 -509.5321369 678.54234892 -506.109375 674.03955078 C-504.13055005 671.5261861 -501.8937088 669.36315268 -499.60546875 667.12939453 C-494.98311666 662.17169533 -490.54139253 657.0985103 -486.29296875 651.81689453 C-482.40226167 647.00273865 -478.27546409 642.4801512 -474.04760742 637.96606445 C-470.93022149 634.6187521 -467.96987708 631.19952665 -465.10546875 627.62939453 C-461.28488385 622.86750611 -457.21479072 618.41503859 -453.04467773 613.96313477 C-449.94766791 610.63784653 -447.00925191 607.24219514 -444.16796875 603.69189453 C-440.14100131 598.67097505 -435.81332172 594.00517636 -431.40478516 589.32324219 C-427.36900642 585.01377135 -423.61928672 580.54021111 -419.93359375 575.92626953 C-416.70105814 572.04288783 -413.25629248 568.37058701 -409.76538086 564.71899414 C-407.42843307 562.24455586 -405.45683495 559.90573335 -403.5625 557.05517578 C-401.50884344 553.98493873 -399.26484563 551.68463919 -396.60546875 549.12939453 C-389.25002284 541.50865245 -389.25002284 541.50865245 -382.73046875 533.19189453 C-380.60546875 530.12939453 -380.60546875 530.12939453 -378.24165344 527.85960388 C-375.48652797 525.21022548 -375.48652797 525.21022548 -373.62199402 521.83485413 C-370.30758521 516.58549833 -366.75507935 512.85587171 -360.5423317 511.42286301 C-351.65827537 510.42093751 -342.72848527 510.7429196 -333.80926538 511.00452304 C-329.86212488 511.10312121 -325.91478393 511.11725566 -321.96659851 511.13771057 C-312.79924127 511.19802605 -303.63468338 511.35030988 -294.46878052 511.51976013 C-282.79138836 511.73553727 -271.11528238 511.93355977 -259.43593377 511.99877506 C-254.74755145 512.02855247 -250.06519348 512.11707716 -245.37871325 512.25212276 C-242.45881271 512.32431399 -239.54003683 512.3463199 -236.61932373 512.3552742 C-234.63432999 512.37644422 -232.65026059 512.45786977 -230.66691589 512.54148865 C-225.24057477 512.51376019 -221.95583496 512.40076276 -217.9023037 508.58436775 C-215.58859894 505.52462591 -213.59109372 502.40901216 -211.60546875 499.12939453 C-210.12601108 497.11415137 -208.62846999 495.11193513 -207.10546875 493.12939453 C-206.36296875 492.13939453 -205.62046875 491.14939453 -204.85546875 490.12939453 C-193.60546875 475.12939453 -182.35546875 460.12939453 -171.10546875 445.12939453 C-170.36554688 444.14197266 -169.625625 443.15455078 -168.86328125 442.13720703 C-167.34056014 440.10866853 -165.814439 438.0826784 -164.28515625 436.05908203 C-163.52460938 435.05103516 -162.7640625 434.04298828 -161.98046875 433.00439453 C-161.30757813 432.11494141 -160.6346875 431.22548828 -159.94140625 430.30908203 C-157.57232198 427.38137784 -157.57232198 427.38137784 -156.64686584 424.60418701 C-155.03148198 421.12513873 -153.74210363 419.38731752 -150.60546875 417.12939453 C-144.2750797 415.88703612 -137.55864557 416.97429173 -131.19965935 417.59087944 C-125.37798256 418.12953246 -119.54291821 418.42351544 -113.70556641 418.73852539 C-112.4830955 418.80666852 -111.2606246 418.87481165 -110.00110912 418.94501972 C-61.11176817 422.53296834 -61.11176817 422.53296834 -18.76752663 401.7828064 C-14.11250379 397.47677222 -9.86063431 392.87397862 -5.73046875 388.06689453 C-5.15452595 387.3974456 -4.57858315 386.72799667 -3.98518753 386.03826141 C3.03770891 377.7818545 9.46285478 369.20064418 15.39453125 360.12939453 C11.91679967 359.61906785 8.4371635 359.12306185 4.95703125 358.62939453 C3.98314453 358.48630859 3.00925781 358.34322266 2.00585938 358.19580078 C-3.92259427 357.36304141 -9.61820632 356.77123327 -15.60546875 357.12939453 C-17.95489521 359.31612315 -17.95489521 359.31612315 -19.60546875 362.12939453 C-21.27213542 363.46272786 -22.93880208 364.7960612 -24.60546875 366.12939453 C-25.26546875 366.95439453 -25.92546875 367.77939453 -26.60546875 368.62939453 C-28.7086651 371.25838997 -30.98446418 373.03259088 -33.60546875 375.12939453 C-34.26546875 375.95439453 -34.92546875 376.77939453 -35.60546875 377.62939453 C-37.70288802 380.25116862 -39.9798393 382.05652918 -42.60546875 384.12939453 C-43.26546875 385.11939453 -43.92546875 386.10939453 -44.60546875 387.12939453 C-45.26546875 387.12939453 -45.92546875 387.12939453 -46.60546875 387.12939453 C-46.93546875 388.11939453 -47.26546875 389.10939453 -47.60546875 390.12939453 C-48.26546875 390.12939453 -48.92546875 390.12939453 -49.60546875 390.12939453 C-49.93546875 391.11939453 -50.26546875 392.10939453 -50.60546875 393.12939453 C-51.26546875 393.12939453 -51.92546875 393.12939453 -52.60546875 393.12939453 C-52.60546875 393.78939453 -52.60546875 394.44939453 -52.60546875 395.12939453 C-84.61546875 395.12939453 -116.62546875 395.12939453 -149.60546875 395.12939453 C-150.26546875 396.44939453 -150.92546875 397.76939453 -151.60546875 399.12939453 C-152.58466983 400.37170504 -153.60978365 401.57863331 -154.66796875 402.75439453 C-155.59802734 403.79660156 -155.59802734 403.79660156 -156.546875 404.85986328 C-157.96870045 406.42737862 -159.39336162 407.99232482 -160.8203125 409.55517578 C-165.20817782 414.37807732 -169.34289533 419.24814764 -173.1953125 424.51220703 C-173.66066406 425.04587891 -174.12601562 425.57955078 -174.60546875 426.12939453 C-175.26546875 426.12939453 -175.92546875 426.12939453 -176.60546875 426.12939453 C-176.83878906 426.68240234 -177.07210938 427.23541016 -177.3125 427.80517578 C-178.9418241 430.73402122 -180.99491465 432.87807142 -183.29296875 435.31689453 C-187.14022571 439.46904937 -190.6788006 443.71644014 -194.1015625 448.21923828 C-196.08038745 450.73260296 -198.3172287 452.89563638 -200.60546875 455.12939453 C-205.72345465 460.60602718 -210.52048689 466.22664433 -215.06640625 472.18408203 C-217.06156761 474.70588497 -219.30512372 476.88381962 -221.60546875 479.12939453 C-223.9937696 481.74339391 -226.35572248 484.37967851 -228.71484375 487.02001953 C-230.60546875 489.12939453 -230.60546875 489.12939453 -231.60546875 490.12939453 C-233.4392984 490.20966054 -235.2762766 490.21845079 -237.11177063 490.20013428 C-238.30744156 490.19113602 -239.50311249 490.18213776 -240.73501587 490.17286682 C-241.71027411 490.16205173 -241.71027411 490.16205173 -242.70523453 490.15101814 C-245.51268174 490.11994747 -248.32018108 490.09983037 -251.12771833 490.07876348 C-252.64101155 490.06723158 -254.15430022 490.05508994 -255.66758406 490.04238749 C-261.23714783 489.99627527 -266.8065306 489.97092443 -272.37626648 489.95831299 C-273.18426534 489.95647845 -273.99226419 489.95464391 -274.82474786 489.95275378 C-278.1610688 489.94565473 -281.4973905 489.93934915 -284.83371413 489.93365622 C-294.30027802 489.91686508 -303.7656339 489.87931495 -313.23168945 489.77636719 C-320.74688074 489.69476572 -328.26069737 489.659527 -335.7763316 489.67788148 C-339.75180128 489.68588958 -343.72415022 489.67116245 -347.69906044 489.60027313 C-366.10128884 488.36978913 -366.10128884 488.36978913 -381.91292095 495.67663193 C-384.14630061 498.35093412 -385.85388474 501.11370514 -387.60546875 504.12939453 C-388.87047179 505.56628249 -390.16728547 506.97741701 -391.5234375 508.32861328 C-392.34328125 509.20356445 -392.34328125 509.20356445 -393.1796875 510.09619141 C-393.71207031 510.66402344 -394.24445313 511.23185547 -394.79296875 511.81689453 C-398.60206042 515.88796521 -402.38977001 519.97249965 -406.10546875 524.12939453 C-409.8211818 528.28630542 -413.60938734 532.37033353 -417.41796875 536.44189453 C-418.01343506 537.07861084 -418.60890137 537.71532715 -419.22241211 538.37133789 C-420.11585327 539.32665405 -420.11585327 539.32665405 -421.02734375 540.30126953 C-424.41539179 543.92424181 -427.79684769 547.55316518 -431.16796875 551.19189453 C-431.88206909 551.9591687 -431.88206909 551.9591687 -432.6105957 552.74194336 C-434.94192531 555.26219892 -437.17517529 557.82239773 -439.3203125 560.50048828 C-440.45146484 561.80179688 -440.45146484 561.80179688 -441.60546875 563.12939453 C-442.26546875 563.12939453 -442.92546875 563.12939453 -443.60546875 563.12939453 C-443.87029053 563.71640137 -444.1351123 564.3034082 -444.40795898 564.90820312 C-445.6455945 567.20382145 -446.96652852 568.78895834 -448.765625 570.66845703 C-449.39033691 571.32668457 -450.01504883 571.98491211 -450.65869141 572.66308594 C-451.32175293 573.35321777 -451.98481445 574.04334961 -452.66796875 574.75439453 C-454.03196108 576.19121983 -455.3952443 577.62871863 -456.7578125 579.06689453 C-457.41894043 579.76298828 -458.08006836 580.45908203 -458.76123047 581.17626953 C-463.52369537 586.21991783 -468.19791052 591.34498487 -472.54296875 596.75439453 C-473.22359375 597.53814453 -473.90421875 598.32189453 -474.60546875 599.12939453 C-475.26546875 599.12939453 -475.92546875 599.12939453 -476.60546875 599.12939453 C-476.93546875 600.11939453 -477.26546875 601.10939453 -477.60546875 602.12939453 C-478.26546875 602.12939453 -478.92546875 602.12939453 -479.60546875 602.12939453 C-479.87319092 602.71930176 -480.14091309 603.30920898 -480.41674805 603.91699219 C-481.61945619 606.15542744 -482.87518172 607.69609391 -484.625 609.52783203 C-485.22916748 610.16551514 -485.83333496 610.80319824 -486.45581055 611.46020508 C-487.10332275 612.1347876 -487.75083496 612.80937012 -488.41796875 613.50439453 C-489.7750236 614.93511478 -491.13178877 616.36610984 -492.48828125 617.79736328 C-493.17438477 618.51843262 -493.86048828 619.23950195 -494.56738281 619.98242188 C-497.66209681 623.24247398 -500.7305337 626.52654287 -503.79296875 629.81689453 C-504.32059814 630.38005371 -504.84822754 630.94321289 -505.3918457 631.5234375 C-507.64447991 633.94216287 -509.73746101 636.3062788 -511.71875 638.96142578 C-513.78722764 641.33824792 -514.53971627 641.81607419 -517.60546875 642.12939453 C-519.83004421 640.25119592 -521.71253392 638.44507944 -523.66796875 636.31689453 C-527.8236244 631.87414983 -527.8236244 631.87414983 -532.60546875 628.12939453 C-532.60546875 627.46939453 -532.60546875 626.80939453 -532.60546875 626.12939453 C-533.26546875 626.12939453 -533.92546875 626.12939453 -534.60546875 626.12939453 C-534.02892465 622.72926267 -532.99549214 621.20268968 -530.48046875 618.87939453 C-527.89888265 616.41348031 -525.48760992 613.90614132 -523.16796875 611.19189453 C-520.74929096 608.38363106 -518.24647192 605.7296886 -515.60546875 603.12939453 C-511.09784389 598.68303836 -506.68460655 594.08042883 -503.03125 588.89501953 C-502.32548828 588.02103516 -502.32548828 588.02103516 -501.60546875 587.12939453 C-500.94546875 587.12939453 -500.28546875 587.12939453 -499.60546875 587.12939453 C-499.34121094 586.53642578 -499.07695312 585.94345703 -498.8046875 585.33251953 C-497.5617645 583.04910399 -496.30145229 581.6551273 -494.41796875 579.87939453 C-489.86590783 575.4592774 -485.76627393 570.69343313 -481.6796875 565.84423828 C-481.05707031 565.11333984 -480.43445313 564.38244141 -479.79296875 563.62939453 C-479.22964844 562.95908203 -478.66632813 562.28876953 -478.0859375 561.59814453 C-476.60546875 560.12939453 -476.60546875 560.12939453 -474.60546875 560.12939453 C-474.35796875 559.57251953 -474.11046875 559.01564453 -473.85546875 558.44189453 C-471.51223958 554.10692057 -468.25980985 550.41830153 -464.60546875 547.12939453 C-463.94546875 547.12939453 -463.28546875 547.12939453 -462.60546875 547.12939453 C-462.3429834 546.54472412 -462.08049805 545.96005371 -461.81005859 545.35766602 C-460.54348342 543.01473297 -459.17198381 541.39601815 -457.33203125 539.47705078 C-456.67750977 538.78901367 -456.02298828 538.10097656 -455.34863281 537.39208984 C-454.64963867 536.66602539 -453.95064453 535.93996094 -453.23046875 535.19189453 C-451.77947827 533.66760187 -450.32896222 532.14285747 -448.87890625 530.61767578 C-447.79754395 529.48386475 -447.79754395 529.48386475 -446.69433594 528.32714844 C-443.72298364 525.20090798 -440.7832471 522.04641313 -437.85546875 518.87939453 C-437.37932129 518.36771729 -436.90317383 517.85604004 -436.41259766 517.32885742 C-434.29810803 515.04089272 -432.30503731 512.73947288 -430.40234375 510.27001953 C-429.51289063 509.21041016 -429.51289063 509.21041016 -428.60546875 508.12939453 C-427.94546875 508.12939453 -427.28546875 508.12939453 -426.60546875 508.12939453 C-426.3429834 507.54472412 -426.08049805 506.96005371 -425.81005859 506.35766602 C-424.54348342 504.01473297 -423.17198381 502.39601815 -421.33203125 500.47705078 C-420.35024902 499.44499512 -420.35024902 499.44499512 -419.34863281 498.39208984 C-418.64963867 497.66602539 -417.95064453 496.93996094 -417.23046875 496.19189453 C-415.77947827 494.66760187 -414.32896222 493.14285747 -412.87890625 491.61767578 C-411.79754395 490.48386475 -411.79754395 490.48386475 -410.69433594 489.32714844 C-407.72298364 486.20090798 -404.7832471 483.04641313 -401.85546875 479.87939453 C-401.37932129 479.36771729 -400.90317383 478.85604004 -400.41259766 478.32885742 C-398.36695705 476.11539018 -396.40545974 473.87825539 -394.52734375 471.52001953 C-389.5232556 465.29542207 -389.5232556 465.29542207 -385.87554932 464.63555241 C-384.82252625 464.63835933 -383.76950317 464.64116625 -382.68457031 464.64405823 C-380.86753601 464.63402771 -380.86753601 464.63402771 -379.01379395 464.62379456 C-377.67455739 464.63648125 -376.33532402 464.64950842 -374.99609375 464.6628418 C-373.58329083 464.66229298 -372.17048761 464.65991782 -370.75769043 464.65585327 C-367.71719218 464.6506776 -364.6770545 464.65774637 -361.63659668 464.67410469 C-356.82956353 464.69920706 -352.02288698 464.69294392 -347.21582031 464.68162537 C-335.27714108 464.6584175 -323.33856464 464.67686818 -311.39990234 464.703125 C-302.11980257 464.72306082 -292.83998701 464.73167027 -283.55988693 464.70618862 C-278.78047174 464.69436109 -274.00186543 464.70605245 -269.22253418 464.73544133 C-266.25042571 464.74868744 -263.27863172 464.74128514 -260.30653381 464.72816086 C-258.92784534 464.72630274 -257.54911466 464.7330344 -256.17051697 464.74896431 C-254.28924442 464.76951689 -252.40769406 464.75647931 -250.52636719 464.74171448 C-249.47334412 464.74414437 -248.42032104 464.74657427 -247.33538818 464.7490778 C-243.67635885 463.91848946 -242.73062939 462.11044246 -240.60546875 459.12939453 C-239.94546875 459.12939453 -239.28546875 459.12939453 -238.60546875 459.12939453 C-238.36957031 458.57380859 -238.13367188 458.01822266 -237.890625 457.44580078 C-236.29269355 454.56563862 -234.30046375 452.46570377 -232.04296875 450.06689453 C-228.57155056 446.33343497 -225.24630595 442.53722796 -222.04296875 438.56689453 C-218.40608573 434.06408699 -214.61830174 429.74124392 -210.72265625 425.46142578 C-208.82495706 423.37115564 -206.9581346 421.25953338 -205.10546875 419.12939453 C-202.46857239 416.10184686 -199.79530306 413.11002174 -197.10546875 410.12939453 C-192.29532074 404.79376817 -187.54566638 399.41352573 -182.890625 393.94189453 C-176.95938306 386.9771933 -170.93400133 380.1419015 -164.6875 373.45751953 C-162.58983435 371.31719303 -162.58983435 371.31719303 -161.60546875 369.12939453 C-159.85258293 369.18055168 -159.85258293 369.18055168 -158.06428528 369.23274231 C-146.96052771 369.54267418 -135.8596273 369.7381101 -124.75183582 369.82629871 C-119.04250904 369.87517854 -113.33941894 369.96198909 -107.63256836 370.14086914 C-79.78091153 372.29743367 -79.78091153 372.29743367 -55.19576168 361.92989254 C-50.63146901 357.54611674 -46.85430792 352.55426852 -43.60546875 347.12939453 C-45.2996445 346.22059137 -46.99383295 345.31181188 -48.68811035 344.40319824 C-50.04189652 343.67711596 -51.39550307 342.95069875 -52.74902344 342.22412109 C-56.37231787 340.28884685 -60.01231358 338.44016617 -63.73046875 336.69189453 C-70.12966538 333.52408031 -75.84170252 329.30799964 -81.60546875 325.12939453 C-82.18280762 324.71512207 -82.76014648 324.30084961 -83.35498047 323.87402344 C-90.81259044 318.50963136 -90.81259044 318.50963136 -93.60546875 316.12939453 C-93.60546875 315.46939453 -93.60546875 314.80939453 -93.60546875 314.12939453 C-94.19392578 313.86400879 -94.78238281 313.59862305 -95.38867188 313.32519531 C-99.2271268 311.25462789 -102.0448408 308.07188812 -105.10546875 305.00439453 C-105.8123584 304.29661865 -106.51924805 303.58884277 -107.24755859 302.85961914 C-113.65568724 296.3089751 -119.18491467 289.29482703 -124.43652344 281.79785156 C-125.40503551 280.41547656 -126.39684605 279.04945826 -127.39453125 277.68798828 C-131.93806234 271.28573993 -135.22921083 264.16004154 -138.6340332 257.11010742 C-139.2833108 255.78625994 -139.9486919 254.47019336 -140.62963867 253.16235352 C-143.13255863 248.33924758 -145.00582792 243.48633053 -146.66796875 238.31689453 C-146.92545898 237.52500732 -147.18294922 236.73312012 -147.44824219 235.91723633 C-148.17692399 233.65753774 -148.8936121 231.39444101 -149.60546875 229.12939453 C-149.92902344 228.11103516 -150.25257813 227.09267578 -150.5859375 226.04345703 C-152.50481924 219.55627307 -153.39293949 213.01911876 -154.17578125 206.31689453 C-154.50636423 203.11561937 -154.50636423 203.11561937 -155.60546875 200.12939453 C-155.71513078 197.17478626 -155.76953988 194.24456123 -155.7734375 191.28955078 C-155.7767659 190.41221786 -155.7800943 189.53488495 -155.78352356 188.63096619 C-155.78858968 186.76903812 -155.79093198 184.90710097 -155.79077148 183.04516602 C-155.79293641 180.23389045 -155.81103504 177.4230214 -155.83007812 174.61181641 C-155.8596617 165.25028006 -155.64336008 156.31368149 -153.60546875 147.12939453 C-153.37085938 145.89447266 -153.13625 144.65955078 -152.89453125 143.38720703 C-147.56344099 118.23700474 -137.60362756 96.52981597 -123.60546875 75.12939453 C-122.52458984 73.47423828 -122.52458984 73.47423828 -121.421875 71.78564453 C-119.65682589 69.20449744 -117.84291027 67.30290915 -115.60546875 65.12939453 C-112.35670832 61.52311501 -109.19082042 57.86483637 -106.16796875 54.06689453 C-102.93947705 50.36594063 -99.34666359 47.29665607 -95.60546875 44.12939453 C-94.94546875 43.54287109 -94.28546875 42.95634766 -93.60546875 42.35205078 C-92.98671875 41.80419922 -92.36796875 41.25634766 -91.73046875 40.69189453 C-91.17617188 40.19818359 -90.621875 39.70447266 -90.05078125 39.19580078 C-88.60546875 38.12939453 -88.60546875 38.12939453 -86.60546875 38.12939453 C-86.60546875 37.46939453 -86.60546875 36.80939453 -86.60546875 36.12939453 C-81.19370404 32.12939453 -81.19370404 32.12939453 -78.60546875 32.12939453 C-78.60546875 31.46939453 -78.60546875 30.80939453 -78.60546875 30.12939453 C-77.0234375 28.91186523 -77.0234375 28.91186523 -74.79296875 27.55517578 C-73.9728833 27.0558252 -73.15279785 26.55647461 -72.30786133 26.04199219 C-71.41607178 25.51395996 -70.52428223 24.98592773 -69.60546875 24.44189453 C-68.69498779 23.90097168 -67.78450684 23.36004883 -66.84643555 22.80273438 C-48.55309888 12.11948975 -27.66520886 3.93735988 -6.60546875 1.12939453 C-4.85028769 -0.62578653 -2.3819716 0.0017867 0 0 Z " fill="#030101" transform="translate(548.60546875,107.87060546875)"/>
<path d="M0 0 C1.5768457 -0.02416992 1.5768457 -0.02416992 3.18554688 -0.04882812 C23.33718723 -0.06121389 40.56017355 9.21355444 54.62890625 23.1640625 C110.59135265 80.99352775 116.33820749 179.0161134 115.83984375 261.5252533 C114.57640723 326.59627197 107.16742966 391.47729021 78.0703125 450.5390625 C77.65990723 451.37405273 77.24950195 452.20904297 76.82666016 453.06933594 C75.87145132 454.95027438 74.83533286 456.78982255 73.78125 458.6171875 C72.03034632 462.93191443 73.54507835 465.55074753 75.23828125 469.6796875 C77.90889223 474.53141741 81.45398728 477.56799576 86.6875 479.3125 C94.70875744 479.81808229 102.11528161 479.76760063 109.734375 476.96875 C111.6875 476.3125 111.6875 476.3125 114.6875 476.3125 C114.6875 513.6025 114.6875 550.8925 114.6875 589.3125 C93.63949216 592.82050131 93.63949216 592.82050131 84.25 592.75 C83.27869141 592.76998047 82.30738281 592.78996094 81.30664062 592.81054688 C67.97769037 592.80165498 58.12967675 587.10070691 48.46484375 578.28515625 C32.66923382 561.9417217 24.58790435 530.1250086 24.5546875 508.046875 C24.62042969 506.69335938 24.62042969 506.69335938 24.6875 505.3125 C23.48867187 505.72822266 23.48867187 505.72822266 22.265625 506.15234375 C3.89992961 512.20957427 -14.54392611 511.16642379 -32.140625 503 C-54.59367513 491.45988485 -68.9649868 471.12018636 -80.3125 449.3125 C-80.64991211 448.66506836 -80.98732422 448.01763672 -81.33496094 447.35058594 C-99.24160402 412.42826445 -107.48251688 373.13318164 -112.5 334.5 C-112.65500977 333.32969238 -112.81001953 332.15938477 -112.96972656 330.95361328 C-115.91552197 306.8962841 -116.69667231 282.72585148 -116.63055801 258.51120758 C-116.62488474 256.39449487 -116.62208473 254.27779029 -116.61947632 252.16107178 C-116.48457914 176.68355603 -109.41098842 84.49791516 -57.3125 25.3125 C-56.714375 24.61898438 -56.11625 23.92546875 -55.5 23.2109375 C-40.95930984 7.47941496 -21.10247511 -0.06398567 0 0 Z M-17 124.0625 C-47.24411604 175.93956015 -38.82977926 264.84084102 -33.3125 322.3125 C-33.21066406 323.40014648 -33.10882812 324.48779297 -33.00390625 325.60839844 C-29.48235744 362.86189141 -29.48235744 362.86189141 -10.5625 393.875 C-5.75777647 396.94468448 -0.83785617 396.89456042 4.6875 396.3125 C12.82520091 393.00224878 17.88004642 386.69113306 21.375 378.75 C33.78244813 346.16519359 33.82077882 308.75928906 33.890625 274.30859375 C33.89345238 273.34242693 33.89627975 272.37626011 33.89919281 271.38081551 C33.91404904 266.25818756 33.9233614 261.13558674 33.92773438 256.01293945 C33.93209648 251.86441139 33.94592013 247.71609394 33.96875 243.56762695 C34.07737161 223.40393494 34.1508101 203.30379145 32.3203125 183.20703125 C32.25916512 182.53247831 32.19801773 181.85792538 32.1350174 181.16293144 C28.98785468 146.13287647 28.98785468 146.13287647 11.8125 116.5234375 C7.55074091 113.44740977 3.43521069 112.46026315 -1.796875 112.78125 C-8.62596894 114.22341891 -13.07781819 118.48027195 -17 124.0625 Z " fill="#FFFFFF" transform="translate(1868.3125,258.6875)"/>
<path d="M0 0 C157.71171171 0 157.71171171 0 178 20 C178.61230469 20.54011719 179.22460938 21.08023437 179.85546875 21.63671875 C206.75375455 46.07291889 213.84279192 91.72013367 215.74023438 126.0871582 C217.9162894 173.59235944 216.0293716 230.88120857 182.47558594 268.21386719 C179.7135408 271.20623508 176.87921647 274.12078353 174 277 C174.42029929 284.13884 175.91707254 291.07855865 177.35400391 298.07226562 C177.59366536 299.25482563 177.83332682 300.43738564 178.08025074 301.65578079 C178.73750482 304.89473059 179.39828717 308.13292198 180.0606811 311.37082195 C180.76586718 314.82217982 181.46651964 318.27445817 182.16773987 321.72662354 C183.51714706 328.36618357 184.87078436 335.00487411 186.225923 341.64326644 C187.77823592 349.24848889 189.32591447 356.85465223 190.87352788 364.46083212 C198.0703692 399.82838143 205.28822251 435.19179012 212.58887196 470.53807449 C213.01976163 472.62427311 213.45033689 474.7105364 213.88084412 476.79681396 C214.38711874 479.24903411 214.89426011 481.70107556 215.40248108 484.15289307 C215.61666183 485.19008484 215.83084259 486.22727661 216.05151367 487.29589844 C216.23654953 488.18935974 216.42158539 489.08282104 216.61222839 490.00335693 C217 492 217 492 217 493 C189.28 493 161.56 493 133 493 C129.6247784 478.37403974 129.6247784 478.37403974 128.4243927 472.01647949 C128.29115575 471.3146959 128.1579188 470.6129123 128.02064437 469.88986254 C127.58524748 467.59305365 127.15355162 465.29556678 126.72192383 462.99804688 C126.40642736 461.32934611 126.09071158 459.66068681 125.77479553 457.99206543 C124.92534605 453.50138518 124.07926748 449.01007641 123.23408723 444.51859093 C122.52662726 440.76040308 121.81762724 437.00250638 121.10867995 433.24459887 C119.43721431 424.38424026 117.76864402 415.52333973 116.10180664 406.66210938 C114.38329449 397.52649578 112.65943166 388.39190295 110.93304807 379.25777388 C109.44778652 371.39823895 107.96602858 363.53804892 106.48704356 355.67733049 C105.60495804 350.98936247 104.72149719 346.30166413 103.83457375 341.61460876 C103.00233703 337.2158144 102.17446728 332.81622048 101.34996605 328.41596985 C101.04677994 326.80197717 100.74204121 325.18827525 100.43563843 323.57489014 C100.01776956 321.37324299 99.60551513 319.1706158 99.19465637 316.96765137 C98.96257382 315.73550652 98.73049128 314.50336166 98.49137592 313.23387909 C98 310 98 310 98 305 C90.41 305 82.82 305 75 305 C75 367.04 75 429.08 75 493 C50.25 493 25.5 493 0 493 C0 330.31 0 167.62 0 0 Z M75 106 C75 136.69 75 167.38 75 199 C101.14173735 201.19833689 101.14173735 201.19833689 124.84375 191.2421875 C136.52958042 178.61554869 137.6988436 162.63470164 137.2890625 146.109375 C136.69973183 132.82714935 133.76928232 120.95852593 125.07421875 110.7265625 C111.83081484 99.70286282 88.3004501 106 75 106 Z " fill="#FFFFFF" transform="translate(2227,267)"/>
<path d="M0 0 C1.02086209 0.97869331 2.02283085 1.97767889 3 3 C5.03096988 3.96518649 7.09813575 4.85624756 9.1875 5.6875 C10.27417969 6.12449219 11.36085938 6.56148437 12.48046875 7.01171875 C13.72763672 7.50091797 13.72763672 7.50091797 15 8 C15 8.66 15 9.32 15 10 C15.721875 10.103125 16.44375 10.20625 17.1875 10.3125 C20.27793421 11.06793947 22.41743841 12.15531315 25 14 C25 14.66 25 15.32 25 16 C25.56589844 16.26941406 26.13179687 16.53882813 26.71484375 16.81640625 C34.84427117 21.02703276 41.19155556 26.90610012 47.45703125 33.44921875 C49.91019175 36.01114493 49.91019175 36.01114493 52.546875 38.0078125 C59.5546588 43.69884712 65.58981804 52.13085179 70 60 C70 60.66 70 61.32 70 62 C70.66 62 71.32 62 72 62 C73.14767634 64.29535269 74.29371499 66.59138237 75.43359375 68.890625 C76.52617789 71.05944539 77.64557842 73.21487405 78.78515625 75.359375 C82.20377946 81.89177604 84.82986305 88.03722951 86.390625 95.2890625 C86.93273796 97.70077018 87.63310454 99.87872741 88.5 102.1875 C90.0044017 106.52651122 90.82618116 110.9264362 91.625 115.4375 C91.74810547 116.12932373 91.87121094 116.82114746 91.99804688 117.53393555 C93.66900284 127.39926879 94.19315489 137.12361917 94.1875 147.125 C94.18814453 148.30682861 94.18878906 149.48865723 94.18945312 150.70629883 C94.13585789 159.61467956 93.50615764 168.21856307 92 177 C91.34 177 90.68 177 90 177 C89.96261719 177.65226563 89.92523437 178.30453125 89.88671875 178.9765625 C89.47449926 184.45665684 88.55097731 188.0942744 86 193 C85.20116043 196.08417957 84.5024385 199.17596067 83.84375 202.29296875 C82.95490771 205.14467111 82.15148088 206.04410829 80 208 C79.14069703 209.72408301 79.14069703 209.72408301 78.4375 211.6875 C66.86596048 238.74642322 44.34331919 261.16223989 19.8671875 276.78125 C17.93801515 278.00228308 17.93801515 278.00228308 16 279.56640625 C13.51313344 281.34898443 11.08260701 282.12928236 8.1953125 283.05859375 C5.80197083 283.99508896 5.80197083 283.99508896 3.20703125 285.96875 C-0.34218183 288.21672905 -3.36100024 289.09866024 -7.4375 290.0625 C-12.57834475 291.29103008 -17.16139701 292.88241278 -22 295 C-23.87971366 295.59520027 -25.77641061 296.13989781 -27.6875 296.625 C-28.59886719 296.86476563 -29.51023437 297.10453125 -30.44921875 297.3515625 C-40.09308997 299.1127095 -49.87746525 299.18648409 -59.65551758 299.18530273 C-61.69568176 299.18750885 -63.73531993 299.20580801 -65.77539062 299.22460938 C-71.97697122 299.23372488 -77.77687266 299.16166237 -83.78369141 297.55932617 C-86.4463676 296.88735094 -89.10971225 296.48437864 -91.82421875 296.0703125 C-107.92150844 293.44478465 -123.05944738 288.43462007 -137 280 C-138.06347656 279.4121875 -139.12695312 278.824375 -140.22265625 278.21875 C-158.49809706 268.05289165 -173.69264787 252.69423971 -186.0625 236 C-186.55242432 235.34032227 -187.04234863 234.68064453 -187.54711914 234.00097656 C-191 229.24870421 -191 229.24870421 -191 227 C-191.66 227 -192.32 227 -193 227 C-194.4606285 224.35261084 -195 223.10551666 -195 220 C-195.99 219.67 -196.98 219.34 -198 219 C-198.74102718 217.11374899 -199.4691658 215.22097187 -200.1171875 213.30078125 C-201.03428611 210.91064371 -202.18129005 208.87876952 -203.5 206.6875 C-205.93117507 202.46569898 -207.15869356 198.32892276 -208.3203125 193.6171875 C-208.91264816 191.33635477 -209.62188087 189.24421867 -210.5 187.0625 C-215.6012918 173.93338584 -216.17101639 160.70635577 -216.13037109 146.80566406 C-216.12502708 144.63599607 -216.13033739 142.4665366 -216.13671875 140.296875 C-216.14815951 118.88892098 -216.14815951 118.88892098 -213 110 C-212.46533759 106.94123368 -212.00053038 103.87872211 -211.5625 100.8046875 C-211.03860543 98.19249099 -210.31823486 96.29592571 -209 94 C-208.34 94 -207.68 94 -207 94 C-206.89042969 93.24074219 -206.78085937 92.48148437 -206.66796875 91.69921875 C-206.43013672 90.20841797 -206.43013672 90.20841797 -206.1875 88.6875 C-205.96126953 87.20830078 -205.96126953 87.20830078 -205.73046875 85.69921875 C-204.93902347 82.77468031 -204.15569281 81.99932131 -202 80 C-201.21585139 78.07331604 -201.21585139 78.07331604 -200.6875 75.9375 C-198.97691576 70.40961198 -196.12298461 65.8361179 -193 61 C-192.40251953 60.04480469 -192.40251953 60.04480469 -191.79296875 59.0703125 C-189.2836116 55.1418058 -189.2836116 55.1418058 -187 54 C-186.04175981 52.29969528 -185.08530772 50.59833227 -184.14208984 48.88964844 C-181.30784009 44.20023136 -177.14697795 40.3821222 -173.37109375 36.43847656 C-172.18035473 35.18921832 -171.01013039 33.92046829 -169.84375 32.6484375 C-163.49927585 25.937936 -156.1246583 20.62948564 -148.67578125 15.22387695 C-147.32544394 14.23768217 -145.99358012 13.22621989 -144.66796875 12.20703125 C-143 11 -143 11 -140.625 10.0625 C-137.86105001 9.05419247 -137.86105001 9.05419247 -135.1875 7.0625 C-132.13826886 5.08946809 -129.44279949 3.93310985 -126.02734375 2.80859375 C-123.87634794 2.01805112 -123.87634794 2.01805112 -121.6171875 0.53125 C-113.77545018 -4.05675153 -103.91594759 -5.60669415 -95.11791992 -7.69311523 C-91.77970904 -8.27999916 -91.77970904 -8.27999916 -89 -10 C-60.42600566 -13.95946687 -26.48508289 -12.30656312 0 0 Z " fill="#F9D56F" transform="translate(634,143)"/>
<path d="M0 0 C2.72740356 2.18415537 5.341488 4.44206816 7.92578125 6.79296875 C8.53550781 7.32148438 9.14523437 7.85 9.7734375 8.39453125 C35.3063323 31.93549809 46.93969732 71.841002 52.92578125 104.79296875 C52.92578125 105.78296875 52.92578125 106.77296875 52.92578125 107.79296875 C51.22705078 109.16479492 51.22705078 109.16479492 48.80859375 110.5859375 C47.90415527 111.12589355 46.9997168 111.66584961 46.06787109 112.22216797 C45.07223145 112.80240723 44.0765918 113.38264648 43.05078125 113.98046875 C40.94085475 115.23605287 38.83150182 116.49260123 36.72265625 117.75 C35.05686523 118.73734131 35.05686523 118.73734131 33.35742188 119.74462891 C27.63547558 123.1600479 21.97001609 126.66599289 16.30078125 130.16796875 C14.22537978 131.44680831 12.14986193 132.72545904 10.07421875 134.00390625 C9.08131836 134.61588867 8.08841797 135.22787109 7.06542969 135.85839844 C1.68707364 139.17240259 -3.69362946 142.482592 -9.07421875 145.79296875 C-11.47187932 142.19647789 -12.22887941 138.61011612 -13.26171875 134.48046875 C-16.29486258 122.9998344 -20.65167477 110.17374912 -30.64453125 102.9296875 C-31.90910156 102.21232422 -31.90910156 102.21232422 -33.19921875 101.48046875 C-34.04742188 100.98933594 -34.895625 100.49820313 -35.76953125 99.9921875 C-42.42761363 96.52772768 -51.42750662 96.6926161 -58.6640625 98.40625 C-63.90146236 100.68818813 -66.88370587 104.59686844 -69.07421875 109.79296875 C-72.25617437 120.48880553 -73.34224138 134.60206979 -68.07421875 144.79296875 C-59.77144476 158.51365459 -40.56931187 163.97722392 -26.75390625 170.27172852 C-8.81271193 178.50657933 8.72670072 187.86742567 22.92578125 201.79296875 C23.52777344 202.37046875 24.12976563 202.94796875 24.75 203.54296875 C42.27108924 221.84005029 50.33241838 249.91607759 55.11328125 274.16796875 C55.26829102 274.94454834 55.42330078 275.72112793 55.58300781 276.52124023 C58.73642295 293.5472774 59.29893599 310.58133148 59.23828125 327.85546875 C59.23645844 328.93391052 59.23463562 330.01235229 59.23275757 331.12347412 C59.18707057 347.1865474 58.80014844 362.94609167 55.92578125 378.79296875 C55.66837158 380.24582275 55.66837158 380.24582275 55.40576172 381.72802734 C50.83840453 406.66277717 42.81779151 431.98795442 27.92578125 452.79296875 C27.1884375 453.82550781 26.45109375 454.85804688 25.69140625 455.921875 C13.95533183 471.94269907 -0.13225094 484.86794826 -19.07421875 491.79296875 C-20.13640625 492.18484375 -21.19859375 492.57671875 -22.29296875 492.98046875 C-44.48477167 499.8087158 -70.47490623 497.70944055 -91.07421875 487.04296875 C-97.68328589 483.3781632 -103.48194905 478.87261373 -109.07421875 473.79296875 C-109.986875 473.00212891 -109.986875 473.00212891 -110.91796875 472.1953125 C-139.90626028 445.46318517 -150.19143088 400.8645544 -157.07421875 363.79296875 C-157.2654834 362.77541504 -157.45674805 361.75786133 -157.65380859 360.70947266 C-157.83766113 359.68128418 -158.02151367 358.6530957 -158.2109375 357.59375 C-158.37682373 356.67376221 -158.54270996 355.75377441 -158.71362305 354.8059082 C-159.15734283 351.09842961 -159.1295929 347.52608876 -159.07421875 343.79296875 C-158.18790771 343.4746962 -158.18790771 343.4746962 -157.28369141 343.1499939 C-151.05225216 340.91204595 -144.82138262 338.67251711 -138.59082031 336.43212891 C-136.27520657 335.59970403 -133.95945485 334.76766284 -131.64355469 333.93603516 C-128.28673223 332.73053842 -124.93039388 331.52370388 -121.57421875 330.31640625 C-120.48625 329.92563904 -119.39828125 329.53487183 -118.27734375 329.13226318 C-113.50985806 327.41486999 -108.75058719 325.68378544 -104.01953125 323.86816406 C-102.90674805 323.44176132 -102.90674805 323.44176132 -101.77148438 323.00674438 C-99.86197677 322.2698416 -97.95619448 321.52330478 -96.05078125 320.77587891 C-93.07421875 319.79296875 -93.07421875 319.79296875 -89.07421875 319.79296875 C-88.92388184 320.47697754 -88.77354492 321.16098633 -88.61865234 321.86572266 C-82.45777097 351.53010314 -82.45777097 351.53010314 -63.07421875 373.79296875 C-54.92089428 378.7404492 -45.33833265 379.0722108 -36.07421875 377.79296875 C-29.85340962 376.04433335 -25.33841724 373.08661274 -21.96484375 367.52734375 C-16.65150004 357.18030601 -17.48600659 344.83169363 -20.07421875 333.79296875 C-23.68808637 323.11165842 -30.50129798 317.85411589 -40.32421875 312.91796875 C-45.66534127 310.30786467 -51.0873641 307.88737046 -56.52392578 305.48413086 C-76.95274342 296.44311765 -95.10604069 285.53367989 -111.07421875 269.79296875 C-111.87601563 269.0040625 -112.6778125 268.21515625 -113.50390625 267.40234375 C-142.20608615 237.40906234 -147.29917268 188.74053604 -147.32421875 149.29296875 C-147.32489349 148.33788422 -147.32556824 147.38279968 -147.32626343 146.39877319 C-147.30867344 130.68236741 -146.65338087 115.32886653 -144.07421875 99.79296875 C-143.90792969 98.78363281 -143.74164062 97.77429688 -143.5703125 96.734375 C-137.64020463 62.25189592 -124.64542673 23.58794026 -95.76171875 1.48046875 C-67.56696984 -17.72870154 -28.47235999 -20.4407667 0 0 Z " fill="#FFFFFF" transform="translate(922.07421875,272.20703125)"/>
<path d="M0 0 C60.39 0 120.78 0 183 0 C183 37.95 183 75.9 183 115 C147.03 115 111.06 115 74 115 C74 138.43 74 161.86 74 186 C103.04 186 132.08 186 162 186 C162 222.3 162 258.6 162 296 C132.96 296 103.92 296 74 296 C74 322.07 74 348.14 74 375 C109.97 375 145.94 375 183 375 C183 413.94 183 452.88 183 493 C146.71383486 493.25077444 146.71383486 493.25077444 131.29101562 493.35546875 C120.71947781 493.42724171 110.14794179 493.49922638 99.57641602 493.57275391 C91.87090424 493.62634651 84.16538728 493.67911312 76.4598636 493.73096704 C72.39606495 493.75834092 68.33226961 493.78607428 64.2684803 493.81480408 C60.40991655 493.84206974 56.55134646 493.86819624 52.69277 493.89359856 C50.67019522 493.90716777 48.6476277 493.92180896 46.62506104 493.9365387 C31.08289793 494.03655816 15.54353208 494 0 494 C0 330.98 0 167.96 0 0 Z " fill="#FFFFFF" transform="translate(2015,267)"/>
<path d="M0 0 C22.44 0 44.88 0 68 0 C68 85.14 68 170.28 68 258 C72.29 247.44 76.58 236.88 81 226 C83.26962184 220.61260954 85.54763403 215.23657772 87.875 209.875 C89.1215504 206.98773652 90.36543949 204.09932836 91.609375 201.2109375 C91.94143951 200.44066223 92.27350403 199.67038696 92.6156311 198.87677002 C95.72867789 191.64828745 98.81111557 184.40688561 101.890625 177.1640625 C102.40388336 175.95716766 102.91714172 174.75027283 103.44595337 173.50680542 C105.51502369 168.64082246 107.58375639 163.7746979 109.65032959 158.90765381 C111.10163137 155.49001098 112.55459954 152.07308053 114.0078125 148.65625 C114.43749329 147.6429361 114.86717407 146.62962219 115.30987549 145.58560181 C115.72211365 144.61698212 116.13435181 143.64836243 116.55908203 142.65039062 C116.91132843 141.82108032 117.26357483 140.99177002 117.62649536 140.1373291 C119.69957742 135.40204063 121.86096992 130.70586618 124 126 C145.12 126 166.24 126 188 126 C184.63102894 136.10691318 184.63102894 136.10691318 182.71484375 140.30859375 C182.2765625 141.27966064 181.83828125 142.25072754 181.38671875 143.2512207 C180.90847656 144.30269287 180.43023438 145.35416504 179.9375 146.4375 C178.85035497 148.8556878 177.76505644 151.27458831 176.68359375 153.6953125 C176.2471907 154.67214745 176.2471907 154.67214745 175.80197144 155.66871643 C171.15730223 166.10107341 166.70633171 176.61874063 162.24072266 187.12866211 C158.49966781 195.91883398 154.71480203 204.6837268 150.79385376 213.39543152 C148.9120775 217.57681088 147.04577169 221.76503263 145.17919922 225.95321655 C144.27542893 227.96799224 143.36360107 229.9791748 142.44335938 231.98648071 C141.15654994 234.79475273 139.8981567 237.61429136 138.64453125 240.4375 C138.25904617 241.25872849 137.8735611 242.07995697 137.47639465 242.92607117 C132.77357908 253.7035553 136.93612316 264.57785179 139.71508789 275.46557617 C140.10367327 277.0099784 140.49163045 278.55453881 140.87901306 280.09924316 C141.93144268 284.28826688 142.99266928 288.47501686 144.05551076 292.66140914 C145.1848948 297.11627163 146.3061296 301.57318493 147.42832947 306.02986145 C149.57092503 314.53368661 151.72087407 323.03563494 153.87341827 331.53694659 C156.25889302 340.95974139 158.63595472 350.38465079 161.01234555 359.80973983 C171.63154986 401.9268148 171.63154986 401.9268148 182.34776652 444.0192765 C182.93159154 446.30191445 183.51483535 448.5847 184.09784222 450.86754704 C184.28457306 451.59867787 184.4713039 452.3298087 184.66369325 453.08309501 C185.03230144 454.52639085 185.40088454 455.9696931 185.76944131 457.41300207 C186.81847277 461.51923702 187.87197441 465.62429101 188.92906618 469.72845793 C189.71337395 472.77809783 190.49178272 475.82924438 191.27124023 478.88012695 C191.69162599 480.50235263 191.69162599 480.50235263 192.12050438 482.15735054 C192.37093309 483.14173544 192.62136181 484.12612034 192.87937927 485.14033508 C193.09744956 485.98879659 193.31551985 486.83725809 193.54019833 487.71143055 C194 490 194 490 194 494 C169.58 494 145.16 494 120 494 C115.40563277 476.77112287 115.40563277 476.77112287 113.43798828 468.14697266 C113.21295624 467.17056824 112.98792419 466.19416382 112.756073 465.18817139 C112.02510418 462.01401095 111.29772359 458.83903993 110.5703125 455.6640625 C110.05257709 453.41362633 109.53457656 451.16325115 109.0163269 448.91293335 C107.658544 443.01472582 106.30364265 437.11586058 104.94958496 431.21679688 C102.79127596 421.81545208 100.62917461 412.41498004 98.46587753 403.01478195 C97.72155021 399.77815435 96.97884331 396.54115839 96.23635864 393.30410767 C92.9152962 378.8472022 89.48718292 364.41771426 86 350 C85.77510139 350.5350264 85.55020279 351.0700528 85.31848907 351.62129211 C83.28602481 356.45631916 81.25283537 361.29104029 79.21899414 366.12548828 C78.44954689 367.95481379 77.68034017 369.7842405 76.91137695 371.61376953 C75.80743291 374.24017413 74.70263048 376.86621618 73.59765625 379.4921875 C73.25283707 380.31306854 72.90801788 381.13394958 72.55274963 381.97970581 C72.23249313 382.74034332 71.91223663 383.50098083 71.58227539 384.28466797 C71.30025772 384.95529266 71.01824005 385.62591736 70.72767639 386.31686401 C70.18954025 387.56158807 69.60645338 388.78709325 69 390 C68.89669098 391.39342165 68.8535652 392.79155481 68.84178162 394.18875122 C68.8319928 395.06657257 68.82220398 395.94439392 68.81211853 396.84881592 C68.80636307 397.81410217 68.8006076 398.77938843 68.79467773 399.77392578 C68.78477814 400.78858917 68.77487854 401.80325256 68.76467896 402.84866333 C68.73300331 406.21418903 68.70828255 409.57972887 68.68359375 412.9453125 C68.66302946 415.27416356 68.64203313 417.60301084 68.62062073 419.93185425 C68.56534584 426.07046455 68.51596047 432.20910883 68.46777344 438.34777832 C68.40878083 445.70829498 68.34252312 453.06874934 68.27747345 460.42921448 C68.17939581 471.61943837 68.09058629 482.80970165 68 494 C45.56 494 23.12 494 0 494 C0 330.98 0 167.96 0 0 Z " fill="#FFFFFF" transform="translate(1552,267)"/>
<path d="M0 0 C38.7560242 33.21160714 51.67848597 91.12005122 55.4375 139.8125 C55.52507568 140.94333008 55.61265137 142.07416016 55.70288086 143.23925781 C56.46263951 154.05887162 56.63857743 164.84340821 56.625 175.6875 C56.62439575 176.58535217 56.6237915 177.48320435 56.62316895 178.40826416 C56.52842917 230.50936399 49.66515549 293.2455226 16.4375 335.8125 C15.83736084 336.59125488 15.83736084 336.59125488 15.22509766 337.38574219 C1.91299891 354.48486039 -13.82619519 365.97943739 -35.63671875 369.27734375 C-54.41031139 371.33250949 -71.70479206 366.54637973 -86.5625 354.8125 C-100.16105188 343.16094436 -109.13426281 328.93000138 -116.5625 312.8125 C-116.85721191 312.19213867 -117.15192383 311.57177734 -117.45556641 310.93261719 C-134.57924365 274.85364932 -142.61734238 233.52174098 -142.765625 193.71875 C-142.77417511 191.87947937 -142.77417511 191.87947937 -142.78289795 190.00305176 C-142.7922932 187.41464077 -142.79885997 184.82621811 -142.80273438 182.23779297 C-142.81233617 178.37835258 -142.84337033 174.51946979 -142.875 170.66015625 C-143.01300631 138.12526619 -139.11065518 105.96234603 -129.5625 74.8125 C-129.30629883 73.97654297 -129.05009766 73.14058594 -128.78613281 72.27929688 C-120.88117483 47.06674581 -109.31384387 23.6194034 -90.5625 4.8125 C-89.84707031 4.07386719 -89.13164063 3.33523438 -88.39453125 2.57421875 C-64.35667504 -20.65185245 -25.589183 -20.06994745 0 0 Z M-56 85.23828125 C-61.07238455 95.66988163 -62.95046181 106.86989679 -64.1875 118.3125 C-64.30867188 119.33085938 -64.42984375 120.34921875 -64.5546875 121.3984375 C-66.66737482 140.18298344 -66.76640252 159.05687936 -66.75 177.9375 C-66.74972809 179.11760651 -66.74945618 180.29771301 -66.74917603 181.51358032 C-69.28978697 232.92311522 -69.28978697 232.92311522 -51.5625 278.8125 C-47.42195289 281.4351276 -43.32105724 281.69013577 -38.5625 280.8125 C-32.85565992 278.0328264 -29.99634663 272.88163891 -27.70141602 267.17431641 C-23.88677643 255.91438347 -22.81058194 243.54618914 -21.875 231.75 C-21.81212799 230.97267517 -21.74925598 230.19535034 -21.68447876 229.39447021 C-20.28259577 211.22081826 -20.26371575 193.0101725 -20.25197983 174.79359818 C-20.25002653 172.46906843 -20.24491204 170.14456157 -20.2394104 167.82003784 C-17.65068596 120.53786836 -17.65068596 120.53786836 -34.8125 79.1875 C-38.20620207 76.60533538 -41.12226928 75.90741353 -45.359375 76.24609375 C-50.50628916 77.56932523 -53.35130221 80.76860373 -56 85.23828125 Z " fill="#FFFFFF" transform="translate(1274.5625,399.1875)"/>
<path d="M0 0 C5.46509408 3.52529569 10.18516311 7.76139601 14.8125 12.3125 C15.50214844 12.98925781 16.19179687 13.66601562 16.90234375 14.36328125 C46.09787414 45.06194786 56.8125 98.3542652 56.8125 139.3125 C35.91151335 143.52936573 14.8488993 146.85382258 -6.1875 150.3125 C-7.40395057 147.87959887 -7.52547291 145.92105509 -7.80078125 143.2109375 C-9.8646311 117.27573621 -9.8646311 117.27573621 -21.5 94.6875 C-25.17721601 92.80613367 -28.14480356 92.39857066 -32.1875 93.3125 C-40.18976421 98.89547503 -42.8271734 109.33657001 -44.56640625 118.42578125 C-48.05786175 140.27482667 -48.39511929 162.29356586 -48.375 184.375 C-48.37472809 185.499133 -48.37445618 186.62326599 -48.37417603 187.78146362 C-48.35610256 204.02863849 -48.20674517 220.16788696 -46.1875 236.3125 C-46.03474609 237.58988037 -46.03474609 237.58988037 -45.87890625 238.89306641 C-44.36409373 251.01857957 -42.14500888 263.35499112 -33.1875 272.3125 C-29.72477781 274.0438611 -25.97988584 273.64886814 -22.1875 273.3125 C-17.46523232 271.70263602 -15.61119078 268.39101103 -13.45117188 264.11230469 C-9.11484931 254.50470283 -7.32200224 244.3780926 -5.9375 234 C-5.76476563 232.77087891 -5.59203125 231.54175781 -5.4140625 230.27539062 C-4.99572658 227.28893697 -4.58702067 224.30151836 -4.1875 221.3125 C7.12440262 221.76382379 18.15275549 223.736766 29.28173828 225.69604492 C32.46353122 226.25456946 35.64757506 226.79868672 38.83203125 227.34179688 C40.85952415 227.69445607 42.88687358 228.04794132 44.9140625 228.40234375 C46.33895493 228.64463966 46.33895493 228.64463966 47.79263306 228.89183044 C48.67140106 229.04861771 49.55016907 229.20540497 50.45556641 229.36694336 C51.22687897 229.50160507 51.99819153 229.63626678 52.7928772 229.77500916 C54.8125 230.3125 54.8125 230.3125 57.8125 232.3125 C54.17988139 273.99487595 47.51954241 321.63260797 18.8125 354.3125 C17.69875 355.8284375 17.69875 355.8284375 16.5625 357.375 C6.70895399 369.0140879 -7.86865404 375.30737423 -22.6875 377.0625 C-39.53890456 378.2114594 -54.73703987 373.57484265 -68.1875 363.3125 C-96.6961536 338.39986642 -109.20200677 300.30679869 -116.4375 264.25 C-116.67162598 263.11264404 -116.90575195 261.97528809 -117.14697266 260.8034668 C-121.75423429 236.53029881 -122.71283127 212.01599035 -122.5625 187.375 C-122.55775001 186.00897346 -122.55339043 184.6429455 -122.54940796 183.2769165 C-122.48369509 163.81729347 -122.1458704 144.58087151 -119.1875 125.3125 C-119.01589355 124.14396484 -118.84428711 122.97542969 -118.66748047 121.77148438 C-113.37751872 86.61853032 -103.47050206 47.25210247 -80.1875 19.3125 C-79.12789062 18.02859375 -79.12789062 18.02859375 -78.046875 16.71875 C-58.40739148 -6.07953156 -27.26334973 -15.05775777 0 0 Z " fill="#FFFFFF" transform="translate(1470.1875,391.6875)"/>
<path d="M0 0 C0 40.26 0 80.52 0 122 C11.88 122 23.76 122 36 122 C36 153.02 36 184.04 36 216 C24.12 216 12.24 216 0 216 C0.08555724 235.62842981 0.17920857 255.25676698 0.28752708 274.8850832 C0.33756783 283.99962513 0.38401148 293.11415844 0.421875 302.22875977 C0.45490069 310.17656042 0.49478973 318.12429254 0.54279006 326.07201737 C0.56795028 330.27707135 0.58976201 334.48208047 0.60334396 338.6871891 C0.61626004 342.65247158 0.63841529 346.61759942 0.66738319 350.5827961 C0.67638493 352.03107267 0.68213169 353.4793741 0.68421364 354.92767715 C0.30379924 371.0037133 0.30379924 371.0037133 7 385 C11.70614988 387.92489745 16.63901558 387.59489634 22 387 C24.990572 386.12154335 27.81353786 385.07805392 30.6875 383.875 C33 383 33 383 36 383 C36 417.32 36 451.64 36 487 C13.85841872 493.32616608 -11.05961607 500.13590484 -33 489 C-49.53742281 479.15955006 -58.46803083 462.64160293 -63.33959961 444.49072266 C-68.85412027 421.96220699 -70.16649185 398.93360453 -70.11352539 375.84375 C-70.1132425 374.08771771 -70.11340323 372.3316853 -70.1139679 370.57565308 C-70.1142519 365.86186422 -70.10841994 361.14810141 -70.10139394 356.43431854 C-70.09509375 351.48827755 -70.09455137 346.54223579 -70.09336853 341.59619141 C-70.09027471 332.25398639 -70.08208788 322.91179325 -70.07201904 313.56959343 C-70.06079701 302.92371918 -70.05533218 292.27784434 -70.05032361 281.63196564 C-70.0399034 259.75463699 -70.02213796 237.87731966 -70 216 C-78.91 216 -87.82 216 -97 216 C-97 184.98 -97 153.96 -97 122 C-88.09 122 -79.18 122 -70 122 C-70.0103125 118.19082031 -70.020625 114.38164062 -70.03125 110.45703125 C-70.0506047 89.91156511 -69.77646292 69.36829837 -69.53643799 48.82458496 C-69.4749047 43.52695057 -69.41527869 38.2292947 -69.35546875 32.93164062 C-69.23879418 22.62107249 -69.12008574 12.31052894 -69 2 C-62.36369863 0.850006 -55.8507805 0.64346015 -49.125 0.4375 C-47.94164062 0.39431641 -46.75828125 0.35113281 -45.5390625 0.30664062 C-30.35021028 -0.17958788 -15.21693667 0 0 0 Z " fill="#FFFFFF" transform="translate(1083,271)"/>
<path d="M0 0 C1.02086209 0.97869331 2.02283085 1.97767889 3 3 C5.03096988 3.96518649 7.09813575 4.85624756 9.1875 5.6875 C10.27417969 6.12449219 11.36085938 6.56148437 12.48046875 7.01171875 C13.72763672 7.50091797 13.72763672 7.50091797 15 8 C15 8.66 15 9.32 15 10 C15.721875 10.103125 16.44375 10.20625 17.1875 10.3125 C20.27793421 11.06793947 22.41743841 12.15531315 25 14 C25 14.66 25 15.32 25 16 C25.56589844 16.26941406 26.13179687 16.53882813 26.71484375 16.81640625 C34.84427117 21.02703276 41.19155556 26.90610012 47.45703125 33.44921875 C49.91019175 36.01114493 49.91019175 36.01114493 52.546875 38.0078125 C59.5546588 43.69884712 65.58981804 52.13085179 70 60 C70 60.66 70 61.32 70 62 C70.66 62 71.32 62 72 62 C73.14767634 64.29535269 74.29371499 66.59138237 75.43359375 68.890625 C76.52617789 71.05944539 77.64557842 73.21487405 78.78515625 75.359375 C82.20377946 81.89177604 84.82986305 88.03722951 86.390625 95.2890625 C86.93273796 97.70077018 87.63310454 99.87872741 88.5 102.1875 C90.0044017 106.52651122 90.82618116 110.9264362 91.625 115.4375 C91.74810547 116.12932373 91.87121094 116.82114746 91.99804688 117.53393555 C93.66900284 127.39926879 94.19315489 137.12361917 94.1875 147.125 C94.18814453 148.30682861 94.18878906 149.48865723 94.18945312 150.70629883 C94.13585789 159.61467956 93.50615764 168.21856307 92 177 C91.34 177 90.68 177 90 177 C89.96261719 177.65226563 89.92523437 178.30453125 89.88671875 178.9765625 C89.47449926 184.45665684 88.55097731 188.0942744 86 193 C85.20116043 196.08417957 84.5024385 199.17596067 83.84375 202.29296875 C82.95490771 205.14467111 82.15148088 206.04410829 80 208 C79.14069703 209.72408301 79.14069703 209.72408301 78.4375 211.6875 C66.86596048 238.74642322 44.34331919 261.16223989 19.8671875 276.78125 C17.93801515 278.00228308 17.93801515 278.00228308 16 279.56640625 C13.51313344 281.34898443 11.08260701 282.12928236 8.1953125 283.05859375 C5.80197083 283.99508896 5.80197083 283.99508896 3.20703125 285.96875 C-0.34218183 288.21672905 -3.36100024 289.09866024 -7.4375 290.0625 C-12.57834475 291.29103008 -17.16139701 292.88241278 -22 295 C-23.87971366 295.59520027 -25.77641061 296.13989781 -27.6875 296.625 C-28.59886719 296.86476563 -29.51023437 297.10453125 -30.44921875 297.3515625 C-40.09308997 299.1127095 -49.87746525 299.18648409 -59.65551758 299.18530273 C-61.69568176 299.18750885 -63.73531993 299.20580801 -65.77539062 299.22460938 C-71.97697122 299.23372488 -77.77687266 299.16166237 -83.78369141 297.55932617 C-86.4463676 296.88735094 -89.10971225 296.48437864 -91.82421875 296.0703125 C-107.92150844 293.44478465 -123.05944738 288.43462007 -137 280 C-138.06347656 279.4121875 -139.12695312 278.824375 -140.22265625 278.21875 C-158.49809706 268.05289165 -173.69264787 252.69423971 -186.0625 236 C-186.55242432 235.34032227 -187.04234863 234.68064453 -187.54711914 234.00097656 C-191 229.24870421 -191 229.24870421 -191 227 C-191.66 227 -192.32 227 -193 227 C-194.4606285 224.35261084 -195 223.10551666 -195 220 C-195.99 219.67 -196.98 219.34 -198 219 C-198.74102718 217.11374899 -199.4691658 215.22097187 -200.1171875 213.30078125 C-201.03428611 210.91064371 -202.18129005 208.87876952 -203.5 206.6875 C-205.93117507 202.46569898 -207.15869356 198.32892276 -208.3203125 193.6171875 C-208.91264816 191.33635477 -209.62188087 189.24421867 -210.5 187.0625 C-215.6012918 173.93338584 -216.17101639 160.70635577 -216.13037109 146.80566406 C-216.12502708 144.63599607 -216.13033739 142.4665366 -216.13671875 140.296875 C-216.14815951 118.88892098 -216.14815951 118.88892098 -213 110 C-212.46533759 106.94123368 -212.00053038 103.87872211 -211.5625 100.8046875 C-211.03860543 98.19249099 -210.31823486 96.29592571 -209 94 C-208.34 94 -207.68 94 -207 94 C-206.89042969 93.24074219 -206.78085937 92.48148437 -206.66796875 91.69921875 C-206.43013672 90.20841797 -206.43013672 90.20841797 -206.1875 88.6875 C-205.96126953 87.20830078 -205.96126953 87.20830078 -205.73046875 85.69921875 C-204.93902347 82.77468031 -204.15569281 81.99932131 -202 80 C-201.21585139 78.07331604 -201.21585139 78.07331604 -200.6875 75.9375 C-198.97691576 70.40961198 -196.12298461 65.8361179 -193 61 C-192.40251953 60.04480469 -192.40251953 60.04480469 -191.79296875 59.0703125 C-189.2836116 55.1418058 -189.2836116 55.1418058 -187 54 C-186.04175981 52.29969528 -185.08530772 50.59833227 -184.14208984 48.88964844 C-181.30784009 44.20023136 -177.14697795 40.3821222 -173.37109375 36.43847656 C-172.18035473 35.18921832 -171.01013039 33.92046829 -169.84375 32.6484375 C-163.49927585 25.937936 -156.1246583 20.62948564 -148.67578125 15.22387695 C-147.32544394 14.23768217 -145.99358012 13.22621989 -144.66796875 12.20703125 C-143 11 -143 11 -140.625 10.0625 C-137.86105001 9.05419247 -137.86105001 9.05419247 -135.1875 7.0625 C-132.13826886 5.08946809 -129.44279949 3.93310985 -126.02734375 2.80859375 C-123.87634794 2.01805112 -123.87634794 2.01805112 -121.6171875 0.53125 C-113.77545018 -4.05675153 -103.91594759 -5.60669415 -95.11791992 -7.69311523 C-91.77970904 -8.27999916 -91.77970904 -8.27999916 -89 -10 C-60.42600566 -13.95946687 -26.48508289 -12.30656312 0 0 Z M-92 16 C-93.60226145 16.32212605 -95.20604486 16.63698572 -96.8125 16.9375 C-100.67709746 17.79867181 -104.06318093 19.25313421 -107.6328125 20.9453125 C-110.13296257 22.05924075 -112.6496625 22.89829525 -115.25 23.75 C-138.50718811 32.10703974 -160.24499543 53.19653185 -173 74 C-173.56976563 74.87011719 -174.13953125 75.74023438 -174.7265625 76.63671875 C-178.73570453 82.92692434 -183 90.37690947 -183 98 C-183.66 98 -184.32 98 -185 98 C-186.1577506 101.47325181 -186.06866652 104.36067448 -186 108 C-186.66 108 -187.32 108 -188 108 C-188.13277344 108.84304687 -188.26554687 109.68609375 -188.40234375 110.5546875 C-188.57894531 111.65039062 -188.75554687 112.74609375 -188.9375 113.875 C-189.11152344 114.96554687 -189.28554688 116.05609375 -189.46484375 117.1796875 C-190 120 -190 120 -191 122 C-196.26665783 159.27747884 -187.85814572 193.98225668 -165.25317383 224.08056641 C-150.96398102 243.017042 -150.96398102 243.017042 -131 254 C-131 254.66 -131 255.32 -131 256 C-128.27735942 257.49696786 -125.55170383 258.98779102 -122.8203125 260.46875 C-120.79013423 261.57100746 -118.76756418 262.68731997 -116.75 263.8125 C-113.50750003 265.21267044 -110.50109999 265.64989 -107 266 C-107 266.66 -107 267.32 -107 268 C-103.7 268.33 -100.4 268.66 -97 269 C-97 269.66 -97 270.32 -97 271 C-96.21496094 271.12117188 -95.42992187 271.24234375 -94.62109375 271.3671875 C-93.57050781 271.53476562 -92.51992188 271.70234375 -91.4375 271.875 C-89.88869141 272.11863281 -89.88869141 272.11863281 -88.30859375 272.3671875 C-85 273 -85 273 -81.74755859 274.02075195 C-77.91812725 275.02139359 -74.68010582 275.27312888 -70.73046875 275.30078125 C-70.05616821 275.3063353 -69.38186768 275.31188934 -68.68713379 275.31761169 C-66.52036452 275.32933347 -64.35426828 275.32316208 -62.1875 275.3125 C-61.07926376 275.31026428 -61.07926376 275.31026428 -59.94863892 275.3079834 C-41.11320552 275.23946209 -23.93994652 273.00427377 -7.05859375 264.05078125 C-5 263 -5 263 -2 262 C-2 261.34 -2 260.68 -2 260 C-1.45601562 259.89816406 -0.91203125 259.79632813 -0.3515625 259.69140625 C8.79589017 257.00187283 16.88124576 250.10997747 24 244 C24.81082031 243.32324219 25.62164063 242.64648438 26.45703125 241.94921875 C37.5007441 232.43597319 45.70949887 221.5345458 53 209 C53.66 208.01 54.32 207.02 55 206 C55 205.01 55 204.02 55 203 C55.66 203 56.32 203 57 203 C62.50487523 191.96663182 62.50487523 191.96663182 64 180 C64.66 180 65.32 180 66 180 C66 178.02 66 176.04 66 174 C66.66 174 67.32 174 68 174 C69.75887163 163.28972811 70.2426882 152.6615222 70.3125 141.8125 C70.33860352 139.94440674 70.33860352 139.94440674 70.36523438 138.03857422 C70.36122541 130.4305691 69.51653595 123.49519067 67.73071289 116.09716797 C67.04106576 113.17405954 66.54818303 110.2842347 66.125 107.3125 C65.0592475 101.36854701 62.70063096 96.36609746 60 91 C59.3949033 89.76738321 58.79078585 88.53428535 58.1875 87.30078125 C54.88216335 80.48860245 54.88216335 80.48860245 51 74 C50.34 74 49.68 74 49 74 C48.61134766 72.66001953 48.61134766 72.66001953 48.21484375 71.29296875 C41.60748042 53.38297748 17.623153 36.56939497 1 28 C0.01 28 -0.98 28 -2 28 C-2.35880249 27.06619507 -2.35880249 27.06619507 -2.72485352 26.11352539 C-4.34041609 23.43576832 -5.45546165 23.11717408 -8.40234375 22.18359375 C-9.28760742 21.89564941 -10.17287109 21.60770508 -11.08496094 21.31103516 C-12.49696777 20.87863525 -12.49696777 20.87863525 -13.9375 20.4375 C-14.89301758 20.13376465 -15.84853516 19.8300293 -16.83300781 19.51708984 C-19.55023341 18.66026113 -22.27321811 17.82583143 -25 17 C-26.16144531 16.64292969 -27.32289063 16.28585938 -28.51953125 15.91796875 C-38.57477084 12.99777757 -48.61539596 12.78781547 -59.0090332 12.75976562 C-61.16592542 12.75009671 -63.32184718 12.71900218 -65.47851562 12.6875 C-74.75965859 12.6179736 -82.9643513 13.72983826 -92 16 Z " fill="#F9C328" transform="translate(634,143)"/>
<path d="M0 0 C0.68936142 -0.00191345 1.37872284 -0.0038269 2.088974 -0.00579834 C3.54198575 -0.00715138 4.99500995 -0.0035169 6.44799805 0.00488281 C8.62252486 0.01547969 10.79620357 0.00501786 12.97070312 -0.0078125 C25.47390996 -0.02258108 37.483536 1.13689113 49.40234375 5.140625 C50.16998047 5.38425781 50.93761719 5.62789062 51.72851562 5.87890625 C63.22826283 9.61850391 63.22826283 9.61850391 67.58984375 12.265625 C67.91984375 13.255625 68.24984375 14.245625 68.58984375 15.265625 C69.90984347 15.64836464 71.24761278 15.97015095 72.58984375 16.265625 C89.77832853 24.96067962 111.05430658 41.45233003 119.58984375 59.265625 C119.58984375 59.925625 119.58984375 60.585625 119.58984375 61.265625 C120.24984375 61.265625 120.90984375 61.265625 121.58984375 61.265625 C124.82926777 67.04259783 127.96430443 72.79351014 130.53515625 78.90234375 C131.51643817 81.18795369 131.51643817 81.18795369 132.53955078 82.99633789 C135.2783486 88.06430573 136.46239053 92.64131512 137.21484375 98.328125 C137.43219811 99.86124947 137.65350214 101.39381959 137.87890625 102.92578125 C137.98783203 103.67150391 138.09675781 104.41722656 138.20898438 105.18554688 C138.57693627 107.4787966 138.57693627 107.4787966 139.66015625 110.42578125 C141.12061123 116.45782849 140.8826224 122.45834549 140.83984375 128.640625 C140.83718506 129.63875214 140.83718506 129.63875214 140.83447266 130.65704346 C140.8021399 140.97212431 140.26221768 151.08206232 138.58984375 161.265625 C137.92984375 161.265625 137.26984375 161.265625 136.58984375 161.265625 C136.58984375 163.245625 136.58984375 165.225625 136.58984375 167.265625 C135.92984375 167.265625 135.26984375 167.265625 134.58984375 167.265625 C134.57566406 167.87148438 134.56148437 168.47734375 134.546875 169.1015625 C134.19513857 175.28071595 132.73366322 179.72609148 129.74609375 185.13671875 C128.46598452 187.34571844 128.46598452 187.34571844 127.58984375 190.265625 C126.92984375 190.265625 126.26984375 190.265625 125.58984375 190.265625 C125.47769531 190.83152344 125.36554688 191.39742187 125.25 191.98046875 C118.69101688 214.68464109 93.89948038 233.92989587 74.58984375 245.265625 C73.59984375 245.925625 72.60984375 246.585625 71.58984375 247.265625 C70.59984375 247.265625 69.60984375 247.265625 68.58984375 247.265625 C68.58984375 247.925625 68.58984375 248.585625 68.58984375 249.265625 C67.80480469 249.59175781 67.01976562 249.91789063 66.2109375 250.25390625 C59.44513044 253.06175158 59.44513044 253.06175158 52.71484375 255.953125 C38.57876852 261.8902766 23.96958751 262.570726 8.83984375 262.640625 C8.14168549 262.64829895 7.44352722 262.6559729 6.72421265 262.66387939 C-3.0514134 262.74961164 -11.90255104 261.62928234 -21.41015625 259.265625 C-23.07486087 258.92262731 -24.74087885 258.58562788 -26.41015625 258.265625 C-26.41015625 257.605625 -26.41015625 256.945625 -26.41015625 256.265625 C-29.71015625 255.935625 -33.01015625 255.605625 -36.41015625 255.265625 C-36.41015625 254.605625 -36.41015625 253.945625 -36.41015625 253.265625 C-36.96960938 253.2140625 -37.5290625 253.1625 -38.10546875 253.109375 C-46.66715676 251.89807509 -53.18803698 247.74042512 -60.41015625 243.265625 C-60.41015625 242.605625 -60.41015625 241.945625 -60.41015625 241.265625 C-61.29445313 241.01554688 -62.17875 240.76546875 -63.08984375 240.5078125 C-85.13613301 232.25990664 -102.18209437 202.88805992 -111.50708008 182.85595703 C-123.01105116 157.45309472 -125.04664657 127.40995837 -118.41015625 100.265625 C-118.07028958 98.60027833 -117.73313139 96.93432987 -117.41015625 95.265625 C-116.75015625 95.265625 -116.09015625 95.265625 -115.41015625 95.265625 C-115.43078125 94.1725 -115.45140625 93.079375 -115.47265625 91.953125 C-115.41015625 88.265625 -115.41015625 88.265625 -114.41015625 85.265625 C-113.75015625 85.265625 -113.09015625 85.265625 -112.41015625 85.265625 C-112.37019531 84.729375 -112.33023437 84.193125 -112.2890625 83.640625 C-109.31037486 61.28208071 -87.53781326 39.35991348 -70.5546875 26.171875 C-67.2577485 23.73027186 -63.86448097 21.47828325 -60.41015625 19.265625 C-59.518125 18.67394531 -58.62609375 18.08226562 -57.70703125 17.47265625 C-52.77634951 14.33283533 -47.85871344 12.13255129 -42.32421875 10.26953125 C-39.15249633 9.17686012 -36.07702933 7.91126935 -32.97265625 6.640625 C-27.75802046 4.61305556 -22.80378106 3.43297691 -17.26171875 2.72265625 C-14.31459112 2.32123347 -14.31459112 2.32123347 -11.19506836 1.25366211 C-7.29779902 0.23629457 -4.01954725 0.00721503 0 0 Z M-11.41015625 26.265625 C-13.07935013 26.59609592 -14.74975675 26.92153526 -16.42553711 27.21679688 C-22.22481504 28.24040228 -27.51082814 29.35375138 -32.66796875 32.30859375 C-34.48780827 33.30828138 -36.25170163 33.93301335 -38.22265625 34.578125 C-47.08551573 37.82148062 -54.32733097 43.75620923 -61.12109375 50.15234375 C-63.41015625 52.265625 -63.41015625 52.265625 -65.92578125 54.21484375 C-75.19036336 61.86249407 -83.37495206 73.50385717 -87.4453125 84.7890625 C-88.42781545 87.31095266 -89.64513331 89.53496115 -90.97265625 91.890625 C-94.41286874 98.60168567 -95.32502064 105.88973819 -96.41015625 113.265625 C-96.54292969 114.10609375 -96.67570312 114.9465625 -96.8125 115.8125 C-98.7074874 130.45322456 -97.68914941 144.94246084 -94.41015625 159.265625 C-94.24386719 160.17054688 -94.07757813 161.07546875 -93.90625 162.0078125 C-92.94242593 167.16557375 -91.13297187 170.78615414 -88.41015625 175.265625 C-87.66015625 177.703125 -87.66015625 177.703125 -87.41015625 179.265625 C-86.75015625 179.265625 -86.09015625 179.265625 -85.41015625 179.265625 C-85.14203125 179.966875 -84.87390625 180.668125 -84.59765625 181.390625 C-78.20907671 196.8577123 -63.67586346 214.61530491 -48.41015625 222.265625 C-47.75015625 222.265625 -47.09015625 222.265625 -46.41015625 222.265625 C-46.41015625 222.925625 -46.41015625 223.585625 -46.41015625 224.265625 C-41.82854593 226.63824463 -37.34206409 228.77198302 -32.46484375 230.45703125 C-30.41015625 231.265625 -30.41015625 231.265625 -27.68359375 232.75390625 C-23.85251672 234.52315065 -20.29865364 235.22361443 -16.16015625 235.890625 C-8.61961571 237.16089527 -8.61961571 237.16089527 -6.41015625 238.265625 C8.32371767 239.19904377 23.27353936 239.07056512 37.58984375 235.265625 C38.56953125 235.01425781 39.54921875 234.76289063 40.55859375 234.50390625 C45.20755642 233.2117681 49.30483531 231.50551577 53.58984375 229.265625 C55.57852088 228.56590527 57.57592426 227.88898103 59.58984375 227.265625 C59.58984375 226.605625 59.58984375 225.945625 59.58984375 225.265625 C60.41871094 225.05035156 61.24757813 224.83507812 62.1015625 224.61328125 C66.45643103 222.93082924 69.72186936 220.53294641 73.40234375 217.703125 C74.46618286 216.88968628 74.46618286 216.88968628 75.55151367 216.05981445 C87.38479634 206.88234697 98.4528638 195.14495383 104.58984375 181.265625 C104.58984375 180.605625 104.58984375 179.945625 104.58984375 179.265625 C105.24984375 179.265625 105.90984375 179.265625 106.58984375 179.265625 C107.02296875 178.09 107.45609375 176.914375 107.90234375 175.703125 C108.87302033 173.08731113 109.89928115 170.60807053 111.08984375 168.078125 C119.449806 148.89421164 118.85284434 123.11315958 113.58984375 103.265625 C113.42355469 102.47414063 113.25726562 101.68265625 113.0859375 100.8671875 C112.19747534 96.6890141 110.70269271 93.1464832 108.6875 89.41796875 C107.77204678 87.62289857 106.96527835 85.77293108 106.1875 83.9140625 C101.71405786 73.6984269 95.32968093 65.22542203 87.58984375 57.265625 C86.67138672 56.25435547 86.67138672 56.25435547 85.734375 55.22265625 C78.51262885 47.50816836 69.25514932 40.59400097 59.58984375 36.265625 C58.92984375 36.265625 58.26984375 36.265625 57.58984375 36.265625 C57.58984375 35.605625 57.58984375 34.945625 57.58984375 34.265625 C55.82640625 33.6159375 55.82640625 33.6159375 54.02734375 32.953125 C51.41152988 31.98244842 48.93228928 30.9561876 46.40234375 29.765625 C34.65987281 24.64849317 21.62132847 24.09609706 9.02734375 24.140625 C7.92970703 24.13675781 6.83207031 24.13289063 5.70117188 24.12890625 C-3.35842318 23.49285787 -3.35842318 23.49285787 -11.41015625 26.265625 Z " fill="#070502" transform="translate(563.41015625,155.734375)"/>
<path d="M0 0 C0 129.69 0 259.38 0 393 C-15.51 393 -31.02 393 -47 393 C-47.11294357 346.04267152 -47.20250024 299.08537553 -47.25532665 252.12793825 C-47.26158046 246.58895405 -47.26805205 241.04997012 -47.2746582 235.51098633 C-47.27596976 234.40823641 -47.27728131 233.30548649 -47.2786326 232.16931991 C-47.30041164 214.29459166 -47.33984688 196.41994351 -47.38576398 178.54526284 C-47.43245918 160.2153222 -47.46028069 141.88542362 -47.47044247 123.55542594 C-47.47731605 112.23736254 -47.49905474 100.91952548 -47.53958233 89.60153172 C-47.56593513 81.84894618 -47.57401799 74.09647829 -47.56750689 66.34385117 C-47.56429232 61.8654598 -47.56934986 57.38746498 -47.59602737 52.90914345 C-47.62024647 48.81378867 -47.62166236 44.71909944 -47.60449447 40.6237149 C-47.60237075 39.13778993 -47.60880976 37.65182448 -47.62441591 36.16597994 C-47.6443217 34.15473389 -47.63074454 32.14323803 -47.61523914 30.13195324 C-47.61713775 29.01215799 -47.61903635 27.89236273 -47.62099248 26.73863429 C-47 24 -47 24 -44.60144013 22.14873534 C-40.97508316 20.54742061 -37.93652082 20.33360346 -34 20 C-34 19.34 -34 18.68 -34 18 C-33.030625 17.53851563 -32.06125 17.07703125 -31.0625 16.6015625 C-22.7345649 12.5706324 -14.80998148 8.20462355 -7.0546875 3.15087891 C-2.18930524 0 -2.18930524 0 0 0 Z " fill="#FE826E" transform="translate(680,431)"/>
<path d="M0 0 C0 119.13 0 238.26 0 361 C-15.84 361 -31.68 361 -48 361 C-48.97678762 321.22275432 -49.74437852 281.44872233 -50.19580917 241.66184722 C-50.24957473 236.94047906 -50.30523202 232.21913497 -50.36206055 227.49780273 C-50.37897957 226.08819851 -50.37897957 226.08819851 -50.39624039 224.65011743 C-50.58220148 209.53075065 -50.92052716 194.41857987 -51.31757023 179.30345049 C-51.72302529 163.73551429 -51.95920056 148.17128174 -52.04580528 132.59828502 C-52.09899611 123.87163151 -52.22528774 115.15995323 -52.54639244 106.43869591 C-54.67673246 46.8971644 -54.67673246 46.8971644 -35.48372895 25.68257672 C-11.38408833 0 -11.38408833 0 0 0 Z " fill="#FD816D" transform="translate(609,463)"/>
<path d="M0 0 C0 96.36 0 192.72 0 292 C-15.51 292 -31.02 292 -47 292 C-47 201.58 -47 111.16 -47 18 C-37.43 18 -27.86 18 -18 18 C-17.34 16.68 -16.68 15.36 -16 14 C-14.51953125 12.26074219 -14.51953125 12.26074219 -12.8125 10.546875 C-12.19632813 9.928125 -11.58015625 9.309375 -10.9453125 8.671875 C-9.98238281 7.72054687 -9.98238281 7.72054687 -9 6.75 C-8.35804688 6.1003125 -7.71609375 5.450625 -7.0546875 4.78125 C-6.43851563 4.16765625 -5.82234375 3.5540625 -5.1875 2.921875 C-4.62417969 2.36081055 -4.06085937 1.79974609 -3.48046875 1.22167969 C-2 0 -2 0 0 0 Z " fill="#FE826E" transform="translate(537,532)"/>
<path d="M0 0 C8.25 0 16.5 0 25 0 C25 15.84 25 31.68 25 48 C32.92 48 40.84 48 49 48 C49 95.85 49 143.7 49 193 C41.08 193 33.16 193 25 193 C25 208.84 25 224.68 25 241 C16.75 241 8.5 241 0 241 C0 225.16 0 209.32 0 193 C-7.92 193 -15.84 193 -24 193 C-24 145.15 -24 97.3 -24 48 C-16.08 48 -8.16 48 0 48 C0 32.16 0 16.32 0 0 Z " fill="#000100" transform="translate(83,310)"/>
<path d="M0 0 C15.51 0 31.02 0 47 0 C47 90.42 47 180.84 47 274 C31.49 274 15.98 274 0 274 C0 183.58 0 93.16 0 0 Z " fill="#FE826E" transform="translate(418,550)"/>
<path d="M0 0 C8.58 0 17.16 0 26 0 C26 15.84 26 31.68 26 48 C33.92 48 41.84 48 50 48 C50 87.93 50 127.86 50 169 C42.08 169 34.16 169 26 169 C26 184.84 26 200.68 26 217 C17.42 217 8.84 217 0 217 C0 201.16 0 185.32 0 169 C-7.92 169 -15.84 169 -24 169 C-24 129.07 -24 89.14 -24 48 C-16.08 48 -8.16 48 0 48 C0 32.16 0 16.32 0 0 Z " fill="#000000" transform="translate(178,274)"/>
<path d="M0 0 C0.66 0 1.32 0 2 0 C2 82.17 2 164.34 2 249 C-13.84 249 -29.68 249 -46 249 C-46.31679869 224.79866913 -46.57436137 200.59903298 -46.72537041 176.39615059 C-46.79736986 165.15673386 -46.89541449 153.91870271 -47.05615234 142.68017578 C-47.19628836 132.87737001 -47.28615323 123.07556818 -47.31723893 113.27178848 C-47.33539411 108.086585 -47.37763378 102.90425187 -47.48022079 97.71997452 C-48.19286473 60.28743143 -48.19286473 60.28743143 -39.15625 49.64331055 C-37.37289116 47.79417764 -35.56055843 46.07851999 -33.60361099 44.41542625 C-31.40403798 42.47397449 -29.78770152 40.23419598 -28.1328125 37.82421875 C-27.62782227 37.13199219 -27.12283203 36.43976562 -26.60253906 35.7265625 C-25.87115723 34.71722656 -25.87115723 34.71722656 -25.125 33.6875 C-19.24008109 25.63121357 -13.22271526 17.68210413 -7.15283203 9.7644043 C-6.50942871 8.92433838 -5.86602539 8.08427246 -5.203125 7.21875 C-4.63239258 6.47560547 -4.06166016 5.73246094 -3.47363281 4.96679688 C-2.2622123 3.34996393 -1.12067129 1.68100694 0 0 Z " fill="#FB806C" transform="translate(392,575)"/>
<path d="M0 0 C8.25 0 16.5 0 25 0 C25 15.84 25 31.68 25 48 C32.92 48 40.84 48 49 48 C49 80.34 49 112.68 49 146 C41.08 146 33.16 146 25 146 C25 161.51 25 177.02 25 193 C16.75 193 8.5 193 0 193 C0 177.49 0 161.98 0 146 C-7.92 146 -15.84 146 -24 146 C-24 113.66 -24 81.32 -24 48 C-16.08 48 -8.16 48 0 48 C0 32.16 0 16.32 0 0 Z " fill="#000000" transform="translate(274,214)"/>
<path d="M0 0 C7.92 0 15.84 0 24 0 C24 7.59 24 15.18 24 23 C35.88 23 47.76 23 60 23 C60 34.88 60 46.76 60 59 C52.08 59 44.16 59 36 59 C36 55.04 36 51.08 36 47 C30.55536877 47.09383349 25.11116658 47.1999934 19.66699219 47.31738281 C17.81647249 47.35557122 15.96588113 47.39044151 14.11523438 47.421875 C11.44895893 47.46774641 8.78317252 47.52570359 6.1171875 47.5859375 C4.88402298 47.60326431 4.88402298 47.60326431 3.62594604 47.62094116 C-0.92038436 47.73670135 -4.77070773 48.13280809 -9 50 C-11.40137717 53.82037277 -11.46514407 57.58113136 -11 62 C-9.24505919 65.10039543 -7.51174333 67.48825667 -5 70 C-2.27355366 70.16070133 0.36079 70.20418235 3.0859375 70.16796875 C4.75651609 70.17365508 6.42709004 70.18086833 8.09765625 70.18945312 C10.7221018 70.1935957 13.34498657 70.18788131 15.96923828 70.15454102 C31.70485579 69.98535693 40.24196144 73.31028941 52.16015625 84.0078125 C59.22491601 91.65755236 60.60511155 101.99764886 60.35546875 112.0546875 C59.8367357 116.35276132 58.5278005 118.48916597 56 122 C55.34374219 123.20270355 54.69794456 124.4111712 54.0625 125.625 C51.98821037 129.01929212 49.94019884 131.3398201 47 134 C46.0925 134.86625 45.185 135.7325 44.25 136.625 C38.03313979 141.6781915 31.86488229 142 24 142 C24 149.92 24 157.84 24 166 C16.08 166 8.16 166 0 166 C0 158.41 0 150.82 0 143 C-11.88 143 -23.76 143 -36 143 C-36 131.12 -36 119.24 -36 107 C-28.08 107 -20.16 107 -12 107 C-12 110.96 -12 114.92 -12 119 C-6.3581721 118.88180475 -0.71652232 118.75755997 4.92504883 118.62768555 C6.84460825 118.5843506 8.76420585 118.54267448 10.68383789 118.50268555 C13.44168614 118.44494822 16.19934241 118.38126365 18.95703125 118.31640625 C19.81649857 118.29969376 20.67596588 118.28298126 21.56147766 118.26576233 C22.76238289 118.2358445 22.76238289 118.2358445 23.98754883 118.20532227 C24.6914827 118.18977798 25.39541656 118.1742337 26.12068176 118.15821838 C28.22699083 118.05518396 28.22699083 118.05518396 31 117 C34.83134427 111.99796721 35.39551977 108.54684895 34.9453125 102.33203125 C33.51636181 98.80689256 31.27298418 97.82993339 28 96 C24.64742243 95.413801 24.64742243 95.413801 21.08984375 95.49609375 C20.4410878 95.48667252 19.79233185 95.47725128 19.12391663 95.46754456 C17.06145359 95.43908837 15.0001422 95.43580474 12.9375 95.4375 C-14.41596912 95.38843841 -14.41596912 95.38843841 -24 86 C-30 79.80645161 -30 79.80645161 -30 77 C-30.99 76.67 -31.98 76.34 -33 76 C-37.1134029 68.53493547 -37.25355742 58.29228231 -36 50 C-33.08888043 40.46167263 -26.83786314 32.57472677 -18.33984375 27.37109375 C-11.70572203 23.94167295 -7.63629512 23 0 23 C0 15.41 0 7.82 0 0 Z " fill="#050402" transform="translate(561,204)"/>
<path d="M0 0 C15.84 0 31.68 0 48 0 C48 59.07 48 118.14 48 179 C32.16 179 16.32 179 0 179 C0 119.93 0 60.86 0 0 Z " fill="#FB806D" transform="translate(203,645)"/>
<path d="M0 0 C15.51 0 31.02 0 47 0 C47 59.07 47 118.14 47 179 C31.49 179 15.98 179 0 179 C0 119.93 0 60.86 0 0 Z " fill="#FE826E" transform="translate(275,645)"/>
<path d="M0 0 C0.66 0 1.32 0 2 0 C2 52.14 2 104.28 2 158 C-13.84 158 -29.68 158 -46 158 C-46.20054405 131.74655602 -46.20054405 131.74655602 -46.24414062 120.56445312 C-46.27404181 112.93121996 -46.30943246 105.29828637 -46.37719727 97.6652832 C-46.43148365 91.51204837 -46.46141387 85.35913475 -46.47438622 79.20567894 C-46.48363202 76.85687388 -46.50168678 74.5080866 -46.52865028 72.15941811 C-46.56489427 68.87192277 -46.56994709 65.58575836 -46.56762695 62.2980957 C-46.58560333 61.3248938 -46.60357971 60.35169189 -46.62210083 59.34899902 C-46.58647958 54.69107026 -46.55662732 52.69450234 -43.55992126 48.95552063 C-42.71514725 48.31019882 -41.87037323 47.66487701 -41 47 C-34.43786414 40.17966109 -28.21248275 33.13738777 -22.28515625 25.7578125 C-18.86884654 21.63488146 -15.2274626 17.73166239 -11.58984375 13.8046875 C-5.42395071 7.19915069 -5.42395071 7.19915069 0 0 Z " fill="#FB806D" transform="translate(177,666)"/>
<path d="M0 0 C0.66 0 1.32 0 2 0 C2 25.41 2 50.82 2 77 C-20.44 77 -42.88 77 -66 77 C-62.38222237 72.17629649 -59.10155998 67.84673554 -55.0625 63.5 C-50.01473299 58.01720997 -45.08854549 52.4524963 -40.25390625 46.78125 C-39.2319362 45.58319225 -38.20979569 44.3852799 -37.1875 43.1875 C-36.67034424 42.58147949 -36.15318848 41.97545898 -35.62036133 41.35107422 C-32.4152347 37.60967738 -29.14806271 33.93901522 -25.8125 30.3125 C-21.81688907 25.96059256 -18.08385968 21.45127212 -14.37890625 16.8515625 C-11.22759966 13.07413424 -7.9069504 9.46955911 -4.54125977 5.88305664 C-1.96899968 3.16085026 -1.96899968 3.16085026 0 0 Z " fill="#FD816D" transform="translate(106,747)"/>
<path d="M0 0 C7.59 0 15.18 0 23 0 C23 31.68 23 63.36 23 96 C15.08 96 7.16 96 -1 96 C-1.02254936 83.6308096 -1.04091412 71.26163275 -1.05181217 58.89242649 C-1.05704141 53.14954938 -1.0641398 47.40668699 -1.07543945 41.66381836 C-1.08626687 36.12660005 -1.09227652 30.58939596 -1.09487724 25.05216789 C-1.09673176 22.93455723 -1.10035286 20.81694738 -1.10573006 18.69934273 C-1.11293856 15.74428726 -1.11399102 12.78929129 -1.11352539 9.83422852 C-1.11712067 8.94950363 -1.12071594 8.06477875 -1.12442017 7.15324402 C-1.11405216 1.11405216 -1.11405216 1.11405216 0 0 Z " fill="#B4DD7F" transform="translate(84,382)"/>
<path d="M0 0 C7.92 0 15.84 0 24 0 C24 23.43 24 46.86 24 71 C16.08 71 8.16 71 0 71 C0 47.57 0 24.14 0 0 Z " fill="#B4DD7F" transform="translate(179,347)"/>
<path d="M0 0 C8.25 0 16.5 0 25 0 C25 15.84 25 31.68 25 48 C16.75 48 8.5 48 0 48 C0 32.16 0 16.32 0 0 Z " fill="#B5DE7F" transform="translate(274,287)"/>
<path d="M0 0 C7.59 0 15.18 0 23 0 C23 31.68 23 63.36 23 96 C15.08 96 7.16 96 -1 96 C-1.02254936 83.6308096 -1.04091412 71.26163275 -1.05181217 58.89242649 C-1.05704141 53.14954938 -1.0641398 47.40668699 -1.07543945 41.66381836 C-1.08626687 36.12660005 -1.09227652 30.58939596 -1.09487724 25.05216789 C-1.09673176 22.93455723 -1.10035286 20.81694738 -1.10573006 18.69934273 C-1.11293856 15.74428726 -1.11399102 12.78929129 -1.11352539 9.83422852 C-1.11712067 8.94950363 -1.12071594 8.06477875 -1.12442017 7.15324402 C-1.11405216 1.11405216 -1.11405216 1.11405216 0 0 Z M2 3 C2 33.03 2 63.06 2 94 C8.27 94 14.54 94 21 94 C21 63.97 21 33.94 21 3 C14.73 3 8.46 3 2 3 Z " fill="#A3C873" transform="translate(84,382)"/>
<path d="M0 0 C0 119.13 0 238.26 0 361 C-0.33 361 -0.66 361 -1 361 C-1 242.2 -1 123.4 -1 1 C-1.99 1 -2.98 1 -4 1 C-4.26414703 1.58848221 -4.52829407 2.17696442 -4.80044556 2.78327942 C-6.04654979 5.08602184 -7.3537816 6.61356728 -9.19287109 8.4675293 C-10.16430557 9.4532618 -10.16430557 9.4532618 -11.15536499 10.45890808 C-11.85432892 11.1569606 -12.55329285 11.85501312 -13.2734375 12.57421875 C-13.99359039 13.29865677 -14.71374329 14.02309479 -15.45571899 14.76948547 C-16.97801719 16.29752069 -18.50293515 17.82294983 -20.03027344 19.34594727 C-22.36803329 21.68054272 -24.69215137 24.0281495 -27.015625 26.37695312 C-28.49658468 27.86018535 -29.97832941 29.34263423 -31.4609375 30.82421875 C-32.15585297 31.52834396 -32.85076843 32.23246918 -33.56674194 32.95793152 C-34.22066925 33.60563004 -34.87459656 34.25332855 -35.54833984 34.9206543 C-36.11966644 35.49261032 -36.69099304 36.06456635 -37.27963257 36.65385437 C-39.18191583 38.14234471 -40.63972666 38.59317812 -43 39 C-36.75073194 31.56113977 -29.98840971 24.69468183 -23.15014648 17.80004883 C-21.6678883 16.30110849 -20.19103337 14.79680682 -18.71948242 13.28735352 C-16.58405758 11.09737489 -14.43283691 8.92411332 -12.27734375 6.75390625 C-11.29434547 5.73690392 -11.29434547 5.73690392 -10.29148865 4.69935608 C-9.36010826 3.77225075 -9.36010826 3.77225075 -8.40991211 2.82641602 C-7.87063583 2.27905289 -7.33135956 1.73168976 -6.77574158 1.16773987 C-5 0 -5 0 0 0 Z " fill="#B45C4E" transform="translate(609,463)"/>
<path d="M0 0 C-2 2 -2 2 -7 3 C-7.33 124.11 -7.66 245.22 -8 370 C7.18 370 22.36 370 38 370 C38 370.33 38 370.66 38 371 C22.49 371 6.98 371 -9 371 C-9.11294357 324.04267152 -9.20250024 277.08537553 -9.25532665 230.12793825 C-9.26158046 224.58895405 -9.26805205 219.04997012 -9.2746582 213.51098633 C-9.27596976 212.40823641 -9.27728131 211.30548649 -9.2786326 210.16931991 C-9.30041164 192.29459166 -9.33984688 174.41994351 -9.38576398 156.54526284 C-9.43245918 138.2153222 -9.46028069 119.88542362 -9.47044247 101.55542594 C-9.47731605 90.23736254 -9.49905474 78.91952548 -9.53958233 67.60153172 C-9.56593513 59.84894618 -9.57401799 52.09647829 -9.56750689 44.34385117 C-9.56429232 39.8654598 -9.56934986 35.38746498 -9.59602737 30.90914345 C-9.62024647 26.81378867 -9.62166236 22.71909944 -9.60449447 18.6237149 C-9.60237075 17.13778993 -9.60880976 15.65182448 -9.62441591 14.16597994 C-9.6443217 12.15473389 -9.63074454 10.14323803 -9.61523914 8.13195324 C-9.61713775 7.01215799 -9.61903635 5.89236273 -9.62099248 4.73863429 C-9 2 -9 2 -6.6060788 0.09722167 C-3.78512171 -1.09046891 -2.78188459 -1.13336039 0 0 Z " fill="#F07A67" transform="translate(642,453)"/>
<path d="M0 0 C7.92 0 15.84 0 24 0 C24 23.43 24 46.86 24 71 C16.08 71 8.16 71 0 71 C0 47.57 0 24.14 0 0 Z M2 2 C2 24.11 2 46.22 2 69 C8.6 69 15.2 69 22 69 C22 46.89 22 24.78 22 2 C15.4 2 8.8 2 2 2 Z " fill="#ABD178" transform="translate(179,347)"/>
<path d="M0 0 C8.25 0 16.5 0 25 0 C25 15.84 25 31.68 25 48 C16.75 48 8.5 48 0 48 C0 32.16 0 16.32 0 0 Z M2 2 C1.67 16.85 1.34 31.7 1 47 C8.59 47 16.18 47 24 47 C23.67 32.15 23.34 17.3 23 2 C16.07 2 9.14 2 2 2 Z " fill="#88A660" transform="translate(274,287)"/>
<path d="M0 0 C0.66 0 1.32 0 2 0 C2 25.41 2 50.82 2 77 C-20.44 77 -42.88 77 -66 77 C-64.68 75.02 -63.36 73.04 -62 71 C-61.34 72.32 -60.68 73.64 -60 75 C-29.805 75.495 -29.805 75.495 1 76 C0.67 50.92 0.34 25.84 0 0 Z " fill="#AB574A" transform="translate(106,747)"/>
<path d="M0 0 C0.99 0.33 1.98 0.66 3 1 C-1.90073835 5.97673437 -6.81314634 10.94172384 -11.73388672 15.89868164 C-13.40685403 17.58674559 -15.07712027 19.2774909 -16.74462891 20.97094727 C-19.14042254 23.40308399 -21.54572934 25.82544733 -23.953125 28.24609375 C-24.69806213 29.00651474 -25.44299927 29.76693573 -26.21051025 30.55039978 C-26.91093445 31.25105057 -27.61135864 31.95170135 -28.33300781 32.67358398 C-28.94589661 33.29313461 -29.5587854 33.91268524 -30.19024658 34.55101013 C-32.14281235 36.11434356 -33.5546485 36.59663458 -36 37 C-31.82222235 32.01407125 -27.46872723 27.33295716 -22.8515625 22.75390625 C-22.19417084 22.09792953 -21.53677917 21.44195282 -20.85946655 20.76609802 C-18.78367138 18.69584732 -16.70440573 16.62912349 -14.625 14.5625 C-13.2067992 13.14932138 -11.78882824 11.73591206 -10.37109375 10.32226562 C-6.91671223 6.87883935 -3.4592163 3.43856901 0 0 Z " fill="#CD6A59" transform="translate(602,465)"/>
<path d="M0 0 C0.99257813 0.15597656 1.98515625 0.31195313 3.0078125 0.47265625 C10.62861613 1.42819553 18.3709583 1.33775318 26.04394531 1.47680664 C28.13115162 1.51636218 30.21779151 1.56786385 32.3046875 1.62109375 C33.54202637 1.6461499 34.77936523 1.67120605 36.05419922 1.69702148 C39 2 39 2 41 4 C35.64268551 3.93119464 30.28615689 3.84326391 24.92944336 3.73754883 C23.10694081 3.7042826 21.28433481 3.67625594 19.46166992 3.65356445 C16.8424875 3.62004919 14.22425452 3.56773648 11.60546875 3.51171875 C10.78974899 3.50532883 9.97402924 3.4989389 9.1335907 3.49235535 C3.39055578 3.34288884 3.39055578 3.34288884 1.26069641 1.47297668 C0.63665169 0.74385323 0.63665169 0.74385323 0 0 Z " fill="#BFA355" transform="translate(550,297)"/>
<path d="M0 0 C0.33 0.99 0.66 1.98 1 3 C-3.62 7.95 -8.24 12.9 -13 18 C-13.66 17.67 -14.32 17.34 -15 17 C-13.06402271 14.72785301 -11.12628828 12.45724637 -9.1875 10.1875 C-8.64029297 9.54490234 -8.09308594 8.90230469 -7.52929688 8.24023438 C-6.73168945 7.30727539 -6.73168945 7.30727539 -5.91796875 6.35546875 C-5.43094482 5.78465576 -4.9439209 5.21384277 -4.44213867 4.62573242 C-3.01735855 3.01956841 -1.53368638 1.50185891 0 0 Z " fill="#CD6959" transform="translate(168,677)"/>
<path d="M0 0 C1.04176789 2.70859653 1.05149881 3.85185874 0.08203125 6.640625 C-1.35928074 11.11545644 -1.71727478 15.59820531 -2.12304688 20.25390625 C-2.55187861 24.34132947 -3.13233498 26.98387276 -6 30 C-6.18404685 24.66264137 -5.75443544 21.06836904 -4 16 C-3.46411208 12.94131663 -3.0005474 9.87884161 -2.5625 6.8046875 C-2.03860543 4.19249099 -1.31823486 2.29592571 0 0 Z " fill="#957418" transform="translate(425,237)"/>
<path d="M0 0 C2.125 0.375 2.125 0.375 4 1 C1.76175998 2.87018719 -0.48863527 4.72065432 -2.75 6.5625 C-3.38421875 7.09552734 -4.0184375 7.62855469 -4.671875 8.17773438 C-5.6 8.92700195 -5.6 8.92700195 -6.546875 9.69140625 C-7.11245117 10.15748291 -7.67802734 10.62355957 -8.26074219 11.10375977 C-10 12 -10 12 -12.21582031 11.64428711 C-12.80459961 11.43167236 -13.39337891 11.21905762 -14 11 C-13.15695312 10.37351562 -12.31390625 9.74703125 -11.4453125 9.1015625 C-10.33847821 8.27612676 -9.23171086 7.45060124 -8.125 6.625 C-7.56941406 6.2125 -7.01382813 5.8 -6.44140625 5.375 C-4.1649876 3.6745427 -2.0120881 2.0120881 0 0 Z " fill="#D1A522" transform="translate(659,385)"/>
<path d="M0 0 C-1.39750048 3.15835107 -3.05198234 5.32272825 -5.5 7.75 C-6.41265625 8.67039063 -6.41265625 8.67039063 -7.34375 9.609375 C-9 11 -9 11 -11 11 C-9.60249952 7.84164893 -7.94801766 5.67727175 -5.5 3.25 C-4.8915625 2.63640625 -4.283125 2.0228125 -3.65625 1.390625 C-2 0 -2 0 0 0 Z " fill="#342D17" transform="translate(542,233)"/>
<path d="M0 0 C0.66 0.33 1.32 0.66 2 1 C-1.67832017 5.52615993 -5.41086363 9.39424999 -10 13 C-10.66 12.67 -11.32 12.34 -12 12 C-8.57833482 7.29521038 -4.42094803 3.72346836 0 0 Z " fill="#C5A958" transform="translate(506,202)"/>
<path d="M0 0 C0 3.8445159 -1.01662434 5.85272839 -3.5 8.75 C-5 10 -5 10 -7 10 C-5.33248852 6.05860922 -2.77289351 3.2107188 0 0 Z " fill="#C59B20" transform="translate(678,365)"/>
<path d="M0 0 C0.33 0.99 0.66 1.98 1 3 C0.01 3.33 -0.98 3.66 -2 4 C-2.35412344 5.32796291 -2.68521554 6.66216607 -3 8 C-4.5625 9.75 -4.5625 9.75 -6 11 C-5.55530671 5.96014269 -3.28656638 3.62365012 0 0 Z " fill="#CFB25C" transform="translate(491,217)"/>
<path d="M0 0 C0.33 1.32 0.66 2.64 1 4 C-1.31 5.65 -3.62 7.3 -6 9 C-6 6 -6 6 -4.6875 4.39453125 C-4.130625 3.87246094 -3.57375 3.35039063 -3 2.8125 C-2.443125 2.28269531 -1.88625 1.75289062 -1.3125 1.20703125 C-0.6628125 0.60955078 -0.6628125 0.60955078 0 0 Z " fill="#CB6858" transform="translate(106,748)"/>
<path d="M0 0 C0.33 0.99 0.66 1.98 1 3 C-1.31 4.98 -3.62 6.96 -6 9 C-6 6 -6 6 -4.6875 4.39453125 C-4.130625 3.87246094 -3.57375 3.35039063 -3 2.8125 C-2.443125 2.28269531 -1.88625 1.75289062 -1.3125 1.20703125 C-0.6628125 0.60955078 -0.6628125 0.60955078 0 0 Z " fill="#C76656" transform="translate(64,796)"/>
<path d="M0 0 C0.33 0.99 0.66 1.98 1 3 C-1.31 4.98 -3.62 6.96 -6 9 C-6 6 -6 6 -4.6875 4.39453125 C-4.130625 3.87246094 -3.57375 3.35039063 -3 2.8125 C-2.443125 2.28269531 -1.88625 1.75289062 -1.3125 1.20703125 C-0.6628125 0.60955078 -0.6628125 0.60955078 0 0 Z " fill="#C76656" transform="translate(85,772)"/>
<path d="M0 0 C0.33 0.66 0.66 1.32 1 2 C-1.20979308 4.81939117 -3.40062046 7.53058944 -6 10 C-6.66 9.67 -7.32 9.34 -8 9 C-6.85459775 7.68712379 -5.70866567 6.37470979 -4.5625 5.0625 C-3.92441406 4.33160156 -3.28632813 3.60070312 -2.62890625 2.84765625 C-1.77458541 1.87860647 -0.91348825 0.91348825 0 0 Z " fill="#B95F50" transform="translate(147,701)"/>
<path d="M0 0 C0.33 0.99 0.66 1.98 1 3 C-1.31 4.98 -3.62 6.96 -6 9 C-6 6 -6 6 -4.6875 4.39453125 C-4.130625 3.87246094 -3.57375 3.35039063 -3 2.8125 C-2.443125 2.28269531 -1.88625 1.75289062 -1.3125 1.20703125 C-0.6628125 0.60955078 -0.6628125 0.60955078 0 0 Z " fill="#BE6252" transform="translate(168,677)"/>
<path d="M0 0 C0.33 0.99 0.66 1.98 1 3 C-1.31 4.98 -3.62 6.96 -6 9 C-6 6 -6 6 -4.6875 4.39453125 C-4.130625 3.87246094 -3.57375 3.35039063 -3 2.8125 C-2.443125 2.28269531 -1.88625 1.75289062 -1.3125 1.20703125 C-0.6628125 0.60955078 -0.6628125 0.60955078 0 0 Z " fill="#C56555" transform="translate(176,668)"/>
<path d="M0 0 C0.33 0.99 0.66 1.98 1 3 C-0.65 4.65 -2.3 6.3 -4 8 C-4.66 7.67 -5.32 7.34 -6 7 C-4.02 4.69 -2.04 2.38 0 0 Z " fill="#C86757" transform="translate(77,781)"/>
<path d="M0 0 C0.33 0.99 0.66 1.98 1 3 C-0.65 4.65 -2.3 6.3 -4 8 C-4.66 7.67 -5.32 7.34 -6 7 C-4.02 4.69 -2.04 2.38 0 0 Z " fill="#C86757" transform="translate(98,757)"/>
<path d="M0 0 C0.33 0.99 0.66 1.98 1 3 C-1.97 5.475 -1.97 5.475 -5 8 C-4.45773019 4.20411134 -2.79872437 2.52788007 0 0 Z " fill="#EBCB6A" transform="translate(650,358)"/>
<path d="M0 0 C0.33 0.66 0.66 1.32 1 2 C-2.625 6.875 -2.625 6.875 -6 8 C-4.55746343 4.63408134 -2.66735273 2.48952921 0 0 Z " fill="#B9921E" transform="translate(460,180)"/>
</svg>
