<?xml version="1.0" encoding="UTF-8"?>
<svg version="1.1" xmlns="http://www.w3.org/2000/svg" width="2500" height="1000">
<path d="M0 0 C825 0 1650 0 2500 0 C2500 330 2500 660 2500 1000 C1675 1000 850 1000 0 1000 C0 670 0 340 0 0 Z " fill="#343434" transform="translate(0,0)"/>
<path d="M0 0 C8.8072672 0.11915051 16.54342113 1.4445425 24.90527344 4.31469727 C25.64793457 4.56670898 26.3905957 4.8187207 27.15576172 5.07836914 C36.82040778 8.43194302 45.58409873 12.26983175 53.90527344 18.31469727 C54.87722656 18.99274414 55.84917969 19.67079102 56.85058594 20.36938477 C84.19695037 40.02239859 101.58237225 70.79298349 107.32714844 103.65844727 C107.51792969 104.86500977 107.70871094 106.07157227 107.90527344 107.31469727 C108.08832031 108.35110352 108.27136719 109.38750977 108.45996094 110.45532227 C112.44762368 145.015066 104.92529471 179.16999723 85.90527344 208.31469727 C85.40064508 208.87126684 84.89601673 209.42783641 84.37609661 210.00127172 C78.99053983 215.9849316 79.05803738 221.48516106 79.14578247 229.27331543 C79.13196785 231.21449249 79.13196785 231.21449249 79.11787415 233.19488525 C79.09317858 236.77853782 79.10570668 240.36123479 79.1243383 243.94488823 C79.13805749 247.87175698 79.1168403 251.79846805 79.10009575 255.72530365 C79.07281576 263.34318554 79.07625944 270.96074289 79.09051716 278.57864794 C79.10568283 287.39280488 79.08250078 296.206588 79.05932617 305.02075195 C79.01705885 328.28536401 79.02684988 351.55004706 79.03027344 374.81469727 C78.98902344 426.78969727 78.94777344 478.76469727 78.90527344 532.31469727 C-64.31472656 532.31469727 -207.53472656 532.31469727 -355.09472656 532.31469727 C-355.09472656 508.46892461 -355.09472656 508.46892461 -347.84667969 500.09887695 C-347.34072266 499.60806641 -346.83476562 499.11725586 -346.31347656 498.61157227 C-343.46178437 495.73656016 -341.03707226 492.72530513 -338.65722656 489.43969727 C-335.09068946 484.63933111 -331.48098028 479.87499068 -327.84472656 475.12719727 C-327.29308838 474.40677246 -326.7414502 473.68634766 -326.1730957 472.9440918 C-325.04360674 471.46936775 -323.91396692 469.99475923 -322.78417969 468.52026367 C-320.05205833 464.95350293 -317.32354897 461.38398213 -314.59472656 457.81469727 C-313.51531152 456.40322972 -312.43588442 454.99177141 -311.35644531 453.58032227 C-309.15020797 450.6952937 -306.94454374 447.80982814 -304.73925781 444.92407227 C-299.0637094 437.49812107 -293.37852192 430.07991773 -287.67675781 422.67407227 C-283.59045345 417.36171716 -279.52329588 412.03469215 -275.45410156 406.70922852 C-273.23782287 403.80888936 -271.0190032 400.91052488 -268.79785156 398.01391602 C-267.97667847 396.94222168 -267.97667847 396.94222168 -267.13891602 395.84887695 C-266.13027598 394.53263313 -265.12108253 393.21681301 -264.11108398 391.90161133 C-263.63002197 391.27351563 -263.14895996 390.64541992 -262.65332031 389.99829102 C-262.1372522 389.35526535 -261.62118408 388.71223969 -261.08947754 388.04972839 C-259.49313728 385.86096381 -258.1899252 383.75889985 -256.86323547 381.4122467 C-250.40987917 370.66068069 -250.40987917 370.66068069 -244.87890434 368.41505241 C-238.64989001 367.07180471 -232.34052531 367.47588391 -226.01660156 367.75219727 C-223.99360156 367.78209157 -221.97048459 367.80484233 -219.94732666 367.82080078 C-214.65708764 367.88150043 -209.37403413 368.03825847 -204.08660889 368.21606445 C-198.67754338 368.38063284 -193.26729994 368.4530005 -187.85644531 368.53344727 C-177.26607164 368.70433861 -166.68099954 368.97688027 -156.09472656 369.31469727 C-155.64472038 368.15288689 -155.64472038 368.15288689 -155.18562317 366.96760559 C-154.02329964 364.14099696 -152.60356382 361.81246596 -150.91894531 359.26391602 C-150.26563232 358.27037109 -149.61231934 357.27682617 -148.93920898 356.25317383 C-148.22740479 355.18035156 -147.51560059 354.1075293 -146.78222656 353.00219727 C-146.03609334 351.87065554 -145.29041674 350.7388126 -144.54516602 349.60668945 C-142.93482483 347.16148564 -141.32213429 344.71785305 -139.70800781 342.27514648 C-136.94239823 338.08725713 -134.18956935 333.8910389 -131.43847656 329.69360352 C-130.96698685 328.97432175 -130.49549713 328.25503998 -130.00971985 327.51396179 C-129.06567529 326.07374285 -128.12164946 324.63351162 -127.17764282 323.19326782 C-124.94675268 319.79026386 -122.71449382 316.38816022 -120.48144531 312.98657227 C-120.09666016 312.40005386 -119.711875 311.81353546 -119.31542969 311.20924377 C-118.24349309 309.57665613 -117.16915202 307.94564803 -116.09472656 306.31469727 C-115.52822388 305.27124146 -114.96172119 304.22778564 -114.37805176 303.15270996 C-112.09472656 300.31469727 -112.09472656 300.31469727 -109.05476379 299.62249756 C-107.27013985 299.6610788 -107.27013985 299.6610788 -105.44946289 299.70043945 C-104.46077713 299.70858925 -104.46077713 299.70858925 -103.45211792 299.71690369 C-102.02400869 299.73189906 -100.59599108 299.76036075 -99.16837502 299.80077362 C-96.90072633 299.86227831 -94.63602778 299.88275434 -92.36759949 299.89190674 C-85.9219379 299.92506451 -79.47817426 300.03005305 -73.03393555 300.16674805 C-69.08671231 300.24762699 -65.14143644 300.2791351 -61.19342613 300.28202057 C-59.69619876 300.29328391 -58.19898005 300.32352452 -56.7025547 300.37380219 C-47.94416593 300.74729697 -47.94416593 300.74729697 -40.19889832 297.12471008 C-37.92788408 294.62435666 -35.9847115 292.10960921 -34.09472656 289.31469727 C-33.29421875 288.34918945 -32.49371094 287.38368164 -31.66894531 286.38891602 C-31.04632813 285.60129883 -30.42371094 284.81368164 -29.78222656 284.00219727 C-25.83949537 279.11874424 -21.64199659 274.54359828 -17.35229492 269.96899414 C-13.61320935 265.95246709 -10.26295087 261.80301503 -7.09472656 257.31469727 C-7.98611328 257.3669043 -7.98611328 257.3669043 -8.89550781 257.42016602 C-15.75795606 257.64428952 -21.57522884 256.3969703 -28.09472656 254.31469727 C-28.330625 254.8702832 -28.56652344 255.42586914 -28.80957031 255.99829102 C-30.40750177 258.87845318 -32.39973156 260.97838803 -34.65722656 263.37719727 C-39.0355462 268.10451339 -43.15505215 272.97078438 -47.18457031 278.00219727 C-47.81492187 278.76532227 -48.44527344 279.52844727 -49.09472656 280.31469727 C-49.50660721 280.85036819 -49.91848785 281.38603912 -50.34284973 281.9379425 C-52.89475249 283.94341698 -54.81843947 283.67516914 -58.03491211 283.65527344 C-59.25595139 283.65504684 -60.47699066 283.65482025 -61.73503113 283.65458679 C-63.71325615 283.63136101 -63.71325615 283.63136101 -65.73144531 283.60766602 C-67.09478794 283.60206969 -68.45813661 283.59779976 -69.82148743 283.59480286 C-73.40716249 283.58335676 -76.99247211 283.55389212 -80.57800293 283.52069092 C-84.23782406 283.48998466 -87.89770433 283.47629636 -91.55761719 283.46118164 C-98.73682012 283.42902175 -105.91572211 283.37782879 -113.09472656 283.31469727 C-113.53582764 284.48005005 -113.53582764 284.48005005 -113.98583984 285.66894531 C-115.25161282 288.68902056 -116.83641406 290.64614702 -118.96972656 293.12719727 C-122.72688895 297.60942608 -126.29680857 302.18103695 -129.78222656 306.87719727 C-134.14753284 312.74795114 -138.58810106 318.55172052 -143.09472656 324.31469727 C-147.73425549 330.25252265 -152.32429238 336.22310961 -156.84472656 342.25219727 C-157.34617188 342.92057617 -157.84761719 343.58895508 -158.36425781 344.27758789 C-160.33897139 346.92062376 -162.26419021 349.56889273 -164.09472656 352.31469727 C-166.97059783 352.56188364 -169.62804327 352.61675133 -172.50073242 352.54077148 C-173.37093018 352.53008133 -174.24112793 352.51939117 -175.13769531 352.50837708 C-177.0328111 352.48463591 -178.92785809 352.45482158 -180.82279778 352.41973495 C-183.82962014 352.36904677 -186.83546514 352.34515884 -189.84266663 352.33035278 C-198.39444217 352.2881378 -206.94492931 352.23553494 -215.49536133 352.0715332 C-220.7243684 351.9732127 -225.95050862 351.93907628 -231.18039131 351.94592667 C-233.1671803 351.93664017 -235.15401145 351.9039445 -237.13999748 351.84670639 C-248.74866925 351.19056986 -248.74866925 351.19056986 -258.72302246 356.1633606 C-261.60446193 359.30164252 -263.84656092 362.70374502 -266.09472656 366.31469727 C-267.12913484 367.64581116 -268.17729276 368.96686227 -269.25878906 370.26000977 C-270.08140641 371.31811773 -270.90180453 372.37795562 -271.71972656 373.43969727 C-275.63309456 378.4660032 -279.61098657 383.42933667 -283.65722656 388.34985352 C-290.70026274 396.91662348 -297.71242785 405.50624404 -304.53222656 414.25219727 C-309.28434785 420.34450282 -314.17874723 426.31247507 -319.10302734 432.26611328 C-322.23342363 436.05159803 -325.34593675 439.84783953 -328.40722656 443.68969727 C-329.00535156 444.43735352 -329.60347656 445.18500977 -330.21972656 445.95532227 C-331.64588416 447.74990391 -333.06049123 449.55367167 -334.46972656 451.36157227 C-335.27410156 452.37735352 -336.07847656 453.39313477 -336.90722656 454.43969727 C-337.63554687 455.37040039 -338.36386719 456.30110352 -339.11425781 457.26000977 C-339.7678125 457.93805664 -340.42136719 458.61610352 -341.09472656 459.31469727 C-344.09472656 459.31469727 -344.09472656 459.31469727 -346.10253906 457.67016602 C-346.80121094 456.95473633 -347.49988281 456.23930664 -348.21972656 455.50219727 C-348.92355469 454.79450195 -349.62738281 454.08680664 -350.35253906 453.35766602 C-352.09472656 451.31469727 -352.09472656 451.31469727 -353.09472656 448.31469727 C-352.1418457 446.6640625 -352.1418457 446.6640625 -350.62988281 444.87329102 C-350.08138672 444.21264648 -349.53289062 443.55200195 -348.96777344 442.87133789 C-348.37029297 442.17202148 -347.7728125 441.47270508 -347.15722656 440.75219727 C-345.93952434 439.292774 -344.7220754 437.83313936 -343.50488281 436.37329102 C-342.9120752 435.66930176 -342.31926758 434.9653125 -341.70849609 434.23999023 C-339.7986128 431.96142145 -337.9398105 429.64595883 -336.09472656 427.31469727 C-333.24257254 423.73599454 -330.36132547 420.18226423 -327.4699707 416.63525391 C-322.81317023 410.92220244 -318.18845182 405.19046458 -313.65722656 399.37719727 C-308.97401058 393.37179322 -304.14391199 387.49619656 -299.28637695 381.63134766 C-295.2052034 376.69297698 -291.22127185 371.69007277 -287.28710938 366.63427734 C-283.00321455 361.15073505 -278.57698816 355.78774961 -274.12792969 350.43774414 C-273.57556641 349.77194336 -273.02320313 349.10614258 -272.45410156 348.42016602 C-271.64665245 347.48776596 -271.64665245 347.48776596 -270.82289124 346.53652954 C-269.03310831 344.39178118 -269.03310831 344.39178118 -267.94444275 341.96383667 C-266.29310788 338.94852088 -264.92047005 337.31329546 -262.09472656 335.31469727 C-256.51000914 333.93293153 -250.56769774 334.44029805 -244.86857033 334.66697502 C-241.88550706 334.78111944 -238.90728002 334.83211135 -235.92228699 334.86585999 C-227.44384469 334.97207063 -218.96956832 335.18367374 -210.49487305 335.45458984 C-205.29930851 335.61629679 -200.10712487 335.6986022 -194.90924644 335.73446846 C-192.93957442 335.76423493 -190.97009995 335.82434004 -189.00235939 335.91648674 C-178.48083801 336.67258916 -178.48083801 336.67258916 -169.0974369 332.74815559 C-165.48756923 328.9507214 -162.74883585 324.71379308 -160.17201614 320.17015076 C-158.81491226 317.83276332 -157.22568615 315.73718085 -155.53613281 313.63110352 C-155.0553125 313.00333008 -154.57449219 312.37555664 -154.07910156 311.72875977 C-153.60988281 311.11774414 -153.14066406 310.50672852 -152.65722656 309.87719727 C-151.56475734 308.45143234 -150.47231007 307.02565059 -149.37988281 305.59985352 C-148.83734863 304.89231934 -148.29481445 304.18478516 -147.73583984 303.45581055 C-145.01897221 299.91119151 -142.30714931 296.36271792 -139.59472656 292.81469727 C-138.80352417 291.78034546 -138.80352417 291.78034546 -137.99633789 290.72509766 C-135.13615148 286.98592501 -132.2781639 283.24509352 -129.42285156 279.50219727 C-128.82408203 278.71780273 -128.2253125 277.9334082 -127.60839844 277.12524414 C-126.45284677 275.61138188 -125.29787715 274.09707513 -124.14355469 272.58227539 C-123.62728516 271.90616211 -123.11101562 271.23004883 -122.57910156 270.53344727 C-122.12245117 269.93467773 -121.66580078 269.3359082 -121.1953125 268.71899414 C-120.09472656 267.31469727 -120.09472656 267.31469727 -119.09472656 266.31469727 C-117.25449578 266.26468484 -115.41233221 266.2845642 -113.57202148 266.33154297 C-107.6385336 266.4582078 -101.70864262 266.53383831 -95.77410412 266.56678486 C-92.18337716 266.59053249 -88.5964379 266.63890118 -85.00708008 266.74316406 C-68.31165891 268.01694589 -68.31165891 268.01694589 -53.53857422 262.21459961 C-50.38536381 258.90392898 -48.20086331 255.35784747 -46.09472656 251.31469727 C-45.43472656 250.32469727 -44.77472656 249.33469727 -44.09472656 248.31469727 C-44.81660156 248.2102832 -45.53847656 248.10586914 -46.28222656 247.99829102 C-66.01832506 243.20132263 -85.19085748 219.91899275 -95.44238281 203.66625977 C-108.31431387 182.35088967 -115.32855674 158.38185968 -115.28222656 133.56469727 C-115.28032318 132.52591934 -115.28032318 132.52591934 -115.27838135 131.46615601 C-115.14659478 93.74960371 -104.59303658 60.99175773 -78.09472656 33.31469727 C-77.41152344 32.56833008 -76.72832031 31.82196289 -76.02441406 31.05297852 C-60.63525675 14.78362954 -39.94066112 4.3472209 -17.69238281 1.77954102 C-3.94173917 0.00285633 -3.94173917 0.00285633 0 0 Z " fill="#040201" transform="translate(386.0947265625,233.685302734375)"/>
<path d="M0 0 C16.86018274 15.09913224 27.87492588 34.7063211 34.09960938 56.37744141 C34.31230469 57.10189453 34.525 57.82634766 34.74414062 58.57275391 C43.06202776 89.09162038 36.40851642 123.34742219 21.09960938 150.37744141 C7.32506153 174.03623592 -14.24381183 190.93178299 -40.63867188 198.12353516 C-62.92402105 202.79991089 -86.48967922 199.25633186 -105.90039062 187.37744141 C-131.20956302 170.35454609 -148.75423759 144.71997681 -155.46459961 114.86743164 C-157.03703136 106.68505335 -157.24015503 98.64307284 -157.21606445 90.3425293 C-157.21290922 88.07828313 -157.23643953 85.81535501 -157.26171875 83.55126953 C-157.31992678 70.5035312 -155.4567808 58.20570672 -150.77539062 45.93994141 C-150.47753662 45.14918213 -150.17968262 44.35842285 -149.87280273 43.54370117 C-145.07939233 31.2709494 -138.58193352 20.29920472 -129.90039062 10.37744141 C-129.31128906 9.64525391 -128.7221875 8.91306641 -128.11523438 8.15869141 C-113.94171701 -8.93378813 -93.03753725 -20.29577296 -70.95898438 -22.46142578 C-43.83565328 -24.58445692 -20.83097408 -17.78554133 0 0 Z " fill="#F8D46E" transform="translate(442.900390625,274.62255859375)"/>
<path d="M0 0 C1.5015564 -0.03915527 1.5015564 -0.03915527 3.03344727 -0.07910156 C10.14303519 -0.09544142 16.66671374 0.68873154 22.875 4.375 C25.50181812 7.07887719 27.14664005 10.04275687 28.875 13.375 C29.38820801 14.29700195 29.90141602 15.21900391 30.43017578 16.16894531 C32.13687149 19.26045322 33.79047638 22.37632643 35.4375 25.5 C40.23023568 34.49767085 45.10139558 43.44146661 50.125 52.3125 C50.67357666 53.28268066 51.22215332 54.25286133 51.78735352 55.25244141 C53.74200894 58.69345261 55.67898361 62.08097541 57.875 65.375 C61.45857241 65.62515873 61.45857241 65.62515873 64.875 65.375 C67.15145215 61.16968799 69.42113617 56.96075519 71.6875 52.75 C72.1971228 51.80427628 72.1971228 51.80427628 72.71704102 50.83944702 C77.73312071 41.5203839 82.5956443 32.14599037 87.10864258 22.56982422 C90.68774399 15.17354691 95.0583229 6.87193449 102.875 3.375 C104.050625 2.818125 104.050625 2.818125 105.25 2.25 C118.34909881 -2.11636627 137.39435455 -1.652144 149.875 4.375 C152.88470098 6.27020644 155.2511073 8.1272146 156.875 11.375 C157.16314021 14.30442542 157.36113457 16.52448367 156.875 19.375 C154.75 21.9375 154.75 21.9375 151.875 24.375 C145.0197023 30.21914129 144.00521498 37.82773107 142.875 46.375 C142.50429106 51.21851163 142.45267916 56.02665229 142.4765625 60.8828125 C142.4745297 62.22354285 142.47160842 63.56427211 142.46786499 64.90499878 C142.46348887 67.69328504 142.46971134 70.48127947 142.48388672 73.26953125 C142.5008785 76.77560364 142.49086214 80.28098857 142.47360611 83.7870369 C142.42043282 96.41017218 142.46181735 109.01520621 144.0859375 121.5546875 C144.1854068 122.39194366 144.2848761 123.22919983 144.38735962 124.09182739 C145.19192225 129.33468139 146.61540412 131.92091395 150.875 135.375 C151.96705989 136.14252148 153.06894236 136.89663688 154.1875 137.625 C157.02361004 140.52706609 157.34740356 141.05387499 157.5625 144.875 C157.3068018 148.22131117 156.87727291 149.3716273 154.9375 152.25 C146.81397765 157.8867298 137.32529006 158.52895625 127.70703125 158.578125 C126.8315715 158.58382507 125.95611176 158.58952515 125.05412292 158.59539795 C123.2059346 158.60481348 121.35772975 158.61136817 119.50952148 158.61523438 C116.71372374 158.62490925 113.91867152 158.65595279 111.12304688 158.6875 C90.08359585 158.81267326 90.08359585 158.81267326 81.75 153.3125 C78.8658557 150.33221756 78.24644546 147.74054329 78.25390625 143.5625 C79.11541941 140.52823981 80.69018395 139.62804643 83.1875 137.75 C88.67998443 133.20747357 90.05137983 128.96637126 90.71679688 121.9375 C91.22501493 113.70562232 91.24353613 105.44794185 91.17578125 97.203125 C91.16716064 96.1296582 91.15854004 95.05619141 91.1496582 93.95019531 C91.13021671 91.21146496 91.13021671 91.21146496 88.875 89.375 C85.93583099 89.53412698 84.40941653 89.79276726 82.390625 91.9921875 C76.16578328 103.09699773 70.88843476 114.68474665 65.83984375 126.36328125 C65.05601318 128.16551147 65.05601318 128.16551147 64.25634766 130.00415039 C63.23033919 132.37214471 62.21521719 134.74489339 61.21240234 137.12280273 C58.4692023 143.45444263 55.8565083 148.54507286 50.875 153.375 C47.875 153.9375 47.875 153.9375 44.875 152.375 C40.11051237 145.81577301 36.70873938 138.23810969 33.25 130.9375 C32.74218994 129.8750708 32.23437988 128.8126416 31.71118164 127.71801758 C28.90635082 121.80733079 26.18037459 115.86623159 23.53515625 109.8828125 C23.26348633 109.26830734 22.99181641 108.65380219 22.71191406 108.02067566 C21.39625287 105.03784357 20.09108965 102.05083173 18.79638672 99.05883789 C18.32604004 97.98110107 17.85569336 96.90336426 17.37109375 95.79296875 C16.96044678 94.84188232 16.5497998 93.8907959 16.12670898 92.91088867 C14.9250807 90.47646055 13.57849988 88.4807796 11.875 86.375 C9.89963255 86.72286708 9.89963255 86.72286708 7.875 87.375 C6.20858388 90.70783223 6.73341924 94.44563862 6.7421875 98.109375 C6.74123077 98.98015686 6.74027405 99.85093872 6.73928833 100.74810791 C6.73860696 102.59411694 6.74045823 104.44012836 6.74462891 106.28613281 C6.74995207 109.09966493 6.74469582 111.91303553 6.73828125 114.7265625 C6.73894254 116.52083368 6.74022477 118.31510477 6.7421875 120.109375 C6.74016327 120.94708435 6.73813904 121.7847937 6.73605347 122.64788818 C6.75323042 126.97417463 6.8101175 131.15353107 7.875 135.375 C10.10759665 136.60272827 10.10759665 136.60272827 12.875 137.375 C16.89325048 139.46139929 18.54021343 140.42350131 20.0625 144.75 C19.86414419 148.58487899 19.12991151 150.31780051 16.46875 153.08984375 C8.94707365 159.15511708 -0.72095736 158.61667589 -9.82519531 158.67016602 C-11.18467639 158.68166234 -12.54411316 158.70207745 -13.90332031 158.73168945 C-23.47372595 158.93969123 -31.34700649 158.68684781 -38.6875 152.0625 C-40.64621365 148.40055709 -41.00018896 146.45921513 -40.125 142.375 C-37.70284694 140.25634564 -34.96570474 138.86123142 -32.125 137.375 C-27.80403873 134.65091572 -26.69008336 132.71398623 -25.56689453 127.76586914 C-21.85279216 107.67072855 -22.91275639 86.32073998 -22.875 66 C-22.86982361 64.6933136 -22.86464722 63.3866272 -22.85931396 62.04034424 C-22.84754857 58.26897394 -22.85080082 54.49793585 -22.859375 50.7265625 C-22.85541718 49.58590332 -22.85145935 48.44524414 -22.84738159 47.27001953 C-22.88057953 41.56406268 -23.19465642 36.75599043 -25.125 31.375 C-25.455 30.385 -25.785 29.395 -26.125 28.375 C-27.011875 28.08625 -27.89875 27.7975 -28.8125 27.5 C-33.16356294 26.02228051 -36.99809088 23.62881824 -39.125 19.375 C-39.81548724 12.3550464 -39.81548724 12.3550464 -37.1875 8.625 C-26.07731201 0.4624129 -13.30520047 0.19997081 0 0 Z " fill="#FDFDFD" transform="translate(1444.125,443.625)"/>
<path d="M0 0 C16.46030533 13.48904388 29.49279496 33.3259161 32.37841797 54.73828125 C34.17139226 75.32413704 30.39059187 94.41554483 17.50341797 111.05078125 C16.14974243 112.63179162 14.77482558 114.19488336 13.37841797 115.73828125 C12.71326172 116.49625 12.04810547 117.25421875 11.36279297 118.03515625 C-3.61929931 134.12703314 -25.7696572 142.97690352 -47.44970703 144.0859375 C-71.84655572 144.88293756 -92.86365565 138.9690981 -111.62158203 122.73828125 C-127.31324237 107.98173439 -135.53592071 88.53537225 -136.84033203 67.15234375 C-137.3694736 46.11896624 -131.40412686 27.74381718 -117.62158203 11.73828125 C-116.93451172 10.9390625 -116.24744141 10.13984375 -115.53955078 9.31640625 C-87.08951618 -21.29773117 -32.99826888 -25.67525648 0 0 Z " fill="#FDFDFD" transform="translate(946.62158203125,459.26171875)"/>
<path d="M0 0 C1.99816773 0.00238927 3.99633774 0.00328873 5.99450684 0.0027771 C10.16689273 0.00589179 14.3389318 0.02235366 18.51123047 0.04931641 C23.83356791 0.08329375 29.15552546 0.090944 34.47795868 0.08942604 C38.59946249 0.08997241 42.72088489 0.10098229 46.84236145 0.11542892 C48.80377081 0.12174944 50.7651893 0.12572457 52.72660828 0.12721634 C78.28540548 0.16795047 78.28540548 0.16795047 89.65625 6.2109375 C90.68854736 6.74871826 90.68854736 6.74871826 91.74169922 7.29736328 C101.84037148 12.68990494 107.34789083 19.09307223 111.78125 29.7734375 C113.69470798 41.06283958 112.76367914 51.41292284 106.65625 61.2109375 C102.56879324 66.95163359 97.58523482 71.09058214 91.40625 74.4609375 C91.42513162 76.85630311 91.42513162 76.85630311 92.40625 79.4609375 C95.17098374 81.42496289 95.17098374 81.42496289 98.59375 82.9609375 C108.29376672 87.66128846 113.63056345 93.21961568 117.63085938 103.14306641 C120.00750167 110.24755066 120.96377035 117.81692928 122.03662109 125.20947266 C122.38841049 127.35227437 122.73464257 129.39458523 123.40625 131.4609375 C125.32365912 132.45718083 125.32365912 132.45718083 127.65625 132.9609375 C131.67978224 134.17377258 134.62474452 135.14107612 137.40625 138.4609375 C138.08776064 143.15578858 137.91827123 145.3728924 135.90625 149.6484375 C129.41727206 156.94853768 121.86396229 158.9964426 112.33789062 159.68164062 C109.04564693 159.79986484 105.76302866 159.83210025 102.46875 159.8359375 C101.36595703 159.86042969 100.26316406 159.88492188 99.12695312 159.91015625 C88.76479182 159.94683647 79.75936542 157.78904681 72.17578125 150.40625 C61.85978688 139.06548798 58.64554373 123.51489845 55.23022461 108.91845703 C53.75340352 102.88150058 51.94959797 97.29451395 46.71875 93.5234375 C42.55907212 92.1892012 38.7444672 91.98601688 34.40625 92.4609375 C31.76533787 95.10184963 33.17626175 102.6020019 33.16601562 106.39648438 C33.15638178 108.55639214 33.12540818 110.71531878 33.09375 112.875 C33.08721268 114.26041103 33.08196508 115.64582887 33.078125 117.03125 C33.0687793 118.28695801 33.05943359 119.54266602 33.04980469 120.83642578 C33.55204055 125.94340775 34.84555081 129.95773776 38.6328125 133.60546875 C39.42429687 134.15589844 40.21578125 134.70632813 41.03125 135.2734375 C45.33365926 138.31575602 45.33365926 138.31575602 46.40625 140.4609375 C46.90695446 144.80037615 46.72789627 146.92140183 44.46875 150.7109375 C39.56247252 155.93779561 31.24556004 157.20458023 24.37007141 157.56880188 C22.00412525 157.62561792 19.64003922 157.65191855 17.2734375 157.6640625 C16.40034943 157.66976257 15.52726135 157.67546265 14.62771606 157.68133545 C12.78372394 157.69075186 10.93971524 157.69730602 9.09570312 157.70117188 C6.31088908 157.71083466 3.52682738 157.74187233 0.7421875 157.7734375 C-12.4467096 157.85189886 -24.96140178 157.89243446 -34.96875 148.1484375 C-37.19374236 144.46864244 -37.46936281 142.6930661 -36.59375 138.4609375 C-34.20073652 135.76879734 -31.46063501 133.6289849 -28.59375 131.4609375 C-23.83530365 127.73134441 -22.69655226 123.24232041 -21.59375 117.4609375 C-21.02061432 111.04224485 -21.14638937 104.57474414 -21.16015625 98.13671875 C-21.15558835 96.26205762 -21.15028097 94.38739816 -21.14427185 92.51274109 C-21.13537491 88.60013994 -21.137727 84.68774332 -21.14770508 80.77514648 C-21.15922483 75.77170167 -21.13891996 70.76895948 -21.10978794 65.76560688 C-21.09141529 61.90074722 -21.09171994 58.03605594 -21.09742546 54.17116356 C-21.09757836 52.32644854 -21.09156003 50.48172189 -21.07913399 48.63704872 C-21.06419513 46.05747235 -21.07491942 43.47919492 -21.09204102 40.8996582 C-21.08237305 40.14572281 -21.07270508 39.39178741 -21.06274414 38.61500549 C-21.13821846 33.16307796 -22.51874153 29.97560506 -25.59375 25.4609375 C-27.53704222 23.7522461 -27.53704222 23.7522461 -29.65625 22.7109375 C-32.38982238 21.22085198 -34.60156237 19.8891054 -36.59375 17.4609375 C-37.2403357 13.17730722 -36.93146951 11.05485802 -34.78125 7.2734375 C-25.94901881 -1.80568186 -11.56068781 -0.0916936 0 0 Z " fill="#FDFDFD" transform="translate(1834.59375,444.5390625)"/>
<path d="M0 0 C1.94712891 -0.03673828 1.94712891 -0.03673828 3.93359375 -0.07421875 C13.15576992 -0.10185764 23.47142125 0.49820825 31.47607422 5.64575195 C34.14423897 8.34790903 34.85489859 11.2224923 35.125 14.875 C34.84860304 19.85014536 33.00614741 21.9503909 29.5 25.375 C28.984375 25.82101562 28.46875 26.26703125 27.9375 26.7265625 C23.19401734 32.16609968 23.17590195 41.11978532 23.296875 47.96484375 C23.48603373 50.20928488 23.8784225 52.2145169 24.5 54.375 C30.90184297 53.17164606 33.6254142 50.77168766 37.625 45.75 C38.14416992 45.11698975 38.66333984 44.48397949 39.19824219 43.83178711 C45.81577183 36.07729002 45.81577183 36.07729002 48.9375 26.625 C48.70219172 23.50053539 48.70219172 23.50053539 47.5 21.4375 C45.89545306 18.12812194 45.86981628 14.92320833 46.5 11.375 C49.65847901 5.7115204 53.57203685 4.19045716 59.5859375 2.13671875 C67.30073286 0.12011675 75.07244128 0.15653065 82.98583984 0.13476562 C85.09904245 0.1251185 87.21124585 0.09405899 89.32421875 0.0625 C99.68606771 -0.01945984 110.722346 0.23537664 119.5 6.375 C122.32792793 10.6168919 122.28122286 14.39373743 121.5 19.375 C119.81987353 22.49791165 117.71670326 24.76664837 114.5 26.375 C111.01924808 26.5418092 107.54492151 26.67146676 104.06054688 26.71679688 C93.7575976 27.1050763 87.67769028 33.54637673 80.5 40.375 C79.65179687 41.18195313 78.80359375 41.98890625 77.9296875 42.8203125 C71.98075398 48.17759608 71.98075398 48.17759608 69.27734375 55.41796875 C69.80547145 62.48972752 72.89186081 66.19662285 77.5 71.375 C78.46803151 72.49837784 79.43403371 73.62350628 80.3984375 74.75 C83.17316762 77.98140178 85.97049439 81.19241749 88.77392578 84.39892578 C91.54498735 87.57134054 94.30382374 90.75431625 97.0625 93.9375 C97.8678418 94.86550415 97.8678418 94.86550415 98.68945312 95.81225586 C101.85075892 99.4583397 104.99242944 103.12018945 108.11865234 106.79638672 C110.09087123 109.10870948 112.07883123 111.40722238 114.06787109 113.70507812 C115.47566959 115.34662973 116.85711004 117.00790911 118.23828125 118.671875 C123.81291141 125.23529286 128.94571117 129.27302054 136.75 132.875 C139.65575176 134.45995551 140.94692368 135.4741693 142.5 138.375 C143.32952364 143.38950779 143.27085119 147.92224199 140.875 152.4375 C134.87843767 157.32943243 127.7097922 156.72578714 120.34765625 156.78125 C118.58741371 156.79835022 118.58741371 156.79835022 116.79161072 156.8157959 C114.31464217 156.83465008 111.83762397 156.84774563 109.3605957 156.85546875 C105.57870085 156.87491669 101.7989649 156.93701379 98.01757812 157 C95.60678369 157.01305812 93.19597378 157.02355983 90.78515625 157.03125 C89.65892349 157.0559436 88.53269073 157.08063721 87.37232971 157.1060791 C82.16915406 157.07665041 78.5136309 156.98160797 74.41699219 153.56518555 C73.41140359 152.53318365 72.43337466 151.47274683 71.5 150.375 C70.63991333 149.39720581 70.63991333 149.39720581 69.76245117 148.3996582 C69.36002197 147.83077881 68.95759277 147.26189941 68.54296875 146.67578125 C68.07528076 146.02931641 67.60759277 145.38285156 67.12573242 144.71679688 C66.65111572 144.04712891 66.17649902 143.37746094 65.6875 142.6875 C60.67577515 135.80832135 55.32538952 129.58604249 49.5 123.375 C48.26421458 121.96410329 47.03445159 120.54789474 45.8125 119.125 C44.71184496 117.87190682 43.60772545 116.62184737 42.5 115.375 C41.62214844 114.37919922 41.62214844 114.37919922 40.7265625 113.36328125 C37.83826616 110.25426357 36.23900947 108.57654804 32.0625 107.4375 C31.216875 107.416875 30.37125 107.39625 29.5 107.375 C26.0486134 110.96298501 26.12451115 113.89501305 26.1875 118.75 C26.19136719 120.03648437 26.19523437 121.32296875 26.19921875 122.6484375 C26.4905826 126.25832209 27.05792419 129.06022852 28.5 132.375 C30.1476038 133.08747732 31.81763529 133.74900383 33.5 134.375 C36.84916163 137.64804432 38.2322778 139.42123965 39.5 143.9375 C39.5 148.01126027 39.25761106 149.37407032 36.5 152.375 C27.54952717 157.801813 17.23471399 158.68645349 6.99609375 158.640625 C6.03276627 158.64253845 5.06943878 158.6444519 4.07691956 158.64642334 C2.05591569 158.6477746 0.03490283 158.64415286 -1.98608398 158.63574219 C-5.05798023 158.62501578 -8.12929336 158.63567992 -11.20117188 158.6484375 C-13.17708461 158.64711595 -15.15299698 158.64455364 -17.12890625 158.640625 C-18.03540421 158.64467346 -18.94190216 158.64872192 -19.87586975 158.65289307 C-28.84691536 158.58773426 -35.97892133 157.89607867 -42.5 151.375 C-44.11675682 148.14148636 -44.08043692 144.87066505 -43.5 141.375 C-41.25299849 138.03659776 -39.29698903 135.86837416 -35.875 133.75 C-27.61807757 125.49307757 -29.34172067 107.46766425 -29.33203125 96.609375 C-29.32870285 95.29898254 -29.32537445 93.98859009 -29.32194519 92.63848877 C-29.3159907 89.87503231 -29.31410144 87.11160694 -29.31469727 84.34814453 C-29.31479859 80.84422418 -29.30116043 77.34050779 -29.28392506 73.83663559 C-29.26998867 70.44837992 -29.27071262 67.06015882 -29.26953125 63.671875 C-29.26234573 62.43290466 -29.25516022 61.19393433 -29.24775696 59.91741943 C-29.20516988 44.03450748 -29.20516988 44.03450748 -34.5 29.375 C-36.4771343 27.7023525 -38.48526878 26.23740546 -40.66015625 24.83203125 C-43.83167433 22.3204044 -44.42613422 19.94482175 -44.9375 16 C-44.49607392 12.34246964 -43.78140289 10.39544174 -41.22265625 7.72265625 C-30.25102853 -0.86058992 -13.14435346 0.01305298 0 0 Z " fill="#FDFDFD" transform="translate(2021.5,443.625)"/>
<path d="M0 0 C1.94712891 -0.03673828 1.94712891 -0.03673828 3.93359375 -0.07421875 C13.15576992 -0.10185764 23.47142125 0.49820825 31.47607422 5.64575195 C34.14423897 8.34790903 34.85489859 11.2224923 35.125 14.875 C34.84860304 19.85014536 33.00614741 21.9503909 29.5 25.375 C28.984375 25.82101562 28.46875 26.26703125 27.9375 26.7265625 C23.19401734 32.16609968 23.17590195 41.11978532 23.296875 47.96484375 C23.48603373 50.20928488 23.8784225 52.2145169 24.5 54.375 C30.90184297 53.17164606 33.6254142 50.77168766 37.625 45.75 C38.14416992 45.11698975 38.66333984 44.48397949 39.19824219 43.83178711 C45.81577183 36.07729002 45.81577183 36.07729002 48.9375 26.625 C48.70219172 23.50053539 48.70219172 23.50053539 47.5 21.4375 C45.89545306 18.12812194 45.86981628 14.92320833 46.5 11.375 C49.65847901 5.7115204 53.57203685 4.19045716 59.5859375 2.13671875 C67.30073286 0.12011675 75.07244128 0.15653065 82.98583984 0.13476562 C85.09904245 0.1251185 87.21124585 0.09405899 89.32421875 0.0625 C99.68606771 -0.01945984 110.722346 0.23537664 119.5 6.375 C122.32792793 10.6168919 122.28122286 14.39373743 121.5 19.375 C119.81987353 22.49791165 117.71670326 24.76664837 114.5 26.375 C111.01924808 26.5418092 107.54492151 26.67146676 104.06054688 26.71679688 C93.7575976 27.1050763 87.67769028 33.54637673 80.5 40.375 C79.65179687 41.18195313 78.80359375 41.98890625 77.9296875 42.8203125 C71.98075398 48.17759608 71.98075398 48.17759608 69.27734375 55.41796875 C69.80547145 62.48972752 72.89186081 66.19662285 77.5 71.375 C78.46803151 72.49837784 79.43403371 73.62350628 80.3984375 74.75 C83.17316762 77.98140178 85.97049439 81.19241749 88.77392578 84.39892578 C91.54498735 87.57134054 94.30382374 90.75431625 97.0625 93.9375 C97.8678418 94.86550415 97.8678418 94.86550415 98.68945312 95.81225586 C101.85075892 99.4583397 104.99242944 103.12018945 108.11865234 106.79638672 C110.09087123 109.10870948 112.07883123 111.40722238 114.06787109 113.70507812 C115.47566959 115.34662973 116.85711004 117.00790911 118.23828125 118.671875 C123.81291141 125.23529286 128.94571117 129.27302054 136.75 132.875 C139.65575176 134.45995551 140.94692368 135.4741693 142.5 138.375 C143.32952364 143.38950779 143.27085119 147.92224199 140.875 152.4375 C134.87843767 157.32943243 127.7097922 156.72578714 120.34765625 156.78125 C118.58741371 156.79835022 118.58741371 156.79835022 116.79161072 156.8157959 C114.31464217 156.83465008 111.83762397 156.84774563 109.3605957 156.85546875 C105.57870085 156.87491669 101.7989649 156.93701379 98.01757812 157 C95.60678369 157.01305812 93.19597378 157.02355983 90.78515625 157.03125 C89.65892349 157.0559436 88.53269073 157.08063721 87.37232971 157.1060791 C82.16915406 157.07665041 78.5136309 156.98160797 74.41699219 153.56518555 C73.41140359 152.53318365 72.43337466 151.47274683 71.5 150.375 C70.63991333 149.39720581 70.63991333 149.39720581 69.76245117 148.3996582 C69.36002197 147.83077881 68.95759277 147.26189941 68.54296875 146.67578125 C68.07528076 146.02931641 67.60759277 145.38285156 67.12573242 144.71679688 C66.65111572 144.04712891 66.17649902 143.37746094 65.6875 142.6875 C60.67577515 135.80832135 55.32538952 129.58604249 49.5 123.375 C48.26421458 121.96410329 47.03445159 120.54789474 45.8125 119.125 C44.71184496 117.87190682 43.60772545 116.62184737 42.5 115.375 C41.62214844 114.37919922 41.62214844 114.37919922 40.7265625 113.36328125 C37.83826616 110.25426357 36.23900947 108.57654804 32.0625 107.4375 C31.216875 107.416875 30.37125 107.39625 29.5 107.375 C26.0486134 110.96298501 26.12451115 113.89501305 26.1875 118.75 C26.19136719 120.03648437 26.19523437 121.32296875 26.19921875 122.6484375 C26.4905826 126.25832209 27.05792419 129.06022852 28.5 132.375 C30.1476038 133.08747732 31.81763529 133.74900383 33.5 134.375 C36.84916163 137.64804432 38.2322778 139.42123965 39.5 143.9375 C39.5 148.01126027 39.25761106 149.37407032 36.5 152.375 C27.54952717 157.801813 17.23471399 158.68645349 6.99609375 158.640625 C6.03276627 158.64253845 5.06943878 158.6444519 4.07691956 158.64642334 C2.05591569 158.6477746 0.03490283 158.64415286 -1.98608398 158.63574219 C-5.05798023 158.62501578 -8.12929336 158.63567992 -11.20117188 158.6484375 C-13.17708461 158.64711595 -15.15299698 158.64455364 -17.12890625 158.640625 C-18.03540421 158.64467346 -18.94190216 158.64872192 -19.87586975 158.65289307 C-28.84691536 158.58773426 -35.97892133 157.89607867 -42.5 151.375 C-44.11675682 148.14148636 -44.08043692 144.87066505 -43.5 141.375 C-41.25299849 138.03659776 -39.29698903 135.86837416 -35.875 133.75 C-27.61807757 125.49307757 -29.34172067 107.46766425 -29.33203125 96.609375 C-29.32870285 95.29898254 -29.32537445 93.98859009 -29.32194519 92.63848877 C-29.3159907 89.87503231 -29.31410144 87.11160694 -29.31469727 84.34814453 C-29.31479859 80.84422418 -29.30116043 77.34050779 -29.28392506 73.83663559 C-29.26998867 70.44837992 -29.27071262 67.06015882 -29.26953125 63.671875 C-29.26234573 62.43290466 -29.25516022 61.19393433 -29.24775696 59.91741943 C-29.20516988 44.03450748 -29.20516988 44.03450748 -34.5 29.375 C-36.4771343 27.7023525 -38.48526878 26.23740546 -40.66015625 24.83203125 C-43.83167433 22.3204044 -44.42613422 19.94482175 -44.9375 16 C-44.49607392 12.34246964 -43.78140289 10.39544174 -41.22265625 7.72265625 C-30.25102853 -0.86058992 -13.14435346 0.01305298 0 0 Z " fill="#FDFDFD" transform="translate(1200.5,443.625)"/>
<path d="M0 0 C5.479104 1.27537157 8.21313498 1.69896261 13.3840332 -0.44506836 C19.20829048 -1.34110794 22.56877004 0.25757801 27.17700195 3.58618164 C33.9766277 9.6516885 40.86154184 20.21651185 41.62231445 29.44555664 C41.77570629 36.38855561 41.81230689 41.0495103 37.3840332 46.55493164 C33.96059812 49.50288962 30.87189153 50.10986054 26.34887695 49.89086914 C21.03982666 48.98315875 17.45039968 44.72590634 13.6340332 41.24243164 C3.1628612 31.69749524 -6.14754865 25.10388283 -20.6003418 25.12133789 C-23.96524666 25.60515193 -25.89204967 26.55118685 -28.6159668 28.55493164 C-29.75870254 30.84040312 -29.84723937 32.32373069 -29.9284668 34.86743164 C-29.96584961 35.62668945 -30.00323242 36.38594727 -30.04174805 37.16821289 C-29.44449969 40.51609128 -27.90346564 42.06659224 -25.6159668 44.55493164 C-16.7879375 49.5640992 -6.28644881 52.05338338 3.39599609 55.02905273 C12.23471279 57.75873808 19.84170446 61.11921096 27.3840332 66.55493164 C28.41040894 67.293927 28.41040894 67.293927 29.45751953 68.04785156 C36.91241714 73.63766775 42.85055293 83.35404999 44.3840332 92.55493164 C45.41936012 107.85105193 42.82005369 121.24725974 33.0871582 133.42993164 C18.99169864 148.15385118 -0.39198703 155.23034939 -20.54956055 155.89086914 C-23.05071877 155.92068822 -25.55213287 155.93313069 -28.0534668 155.92993164 C-29.37008301 155.92832031 -30.68669922 155.92670898 -32.04321289 155.92504883 C-42.96103279 155.78905938 -53.11048407 154.47821856 -63.6159668 151.55493164 C-65.39874023 151.06959961 -65.39874023 151.06959961 -67.2175293 150.57446289 C-75.69385418 147.99791252 -82.97998162 144.9808747 -87.45581055 137.00024414 C-92.18577414 127.03069126 -94.78445169 117.98558446 -94.9284668 106.99243164 C-94.9574707 106.25057617 -94.98647461 105.5087207 -95.01635742 104.74438477 C-95.06113081 100.8766529 -94.87376065 98.97697859 -92.80737305 95.59399414 C-89.74776047 92.74708191 -87.76205505 92.48344736 -83.6159668 92.55493164 C-78.98643363 95.13985666 -76.1815903 98.01750167 -73.1159668 102.30493164 C-72.34768555 103.36196289 -71.5794043 104.41899414 -70.7878418 105.50805664 C-70.07112305 106.51352539 -69.3544043 107.51899414 -68.6159668 108.55493164 C-61.9392679 117.87824992 -54.81140707 123.45177496 -43.6159668 126.55493164 C-40.8191824 126.87454407 -38.05440965 126.9358442 -35.2409668 126.92993164 C-34.11259399 126.92860229 -34.11259399 126.92860229 -32.96142578 126.92724609 C-27.22404366 126.80448469 -23.37232481 125.95233022 -18.6159668 122.55493164 C-16.27047005 119.03668653 -16.03605277 117.6971747 -16.6159668 113.55493164 C-21.80321913 105.95931216 -32.49121297 103.95659944 -40.73828125 100.96508789 C-60.04716904 93.9429892 -78.48683738 84.53687118 -87.64331055 64.97680664 C-87.96428711 64.17758789 -88.28526367 63.37836914 -88.6159668 62.55493164 C-88.97948242 61.65516602 -89.34299805 60.75540039 -89.7175293 59.82836914 C-92.52418362 49.60238514 -91.79935323 37.53054046 -87.09643555 28.05883789 C-84.85898732 24.27465764 -82.52631257 20.85332352 -79.6159668 17.55493164 C-79.05393555 16.90008789 -78.4919043 16.24524414 -77.9128418 15.57055664 C-56.68933114 -7.4364423 -27.90358865 -6.65002794 0 0 Z " fill="#FDFDFD" transform="translate(594.615966796875,447.445068359375)"/>
<path d="M0 0 C32.03808499 19.2657831 48.09909953 70.13138097 63.09912109 102.75390625 C65.621881 108.22405702 68.17516859 113.6791863 70.75 119.125 C71.19964111 120.08929932 71.64928223 121.05359863 72.11254883 122.04711914 C72.53173584 122.93004639 72.95092285 123.81297363 73.3828125 124.72265625 C73.7452002 125.49230713 74.10758789 126.26195801 74.48095703 127.05493164 C76.94019054 131.37039837 79.59681144 132.60872352 84.25 134.125 C86.06031174 134.71655856 87.85809662 135.35170988 89.625 136.0625 C91.37140716 139.55531432 91.18083317 143.25107255 90.625 147.0625 C86.79131227 152.8130316 79.83741274 155.08065839 73.30511475 156.60322571 C70.56457289 157.07285501 68.02218093 157.19626268 65.24316406 157.20776367 C64.19147034 157.21414352 63.13977661 157.22052338 62.05621338 157.22709656 C60.36549713 157.22876579 60.36549713 157.22876579 58.640625 157.23046875 C57.47045837 157.23379715 56.30029175 157.23712555 55.09466553 157.24055481 C52.62008049 157.24561344 50.14548864 157.24796346 47.67089844 157.24780273 C43.902879 157.24998386 40.13515496 157.26813648 36.3671875 157.28710938 C33.95833433 157.29004466 31.54947977 157.29202855 29.140625 157.29296875 C27.46205414 157.30374702 27.46205414 157.30374702 25.74957275 157.31474304 C15.61092555 157.28543477 7.34320303 156.59009626 -0.25 149.25 C-1.96016109 145.92468677 -1.95577477 143.74074022 -1.375 140.0625 C2.20044664 136.316794 5.89105721 134.20404555 10.625 132.0625 C11.07944068 127.33769477 11.07944068 127.33769477 9.25 123.1875 C1.42743172 117.7718758 -12.12439394 119.87609214 -21.32568359 119.87719727 C-23.40091367 119.87497222 -25.47564183 119.85661405 -27.55078125 119.83789062 C-28.88801905 119.83496212 -30.22525932 119.8329737 -31.5625 119.83203125 C-32.75230469 119.82792236 -33.94210937 119.82381348 -35.16796875 119.81958008 C-38.35340076 120.06086394 -40.5375325 120.62673888 -43.375 122.0625 C-45.98795319 125.42201124 -45.53294443 128.95594484 -45.375 133.0625 C-44.68792969 133.30484375 -44.00085937 133.5471875 -43.29296875 133.796875 C-42.39191406 134.13203125 -41.49085937 134.4671875 -40.5625 134.8125 C-39.66917969 135.13734375 -38.77585937 135.4621875 -37.85546875 135.796875 C-35.08668788 137.20960729 -33.94680511 138.40721759 -32.375 141.0625 C-31.65741125 145.1886353 -32.14315235 146.70418999 -34.4375 150.25 C-39.34249602 155.55795604 -46.15656397 156.92344738 -53.10449219 157.22363281 C-54.5435489 157.24363194 -55.98270349 157.25728553 -57.421875 157.265625 C-58.19251282 157.27132507 -58.96315063 157.27702515 -59.75714111 157.28289795 C-61.38430421 157.29231635 -63.01148611 157.29886933 -64.63867188 157.30273438 C-67.10321129 157.31241442 -69.56690683 157.34345641 -72.03125 157.375 C-81.11260528 157.43584351 -88.82092591 157.39494445 -96.875 152.5625 C-99.24116908 150.19633092 -99.38733585 147.95147737 -99.75 144.6875 C-99.3776233 141.08785856 -98.95222463 139.67510719 -96.26171875 137.29296875 C-92.88440983 135.09037597 -89.13558947 133.59714035 -85.41015625 132.078125 C-76.70134945 126.29467029 -73.00244316 114.39535472 -68.75 105.1875 C-68.04540094 103.67457596 -67.34048144 102.16180111 -66.63525391 100.64916992 C-60.37870758 87.19612035 -54.26399624 73.6808038 -48.375 60.0625 C-47.85292969 58.86246338 -47.85292969 58.86246338 -47.3203125 57.63818359 C-42.64851289 46.82016829 -40.48200338 37.09442698 -39.9375 25.375 C-39.54321735 17.00562053 -38.55030712 10.23780712 -32.375 4.0625 C-23.11464736 -2.55471555 -10.72640712 -4.97828464 0 0 Z " fill="#FDFDFD" transform="translate(1704.375,444.9375)"/>
<path d="M0 0 C5.87202338 5.3315024 11.19081851 12.62292506 11.91918945 20.80981445 C11.98571002 23.25093387 12.02704363 25.69093758 12.0546875 28.1328125 C12.08369141 28.97521484 12.11269531 29.81761719 12.14257812 30.68554688 C12.20067551 36.40143553 11.44744204 39.42248701 7.7421875 43.8203125 C4.89202746 46.05972396 1.50864726 46.53610466 -2.1015625 46.46875 C-7.63501033 44.80470591 -11.05422936 38.46156224 -14.3203125 34.0078125 C-19.67508409 27.96210264 -26.51325252 26.50739833 -34.2578125 25.8203125 C-37.8206471 25.63574316 -41.37813155 25.55121641 -44.9453125 25.5078125 C-45.83621582 25.49008789 -46.72711914 25.47236328 -47.64501953 25.45410156 C-53.50681965 25.46064497 -58.00749632 26.11560416 -63.2578125 28.8203125 C-66.25083298 34.29248049 -65.59347583 40.35492658 -65.57348633 46.42285156 C-65.57031063 48.44650378 -65.59387174 50.46871402 -65.61914062 52.4921875 C-65.62010742 54.40644531 -65.62010742 54.40644531 -65.62109375 56.359375 C-65.62407471 57.52678223 -65.62705566 58.69418945 -65.63012695 59.89697266 C-65.48994792 62.79530576 -65.48994792 62.79530576 -63.9519043 64.69921875 C-61.12615346 66.56920691 -58.02739675 66.25136252 -54.7578125 66.1953125 C-54.08105469 66.20691406 -53.40429688 66.21851563 -52.70703125 66.23046875 C-49.95580202 66.21418929 -47.78629455 66.12795278 -45.37890625 64.7265625 C-43.16330801 60.9592735 -42.917107 56.51877426 -42.19921875 52.265625 C-41.18035109 48.53682302 -39.9114901 46.59159045 -37.2578125 43.8203125 C-34.35485445 42.36883347 -32.48519471 42.44792225 -29.2578125 42.8203125 C-24.28263874 45.50690633 -22.83848514 48.22542974 -21.109375 53.55859375 C-18.88086757 61.18670156 -18.66456602 68.41767332 -18.7578125 76.3203125 C-18.73460938 78.28677734 -18.73460938 78.28677734 -18.7109375 80.29296875 C-18.74943628 89.98503592 -19.57564537 100.70665066 -25.8828125 108.5703125 C-28.84275318 111.37446683 -29.60435985 111.76090771 -33.6953125 112.1328125 C-37.2578125 111.8203125 -37.2578125 111.8203125 -38.89453125 110.171875 C-40.49410195 107.41273012 -41.02578884 105.00859017 -41.6328125 101.8828125 C-42.85192095 96.62139709 -43.88324562 93.99187349 -48.2578125 90.8203125 C-50.90221889 89.9388437 -52.53842002 89.65856432 -55.2578125 89.6328125 C-55.9384375 89.61863281 -56.6190625 89.60445312 -57.3203125 89.58984375 C-59.58395382 89.71090839 -59.58395382 89.71090839 -62.2578125 91.8203125 C-63.88373932 96.24426412 -63.44939959 101.10956873 -63.4453125 105.7578125 C-63.444104 107.16220581 -63.444104 107.16220581 -63.44287109 108.5949707 C-63.90868031 121.10303821 -63.90868031 121.10303821 -59.2578125 131.8203125 C-53.63292791 133.80346523 -47.13255571 133.08897113 -41.2578125 133.1328125 C-39.99324219 133.16181641 -38.72867188 133.19082031 -37.42578125 133.22070312 C-27.53225695 133.28693166 -16.54341223 132.20669337 -8.9765625 125.06640625 C-5.99061198 121.16431183 -3.70501407 116.82836959 -1.45239258 112.46972656 C2.06223444 105.7499565 2.06223444 105.7499565 5.7421875 103.8203125 C8.86787319 103.03604954 11.61278664 103.04608357 14.7421875 103.8203125 C18.26244229 106.55909994 20.33968782 109.61281347 21.7421875 113.8203125 C22.03461562 119.57139885 21.41484749 124.33073984 19.7421875 129.8203125 C19.4164978 130.90638794 19.4164978 130.90638794 19.08422852 132.0144043 C17.37025512 137.43445641 15.20353562 142.542659 12.6796875 147.6328125 C12.35162109 148.29603516 12.02355469 148.95925781 11.68554688 149.64257812 C9.80812752 153.25876511 8.06754134 156.41167783 4.7421875 158.8203125 C1.640625 159.24609375 1.640625 159.24609375 -1.8828125 159.1328125 C-3.03007812 159.10832031 -4.17734375 159.08382812 -5.359375 159.05859375 C-8.20853977 158.8844464 -10.98991191 158.63459808 -13.82157898 158.31428528 C-19.2700067 157.76381279 -24.66339303 157.67544245 -30.13598633 157.6784668 C-31.69157761 157.67325516 -31.69157761 157.67325516 -33.27859497 157.66793823 C-35.51180813 157.66063275 -37.74502831 157.65525991 -39.9782505 157.65164757 C-43.51320298 157.64443255 -47.04802061 157.62873286 -50.58293152 157.61030579 C-60.62680329 157.55804193 -70.67059442 157.50979756 -80.71459961 157.49438477 C-86.87300816 157.48431805 -93.03106648 157.45504152 -99.18933678 157.41306496 C-101.53248132 157.40074697 -103.87567523 157.39563514 -106.21885109 157.39786339 C-109.48848774 157.40020991 -112.7571114 157.37810342 -116.02661133 157.3503418 C-116.99345352 157.35694321 -117.96029572 157.36354462 -118.95643616 157.37034607 C-123.24998218 157.31038386 -125.61812892 157.21700318 -129.33476257 154.91218567 C-131.86652688 152.1581595 -132.2192885 151.2363717 -132.5703125 147.4453125 C-132.2578125 143.8203125 -132.2578125 143.8203125 -130.7578125 141.6953125 C-128.2578125 139.8203125 -128.2578125 139.8203125 -126.31640625 138.78515625 C-125.26646484 138.21474609 -125.26646484 138.21474609 -124.1953125 137.6328125 C-123.52371094 137.30925781 -122.85210938 136.98570312 -122.16015625 136.65234375 C-117.15975252 131.83675987 -116.51176252 122.81994424 -115.59375 116.21484375 C-115.46761322 115.3120015 -115.34147644 114.40915924 -115.21151733 113.47895813 C-113.8459054 102.83478131 -113.79801998 92.22308654 -113.8828125 81.5078125 C-113.88680054 80.48348114 -113.89078857 79.45914978 -113.89489746 78.40377808 C-113.94836762 66.69072876 -114.08197811 55.02268487 -115.5078125 43.3828125 C-115.61689941 42.48715576 -115.72598633 41.59149902 -115.83837891 40.66870117 C-116.65299737 35.26905129 -118.08772195 30.33522684 -121.2578125 25.8203125 C-123.41539103 24.21660653 -123.41539103 24.21660653 -125.8203125 23.5703125 C-128.50229046 22.55133732 -130.14573626 21.91880374 -132.3203125 20.0078125 C-133.74563573 16.68205831 -133.75200138 14.4031819 -133.2578125 10.8203125 C-130.9219835 7.06882956 -129.32576045 5.21696296 -125.15879822 3.66929626 C-120.64721924 2.68742717 -116.5036534 2.53521606 -111.90454102 2.54907227 C-110.5370446 2.54123215 -110.5370446 2.54123215 -109.141922 2.53323364 C-107.1706113 2.52302921 -105.19927392 2.51721947 -103.2279377 2.51535225 C-100.09339684 2.51166783 -96.95916658 2.4948806 -93.82469177 2.47459412 C-84.91516951 2.41940723 -76.00560078 2.38865508 -67.09594727 2.36401367 C-61.63477129 2.34800437 -56.17381336 2.31764091 -50.71275139 2.27924919 C-48.64663981 2.26770881 -46.58048898 2.26166981 -44.51434517 2.26156807 C-33.60386336 2.26083645 -23.3198024 1.89488654 -12.65684509 -0.53895569 C-8.28697734 -1.36269397 -4.04209397 -2.11195914 0 0 Z " fill="#FDFDFD" transform="translate(2300.2578125,443.1796875)"/>
<path d="M0 0 C4.51567635 2.07309469 8.21839819 2.15290607 13.109375 1.796875 C19.07477253 1.36963077 22.72233723 1.76773239 27.421875 5.796875 C36.87111316 17.44787739 39.74941272 31.08836049 38.421875 45.796875 C36.44779194 52.39133348 33.15975667 57.04968697 27.421875 60.796875 C21.2820601 63.66212195 15.2129864 63.72724547 8.859375 61.609375 C3.40158999 58.06748681 0.6021269 51.29579662 -2.578125 45.796875 C-8.70519111 35.66903056 -16.13818711 29.22885637 -27.578125 25.796875 C-36.39760391 23.77574442 -43.64820004 24.36705485 -51.578125 28.796875 C-56.67892258 33.12040819 -59.57635569 39.28094191 -60.578125 45.796875 C-61.94702484 64.49341256 -58.76353745 82.45554033 -46.328125 97.171875 C-38.96864352 104.87826807 -30.44215439 109.68804688 -19.65234375 110.09765625 C-17.85682488 110.11212563 -16.0611906 110.11581996 -14.265625 110.109375 C-12.9362793 110.13354492 -12.9362793 110.13354492 -11.58007812 110.15820312 C-3.48113619 110.16411045 4.10165086 108.50506646 11.171875 104.421875 C11.90664062 103.99777344 12.64140625 103.57367187 13.3984375 103.13671875 C15.30003318 101.87755404 16.88376396 100.53749193 18.546875 98.984375 C21.421875 96.796875 21.421875 96.796875 24.984375 96.109375 C29.77696047 97.06789209 30.71217369 98.81202013 33.421875 102.796875 C35.67354676 107.30021851 34.67369797 112.59926712 33.234375 117.234375 C30.30314436 125.23995301 26.29181139 134.17687848 18.296875 137.921875 C14.3610009 139.53200532 10.36903243 140.72756964 6.28125 141.8828125 C3.45297057 142.78693461 0.72735074 143.85770908 -2.01489258 144.99414062 C-23.85686876 154.0401688 -46.69076067 154.94255744 -68.79785156 145.88769531 C-77.12828395 142.25077757 -84.83994978 137.95714104 -91.578125 131.796875 C-92.47015625 130.99636719 -93.3621875 130.19585938 -94.28125 129.37109375 C-101.16248707 122.87528116 -106.07778579 116.15024436 -110.578125 107.796875 C-111.06023438 106.90355469 -111.54234375 106.01023437 -112.0390625 105.08984375 C-120.79441722 87.39341467 -122.46813418 67.44679906 -116.26269531 48.6875 C-108.13493388 26.24050124 -91.52453579 9.79881124 -70.390625 -0.515625 C-47.44412448 -11.1397719 -22.81290799 -11.16402531 0 0 Z " fill="#FDFDFD" transform="translate(1108.578125,451.203125)"/>
<path d="M0 0 C10.47476568 6.28485941 15.93206284 17.76493851 19.6796875 29.0078125 C19.92873728 31.94093969 19.9108697 34.87767857 19.9296875 37.8203125 C19.960625 39.01237305 19.960625 39.01237305 19.9921875 40.22851562 C20.02542372 45.25133892 19.45780494 48.65542851 16.6796875 53.0078125 C11.48215621 57.81552895 7.26785049 58.37163701 0.3984375 58.28125 C-5.60618688 57.67733663 -9.16867858 53.50564857 -12.80078125 49.078125 C-16.21613441 44.42481606 -19.48928329 39.50090014 -21.3203125 34.0078125 C-22.75521059 33.87244476 -24.19378357 33.77564107 -25.6328125 33.6953125 C-26.83357422 33.60830078 -26.83357422 33.60830078 -28.05859375 33.51953125 C-30.50583521 33.79692378 -30.50583521 33.79692378 -31.93641663 36.05279541 C-33.63971769 39.68983476 -33.74910002 42.84254049 -33.72436523 46.77636719 C-33.73466011 47.9262059 -33.73466011 47.9262059 -33.74516296 49.09927368 C-33.76342027 51.62626834 -33.75959359 54.15264119 -33.75390625 56.6796875 C-33.75847006 58.44460246 -33.76377623 60.20951565 -33.76979065 61.97442627 C-33.77872078 65.67312843 -33.77630153 69.3716147 -33.76635742 73.0703125 C-33.75489469 77.79235036 -33.77503803 82.51363739 -33.80427456 87.23557663 C-33.8226959 90.88178182 -33.82233187 94.52780929 -33.81663704 98.17404938 C-33.81648441 99.91384175 -33.82248057 101.65364662 -33.83492851 103.39339447 C-34.23360897 116.3413813 -34.23360897 116.3413813 -29.3203125 128.0078125 C-26.76487625 130.14863896 -26.76487625 130.14863896 -23.8203125 131.3203125 C-19.92133278 133.10377438 -17.06601287 134.65476827 -14.3203125 138.0078125 C-13.65988522 142.03641893 -13.42086164 144.40596361 -15.42578125 147.9765625 C-21.30973501 155.42220908 -29.36880464 156.73430904 -38.3203125 158.0078125 C-41.88387033 158.26822917 -45.42783473 158.3121768 -49 158.30859375 C-49.97462189 158.31287888 -50.94924377 158.317164 -51.95339966 158.32157898 C-53.99871042 158.32727751 -56.04404143 158.32785597 -58.08935547 158.32348633 C-61.18102324 158.3203271 -64.27173126 158.34384032 -67.36328125 158.36914062 C-81.50820881 158.4144233 -98.46311802 158.3888079 -109.9453125 148.8203125 C-111.89800388 144.82617105 -112.22950101 141.36536466 -111.3203125 137.0078125 C-108.07897047 133.01015733 -103.25670457 131.65340003 -98.52734375 129.9375 C-96.16811413 129.10704769 -96.16811413 129.10704769 -94.3203125 127.0078125 C-92.13906837 120.51743978 -91.73222326 113.49090444 -91.2109375 106.7109375 C-91.12684631 105.63144836 -91.04275513 104.55195923 -90.95611572 103.4397583 C-90.12067453 91.73875977 -90.01744728 80.05159886 -90.05957031 68.32519531 C-90.07051491 64.6905937 -90.05947827 61.05646391 -90.046875 57.421875 C-90.04819322 55.09114475 -90.05074857 52.76041479 -90.0546875 50.4296875 C-90.05063904 49.35273621 -90.04659058 48.27578491 -90.04241943 47.16619873 C-90.04872375 46.16614807 -90.05502808 45.16609741 -90.06152344 44.13574219 C-90.06311462 43.26294617 -90.06470581 42.39015015 -90.06634521 41.49090576 C-90.35100039 38.70777039 -91.17388041 36.54754471 -92.3203125 34.0078125 C-95.10969462 33.58891032 -95.10969462 33.58891032 -98.3203125 34.0078125 C-102.19062945 37.41243278 -105.17052444 41.36629925 -108.1953125 45.5078125 C-112.79852562 51.6546026 -117.32117733 57.08934026 -125.3359375 58.31640625 C-129.92828643 58.58134946 -132.65481887 58.25653047 -136.2578125 55.2578125 C-139.56328078 52.16333156 -141.13016288 49.54302048 -141.69140625 45.01171875 C-141.9794471 30.08442505 -135.91057682 16.44994533 -125.796875 5.48046875 C-121.4070179 1.10222503 -118.42206367 -0.22923767 -112.2578125 -0.3046875 C-109.45436969 -0.23613484 -106.86400374 -0.11775407 -104.13018799 0.5136261 C-100.56527266 1.14060501 -97.06675411 1.15532981 -93.45996094 1.15307617 C-92.29549187 1.15811409 -92.29549187 1.15811409 -91.10749817 1.16325378 C-88.54821153 1.17273023 -85.98899058 1.1747054 -83.4296875 1.17578125 C-81.64235406 1.17899673 -79.85502088 1.18236102 -78.06768799 1.18586731 C-74.32197459 1.19185074 -70.57628424 1.19370808 -66.83056641 1.19311523 C-62.04821609 1.1930138 -57.26601485 1.20665069 -52.4836998 1.22388744 C-48.79121228 1.23504834 -45.09876029 1.23703317 -41.40625763 1.23650551 C-39.64414202 1.23768005 -37.88202534 1.24207209 -36.11992645 1.24983788 C-25.19020161 1.29348761 -9.88880913 -4.22854801 0 0 Z " fill="#FDFDFD" transform="translate(2465.3203125,443.9921875)"/>
<path d="M0 0 C10.47476568 6.28485941 15.93206284 17.76493851 19.6796875 29.0078125 C19.92873728 31.94093969 19.9108697 34.87767857 19.9296875 37.8203125 C19.960625 39.01237305 19.960625 39.01237305 19.9921875 40.22851562 C20.02542372 45.25133892 19.45780494 48.65542851 16.6796875 53.0078125 C11.48215621 57.81552895 7.26785049 58.37163701 0.3984375 58.28125 C-5.60618688 57.67733663 -9.16867858 53.50564857 -12.80078125 49.078125 C-16.21613441 44.42481606 -19.48928329 39.50090014 -21.3203125 34.0078125 C-22.75521059 33.87244476 -24.19378357 33.77564107 -25.6328125 33.6953125 C-26.83357422 33.60830078 -26.83357422 33.60830078 -28.05859375 33.51953125 C-30.50583521 33.79692378 -30.50583521 33.79692378 -31.93641663 36.05279541 C-33.63971769 39.68983476 -33.74910002 42.84254049 -33.72436523 46.77636719 C-33.73466011 47.9262059 -33.73466011 47.9262059 -33.74516296 49.09927368 C-33.76342027 51.62626834 -33.75959359 54.15264119 -33.75390625 56.6796875 C-33.75847006 58.44460246 -33.76377623 60.20951565 -33.76979065 61.97442627 C-33.77872078 65.67312843 -33.77630153 69.3716147 -33.76635742 73.0703125 C-33.75489469 77.79235036 -33.77503803 82.51363739 -33.80427456 87.23557663 C-33.8226959 90.88178182 -33.82233187 94.52780929 -33.81663704 98.17404938 C-33.81648441 99.91384175 -33.82248057 101.65364662 -33.83492851 103.39339447 C-34.23360897 116.3413813 -34.23360897 116.3413813 -29.3203125 128.0078125 C-26.76487625 130.14863896 -26.76487625 130.14863896 -23.8203125 131.3203125 C-19.92133278 133.10377438 -17.06601287 134.65476827 -14.3203125 138.0078125 C-13.65988522 142.03641893 -13.42086164 144.40596361 -15.42578125 147.9765625 C-21.30973501 155.42220908 -29.36880464 156.73430904 -38.3203125 158.0078125 C-41.88387033 158.26822917 -45.42783473 158.3121768 -49 158.30859375 C-49.97462189 158.31287888 -50.94924377 158.317164 -51.95339966 158.32157898 C-53.99871042 158.32727751 -56.04404143 158.32785597 -58.08935547 158.32348633 C-61.18102324 158.3203271 -64.27173126 158.34384032 -67.36328125 158.36914062 C-81.50820881 158.4144233 -98.46311802 158.3888079 -109.9453125 148.8203125 C-111.89800388 144.82617105 -112.22950101 141.36536466 -111.3203125 137.0078125 C-108.07897047 133.01015733 -103.25670457 131.65340003 -98.52734375 129.9375 C-96.16811413 129.10704769 -96.16811413 129.10704769 -94.3203125 127.0078125 C-92.13906837 120.51743978 -91.73222326 113.49090444 -91.2109375 106.7109375 C-91.12684631 105.63144836 -91.04275513 104.55195923 -90.95611572 103.4397583 C-90.12067453 91.73875977 -90.01744728 80.05159886 -90.05957031 68.32519531 C-90.07051491 64.6905937 -90.05947827 61.05646391 -90.046875 57.421875 C-90.04819322 55.09114475 -90.05074857 52.76041479 -90.0546875 50.4296875 C-90.05063904 49.35273621 -90.04659058 48.27578491 -90.04241943 47.16619873 C-90.04872375 46.16614807 -90.05502808 45.16609741 -90.06152344 44.13574219 C-90.06311462 43.26294617 -90.06470581 42.39015015 -90.06634521 41.49090576 C-90.35100039 38.70777039 -91.17388041 36.54754471 -92.3203125 34.0078125 C-95.10969462 33.58891032 -95.10969462 33.58891032 -98.3203125 34.0078125 C-102.19062945 37.41243278 -105.17052444 41.36629925 -108.1953125 45.5078125 C-112.79852562 51.6546026 -117.32117733 57.08934026 -125.3359375 58.31640625 C-129.92828643 58.58134946 -132.65481887 58.25653047 -136.2578125 55.2578125 C-139.56328078 52.16333156 -141.13016288 49.54302048 -141.69140625 45.01171875 C-141.9794471 30.08442505 -135.91057682 16.44994533 -125.796875 5.48046875 C-121.4070179 1.10222503 -118.42206367 -0.22923767 -112.2578125 -0.3046875 C-109.45436969 -0.23613484 -106.86400374 -0.11775407 -104.13018799 0.5136261 C-100.56527266 1.14060501 -97.06675411 1.15532981 -93.45996094 1.15307617 C-92.29549187 1.15811409 -92.29549187 1.15811409 -91.10749817 1.16325378 C-88.54821153 1.17273023 -85.98899058 1.1747054 -83.4296875 1.17578125 C-81.64235406 1.17899673 -79.85502088 1.18236102 -78.06768799 1.18586731 C-74.32197459 1.19185074 -70.57628424 1.19370808 -66.83056641 1.19311523 C-62.04821609 1.1930138 -57.26601485 1.20665069 -52.4836998 1.22388744 C-48.79121228 1.23504834 -45.09876029 1.23703317 -41.40625763 1.23650551 C-39.64414202 1.23768005 -37.88202534 1.24207209 -36.11992645 1.24983788 C-25.19020161 1.29348761 -9.88880913 -4.22854801 0 0 Z " fill="#FDFDFD" transform="translate(786.3203125,443.9921875)"/>
<path d="M0 0 C16.86018274 15.09913224 27.87492588 34.7063211 34.09960938 56.37744141 C34.31230469 57.10189453 34.525 57.82634766 34.74414062 58.57275391 C43.06202776 89.09162038 36.40851642 123.34742219 21.09960938 150.37744141 C7.32506153 174.03623592 -14.24381183 190.93178299 -40.63867188 198.12353516 C-62.92402105 202.79991089 -86.48967922 199.25633186 -105.90039062 187.37744141 C-131.20956302 170.35454609 -148.75423759 144.71997681 -155.46459961 114.86743164 C-157.03703136 106.68505335 -157.24015503 98.64307284 -157.21606445 90.3425293 C-157.21290922 88.07828313 -157.23643953 85.81535501 -157.26171875 83.55126953 C-157.31992678 70.5035312 -155.4567808 58.20570672 -150.77539062 45.93994141 C-150.47753662 45.14918213 -150.17968262 44.35842285 -149.87280273 43.54370117 C-145.07939233 31.2709494 -138.58193352 20.29920472 -129.90039062 10.37744141 C-129.31128906 9.64525391 -128.7221875 8.91306641 -128.11523438 8.15869141 C-113.94171701 -8.93378813 -93.03753725 -20.29577296 -70.95898438 -22.46142578 C-43.83565328 -24.58445692 -20.83097408 -17.78554133 0 0 Z M-118.71289062 21.25244141 C-133.94831121 38.96675126 -142.69622246 61.86070193 -142.421875 85.15649414 C-142.40042618 87.31136929 -142.42181456 89.46290034 -142.44726562 91.61767578 C-142.47460915 104.75124479 -139.80731983 117.0973416 -134.58789062 129.18994141 C-134.13687988 130.25100098 -134.13687988 130.25100098 -133.67675781 131.33349609 C-131.00394034 137.44558026 -127.88383597 143.01118269 -123.90039062 148.37744141 C-123.13339844 149.41255859 -122.36640625 150.44767578 -121.57617188 151.51416016 C-109.68993462 166.82868163 -93.05845054 178.30154301 -73.84179688 181.90869141 C-61.73022817 183.34911583 -49.52528197 183.40496282 -37.90039062 179.37744141 C-37.13339844 179.11447266 -36.36640625 178.85150391 -35.57617188 178.58056641 C-33.66807929 177.88927963 -31.78240823 177.13685202 -29.90039062 176.37744141 C-28.91039062 175.98556641 -27.92039062 175.59369141 -26.90039062 175.18994141 C-25.91039062 174.78775391 -25.91039062 174.78775391 -24.90039062 174.37744141 C-24.90039062 173.71744141 -24.90039062 173.05744141 -24.90039062 172.37744141 C-23.56234375 171.99072266 -23.56234375 171.99072266 -22.19726562 171.59619141 C-4.78194893 165.15830182 7.2683141 145.31534633 14.7746582 129.21484375 C20.64391855 115.7450396 22.27955268 101.16652715 22.28710938 86.62744141 C22.29935547 85.40283203 22.31160156 84.17822266 22.32421875 82.91650391 C22.3639473 58.17886016 11.77263112 34.63347721 -5.33447266 16.89794922 C-9.47542728 12.87707841 -14.10729903 9.57969287 -18.90039062 6.37744141 C-19.58488281 5.88888672 -20.269375 5.40033203 -20.97460938 4.89697266 C-53.17333136 -17.04135993 -93.91130887 -4.77443145 -118.71289062 21.25244141 Z " fill="#F9C328" transform="translate(442.900390625,274.62255859375)"/>
<path d="M0 0 C0 93.39 0 186.78 0 283 C-9.9 283 -19.8 283 -30 283 C-30 195.55 -30 108.1 -30 18 C-23.4 14.37 -16.8 10.74 -10 7 C-1 0 -1 0 0 0 Z " fill="#FE816D" transform="translate(450,466)"/>
<path d="M0 0 C0.72058594 0.56589844 1.44117188 1.13179688 2.18359375 1.71484375 C19.04871925 15.68692628 30.0334953 38.45061142 33 60 C34.61004663 82.71258222 32.44416227 103.66344253 22 124 C21.46503906 125.06734375 20.93007813 126.1346875 20.37890625 127.234375 C13.32283352 140.29741611 1.42098123 153.42645817 -12 160 C-12.66 160 -13.32 160 -14 160 C-14 160.66 -14 161.32 -14 162 C-15.09248047 162.433125 -15.09248047 162.433125 -16.20703125 162.875 C-17.92022981 163.56507159 -19.62763203 164.27004 -21.32421875 165 C-39.78810186 172.81281666 -60.14191191 171.91750694 -78.609375 164.5625 C-102.62086346 153.46385644 -117.61844779 133.59459718 -126.67578125 109.27734375 C-130.11530553 98.62927465 -131.51198493 88.46200061 -131.44604492 77.31689453 C-131.43753305 75.13347879 -131.46642464 72.95269112 -131.49804688 70.76953125 C-131.56283285 57.98518924 -129.0321127 46.3565552 -123.625 34.6875 C-123.32392334 34.02218262 -123.02284668 33.35686523 -122.71264648 32.67138672 C-112.9943482 11.59759327 -97.01437973 -5.82139006 -75.07714844 -14.29980469 C-48.32169266 -23.31892165 -21.7561022 -17.18294934 0 0 Z M-98.12890625 22.23828125 C-112.62455715 39.11677887 -118.31193262 61.11564723 -117 83 C-114.73122097 105.2411403 -104.46799099 125.91065204 -87.19824219 140.21459961 C-76.25041104 148.81763408 -63.78358753 153.40073017 -49.875 153.375 C-48.63919189 153.3747583 -48.63919189 153.3747583 -47.37841797 153.37451172 C-37.94171114 153.20074022 -29.70407589 150.5651381 -21 147 C-21 146.34 -21 145.68 -21 145 C-20.28328125 144.74089844 -19.5665625 144.48179687 -18.828125 144.21484375 C-3.86794872 137.78858018 6.36816707 123.06971212 12.47265625 108.48046875 C20.39872327 87.15172279 21.29638641 63.03768932 12.10693359 41.95068359 C3.46290216 23.23768158 -10.28677884 9.33511521 -29.44921875 1.609375 C-55.55456925 -6.8443531 -79.90209265 3.0750442 -98.12890625 22.23828125 Z " fill="#050401" transform="translate(432,287)"/>
<path d="M0 0 C0.99 0 1.98 0 3 0 C3 85.8 3 171.6 3 260 C-6.9 260 -16.8 260 -27 260 C-27.31704014 231.08243691 -27.56742827 202.16519596 -27.71491461 173.24624005 C-27.73242276 169.82569684 -27.75054344 166.40515713 -27.76904297 162.98461914 C-27.77271531 162.30370301 -27.77638766 161.62278689 -27.78017129 160.92123694 C-27.84095318 149.92156106 -27.95125771 138.92291823 -28.08013915 127.92385351 C-28.2114485 116.62262322 -28.28785654 105.32190541 -28.31723893 94.01987416 C-28.33544401 87.67749274 -28.37802069 81.33744744 -28.48022079 74.99581718 C-28.57578333 69.01719689 -28.60445956 63.04185732 -28.58350754 57.06254578 C-28.5873359 54.87719908 -28.61487863 52.69173429 -28.66887665 50.50705147 C-28.90559026 40.42931394 -29.04379807 32.27274048 -22.1306802 24.39963156 C-19.75266557 21.9875108 -17.27479799 19.73744208 -14.70195985 17.5357219 C-12.11676298 15.20303265 -10.03965794 12.59967817 -7.875 9.875 C-7.21242188 9.04742187 -6.54984375 8.21984375 -5.8671875 7.3671875 C-4.52726969 5.66846324 -3.22392716 3.94064582 -1.9453125 2.1953125 C-0.98238281 1.10863281 -0.98238281 1.10863281 0 0 Z " fill="#FB816D" transform="translate(402,489)"/>
<path d="M0 0 C0.33 0 0.66 0 1 0 C1 69.3 1 138.6 1 210 C-8.9 210 -18.8 210 -29 210 C-29 144.66 -29 79.32 -29 12 C-22.73 11.67 -16.46 11.34 -10 11 C-5.70052084 7.09537096 -3.09847706 4.54293617 0 0 Z " fill="#FA806D" transform="translate(359,539)"/>
<path d="M0 0 C9.57 0 19.14 0 29 0 C29 64.68 29 129.36 29 196 C19.43 196 9.86 196 0 196 C0 131.32 0 66.64 0 0 Z " fill="#FF836F" transform="translate(286,552)"/>
<path d="M0 0 C4.95 0 9.9 0 15 0 C15 11.22 15 22.44 15 34 C19.95 34 24.9 34 30 34 C30 67.99 30 101.98 30 137 C25.05 137 20.1 137 15 137 C15 148.55 15 160.1 15 172 C10.05 172 5.1 172 0 172 C0 160.45 0 148.9 0 137 C-4.95 137 -9.9 137 -15 137 C-15 103.01 -15 69.02 -15 34 C-10.05 34 -5.1 34 0 34 C0 22.78 0 11.56 0 0 Z " fill="#010101" transform="translate(76,380)"/>
<path d="M0 0 C5.28 0 10.56 0 16 0 C16 11.22 16 22.44 16 34 C20.95 34 25.9 34 31 34 C31 62.38 31 90.76 31 120 C25.72 120 20.44 120 15 120 C15 131.22 15 142.44 15 154 C10.38 154 5.76 154 1 154 C1 142.78 1 131.56 1 120 C-3.95 120 -8.9 120 -14 120 C-14 91.62 -14 63.24 -14 34 C-9.38 34 -4.76 34 0 34 C0 22.78 0 11.56 0 0 Z " fill="#020201" transform="translate(135,354)"/>
<path d="M0 0 C0.66 0 1.32 0 2 0 C2 58.41 2 116.82 2 177 C-7.57 177 -17.14 177 -27 177 C-27.22650057 159.67444834 -27.41038212 142.35017725 -27.51812172 125.02355194 C-27.56949624 116.97691007 -27.63942338 108.93125923 -27.75439453 100.88525391 C-27.85465825 93.86511689 -27.91871967 86.84569809 -27.94088495 79.82486486 C-27.95382523 76.11338105 -27.98381429 72.40395022 -28.05730057 68.69313049 C-28.61156217 39.57682347 -28.61156217 39.57682347 -18.28015709 27.54323959 C-16.12295471 24.9427149 -14.38012848 22.10094603 -12.55859375 19.2578125 C-11.18734214 17.21189994 -9.81368853 15.167595 -8.4375 13.125 C-7.0393657 11.04494189 -5.64217795 8.96424713 -4.24609375 6.8828125 C-3.64466553 5.98965332 -3.0432373 5.09649414 -2.42358398 4.17626953 C-0.98981994 2.07578543 -0.98981994 2.07578543 0 0 Z " fill="#FE836E" transform="translate(268,571)"/>
<path d="M0 0 C4.95 0 9.9 0 15 0 C15 11.55 15 23.1 15 35 C19.95 35 24.9 35 30 35 C30 57.44 30 79.88 30 103 C24.72 103 19.44 103 14 103 C14 114.22 14 125.44 14 137 C9.38 137 4.76 137 0 137 C0 125.78 0 114.56 0 103 C-4.95 103 -9.9 103 -15 103 C-15 80.56 -15 58.12 -15 35 C-10.05 35 -5.1 35 0 35 C0 23.45 0 11.9 0 0 Z " fill="#020302" transform="translate(196,311)"/>
<path d="M0 0 C4.95 0 9.9 0 15 0 C15 5.61 15 11.22 15 17 C22.59 17 30.18 17 38 17 C38 25.58 38 34.16 38 43 C33.05 43 28.1 43 23 43 C23 40.03 23 37.06 23 34 C18.9156272 34.05183668 14.83337529 34.1469071 10.75 34.25 C9.59113281 34.26417969 8.43226563 34.27835937 7.23828125 34.29296875 C5.56572266 34.34130859 5.56572266 34.34130859 3.859375 34.390625 C2.83295898 34.41157227 1.80654297 34.43251953 0.74902344 34.45410156 C-2.65826691 35.13071801 -3.86155109 36.31651161 -6 39 C-6.70882303 41.90784881 -6.33971789 43.942539 -6 47 C-4.86657385 48.81752905 -4.86657385 48.81752905 -3 50 C-0.58783823 50.45569531 -0.58783823 50.45569531 2.11328125 50.40625 C3.11423828 50.42816406 4.11519531 50.45007813 5.14648438 50.47265625 C6.71366211 50.48619141 6.71366211 50.48619141 8.3125 50.5 C17.91874153 50.58389731 24.05509344 51.75837915 31.390625 58.25 C36.76904426 64.09837822 38.36915919 71.29683292 38.27734375 79.01953125 C37.54365275 86.90412603 33.86923656 93.73085994 28 99 C23.06918218 102.25224154 21.37158378 102 15 102 C15 107.94 15 113.88 15 120 C10.05 120 5.1 120 0 120 C0 114.39 0 108.78 0 103 C-7.26 103 -14.52 103 -22 103 C-22 94.42 -22 85.84 -22 77 C-17.05 77 -12.1 77 -7 77 C-7 79.97 -7 82.94 -7 86 C-2.91542868 85.97720863 1.16634065 85.89991093 5.25 85.8125 C6.40886719 85.80669922 7.56773437 85.80089844 8.76171875 85.79492188 C15.31468887 85.80297667 15.31468887 85.80297667 20.765625 82.640625 C22.27593587 79.4097068 22.59973992 77.52347202 22 74 C20.08333079 71.74934898 20.08333079 71.74934898 18 70 C18 69.34 18 68.68 18 68 C17.40050537 68.01047363 16.80101074 68.02094727 16.18334961 68.03173828 C13.4347767 68.07362837 10.68627126 68.09943003 7.9375 68.125 C6.99455078 68.14175781 6.05160156 68.15851563 5.08007812 68.17578125 C-2.38113304 68.22777575 -8.75003498 67.87848726 -14.58203125 62.625 C-20.56258404 55.77125355 -22.33659755 48.6779962 -22.20703125 39.80859375 C-21.5453545 30.83226192 -16.52725911 25.3835366 -10.27734375 19.33203125 C-8 18 -8 18 0 17 C0 11.39 0 5.78 0 0 Z " fill="#040402" transform="translate(375,303)"/>
<path d="M0 0 C9.9 0 19.8 0 30 0 C30 42.57 30 85.14 30 129 C20.1 129 10.2 129 0 129 C0 86.43 0 43.86 0 0 Z " fill="#FA806D" transform="translate(196,620)"/>
<path d="M0 0 C9.9 0 19.8 0 30 0 C30 42.57 30 85.14 30 129 C20.1 129 10.2 129 0 129 C0 86.43 0 43.86 0 0 Z " fill="#FA806D" transform="translate(151,620)"/>
<path d="M0 0 C13.58520743 7.82422203 20.25794414 22.85074328 24.43798828 37.50537109 C28.22403361 51.81061679 32.6246688 69.33049426 26.0859375 83.2890625 C23.35056422 87.63545317 19.50932342 90.30330331 14.8125 92.3125 C9.71004452 93.13687631 5.14924785 92.93180139 0.625 90.3125 C-0.67986795 89.35733666 -1.95204292 88.35589022 -3.1875 87.3125 C-3.75984375 86.83554687 -4.3321875 86.35859375 -4.921875 85.8671875 C-18.98303106 71.99953359 -26.02772584 44.91828464 -27.453125 25.73828125 C-27.40314266 15.77929906 -26.15595962 8.73215485 -19.1875 1.3125 C-13.27622814 -2.8910711 -6.48487863 -3.05024884 0 0 Z " fill="#353535" transform="translate(893.1875,477.6875)"/>
<path d="M0 0 C0.66 0 1.32 0 2 0 C2 37.62 2 75.24 2 114 C-7.9 114 -17.8 114 -28 114 C-28.24981541 104.20234425 -28.45104633 94.40684677 -28.56993389 84.60671043 C-28.62703289 80.05462501 -28.70429526 75.50485464 -28.82983398 70.95410156 C-28.95051371 66.55127333 -29.01535914 62.1506519 -29.04364967 57.74629593 C-29.06377317 56.07727979 -29.10306879 54.40836693 -29.16303062 52.74030685 C-29.55802537 41.28266208 -27.73457489 34.60748297 -19.88117981 26.08145142 C-19.4047938 25.58057133 -18.92840778 25.07969124 -18.43758583 24.56363297 C-16.02028617 21.93438513 -13.91074341 19.09247996 -11.75 16.25 C-11.34273084 15.7223385 -10.93546167 15.19467701 -10.51585102 14.65102577 C-7.29198411 10.46012918 -4.29108369 6.13964337 -1.375 1.73046875 C-0.92125 1.15941406 -0.4675 0.58835937 0 0 Z " fill="#FE816D" transform="translate(134,635)"/>
<path d="M0 0 C0.66 0 1.32 0 2 0 C2 18.15 2 36.3 2 55 C-11.86 55 -25.72 55 -40 55 C-38.44819314 51.12048284 -37.51935222 49.08665964 -35.05859375 45.99609375 C-34.47980469 45.26197266 -33.90101562 44.52785156 -33.3046875 43.77148438 C-32.68851563 43.00126953 -32.07234375 42.23105469 -31.4375 41.4375 C-30.15414559 39.81183098 -28.87159257 38.18552899 -27.58984375 36.55859375 C-26.96835449 35.77210449 -26.34686523 34.98561523 -25.70654297 34.17529297 C-23.59296456 31.48116084 -21.54033617 28.75001831 -19.5 26 C-14.97050314 19.9091993 -10.29509986 13.93449765 -5.60742188 7.96484375 C-5.02541016 7.22105469 -4.44339844 6.47726562 -3.84375 5.7109375 C-3.05774414 4.71006104 -3.05774414 4.71006104 -2.25585938 3.68896484 C-0.93450177 2.01468772 -0.93450177 2.01468772 0 0 Z " fill="#F47D6A" transform="translate(89,694)"/>
<path d="M0 0 C4.95 0 9.9 0 15 0 C15 22.77 15 45.54 15 69 C10.05 69 5.1 69 0 69 C0 46.23 0 23.46 0 0 Z " fill="#B3DC7E" transform="translate(76,431)"/>
<path d="M0 0 C4.84519135 2.42259567 7.32123742 5.33696883 10 10 C12.76165321 18.28495963 11.84846148 29.14913859 8 37 C4.39967183 40.89224667 0.21955477 42.76530348 -5.08984375 43.15234375 C-10.51860771 43.24069615 -10.51860771 43.24069615 -13 42 C-13.02933699 37.54168078 -13.04691123 33.08338682 -13.0625 28.625 C-13.07087891 27.37332031 -13.07925781 26.12164062 -13.08789062 24.83203125 C-13.13742246 5.91086974 -13.13742246 5.91086974 -10.4375 1.375 C-6.95325341 -0.59047244 -3.8456743 -0.72756 0 0 Z " fill="#363636" transform="translate(1879,469)"/>
<path d="M0 0 C0.33 0 0.66 0 1 0 C1 92.73 1 185.46 1 281 C-8.9 281 -18.8 281 -29 281 C-29 193.55 -29 106.1 -29 16 C-28.34 16 -27.68 16 -27 16 C-27 102.79 -27 189.58 -27 279 C-18.09 279 -9.18 279 0 279 C0 186.93 0 94.86 0 0 Z " fill="#E07C69" transform="translate(449,468)"/>
<path d="M0 0 C4.95 0 9.9 0 15 0 C15 16.83 15 33.66 15 51 C10.05 51 5.1 51 0 51 C0 34.17 0 17.34 0 0 Z " fill="#B2DB7E" transform="translate(136,406)"/>
<path d="M0 0 C4.13859495 0.97378705 5.13841122 2.41005104 7.46484375 5.859375 C9.74103321 9.67883123 11.93490177 13.53336349 14.0625 17.4375 C14.46831299 18.17411865 14.87412598 18.9107373 15.29223633 19.66967773 C18.86399966 26.43525219 18.86399966 26.43525219 18.1875 30.75 C17.1875 31.75 17.1875 31.75 14.22827148 31.86352539 C12.93477783 31.85828857 11.64128418 31.85305176 10.30859375 31.84765625 C9.27860008 31.84553383 9.27860008 31.84553383 8.22779846 31.84336853 C6.02682199 31.83775479 3.82594591 31.82520007 1.625 31.8125 C0.13606917 31.80748676 -1.35286324 31.80292355 -2.84179688 31.79882812 C-6.49873075 31.78778093 -10.15560558 31.77050713 -13.8125 31.75 C-13.95395033 27.35630427 -13.829951 23.9113652 -12.16796875 19.83203125 C-11.82056641 18.97029297 -11.47316406 18.10855469 -11.11523438 17.22070312 C-10.74720703 16.34349609 -10.37917969 15.46628906 -10 14.5625 C-9.64357422 13.67369141 -9.28714844 12.78488281 -8.91992188 11.86914062 C-4.55754937 1.2153465 -4.55754937 1.2153465 0 0 Z " fill="#363636" transform="translate(1685.8125,504.25)"/>
<path d="M0 0 C4.62 0 9.24 0 14 0 C14 11.22 14 22.44 14 34 C9.38 34 4.76 34 0 34 C0 22.78 0 11.56 0 0 Z " fill="#B7E181" transform="translate(196,363)"/>
<path d="M0 0 C0.66 0 1.32 0 2 0 C2 37.62 2 75.24 2 114 C-7.9 114 -17.8 114 -28 114 C-28 89.25 -28 64.5 -28 39 C-27.67 39 -27.34 39 -27 39 C-27 63.09 -27 87.18 -27 112 C-18.09 112 -9.18 112 0 112 C0 75.04 0 38.08 0 0 Z " fill="#D67664" transform="translate(134,635)"/>
<path d="M0 0 C4.95 0 9.9 0 15 0 C15 22.77 15 45.54 15 69 C14.34 69 13.68 69 13 69 C13 46.89 13 24.78 13 2 C9.04 2 5.08 2 1 2 C1 24.11 1 46.22 1 69 C0.67 69 0.34 69 0 69 C0 46.23 0 23.46 0 0 Z " fill="#ABD279" transform="translate(76,431)"/>
</svg>
